<svg id="Calque_1" data-name="Calque 1" xmlns="http://www.w3.org/2000/svg" xmlns:xlink="http://www.w3.org/1999/xlink" viewBox="0 0 54.94 34.17"><defs><style>.cls-1{stroke:#010101;stroke-miterlimit:10;fill:url(#Dégradé_sans_nom_88);}.cls-2{fill:url(#Dégradé_sans_nom_194);}.cls-3{fill:#fcfefc;}</style><linearGradient id="Dégradé_sans_nom_88" x1="20.28" y1="25.86" x2="74.22" y2="25.86" gradientUnits="userSpaceOnUse"><stop offset="0.04" stop-color="#44393a"/><stop offset="0.24" stop-color="#673132"/><stop offset="0.5" stop-color="#4d1413"/><stop offset="0.77" stop-color="#5b3435"/><stop offset="0.96" stop-color="#44393a"/></linearGradient><linearGradient id="Dégradé_sans_nom_194" x1="67.49" y1="37.85" x2="30.24" y2="35.89" gradientUnits="userSpaceOnUse"><stop offset="0.08" stop-color="#c1807e"/><stop offset="0.17" stop-color="#dd8b89"/><stop offset="0.27" stop-color="#f29698"/><stop offset="0.55" stop-color="#d28688"/><stop offset="0.68" stop-color="#f29798"/><stop offset="0.82" stop-color="#f2979a"/><stop offset="0.98" stop-color="#a06a68"/></linearGradient></defs><path class="cls-1" d="M22,13.21c.54,1.64,2.08,5.16,6.88,8.26A26.5,26.5,0,0,0,40.74,25.8a32.21,32.21,0,0,0,7.5,0,28,28,0,0,0,17.49-8.65c4.41-4.63,3.74-7.9,5-7.88,2.4,0,6.49,11.84,0,22a20,20,0,0,1-6.25,6.3,29.58,29.58,0,0,1-13.74,4.72,34.29,34.29,0,0,1-20-4.72c-7.7-4.48-9.09-10.35-10-14.17a13.89,13.89,0,0,1,0-7.08A15.66,15.66,0,0,1,22,13.21Z" transform="translate(-19.78 -8.77)"/><path class="cls-2" d="M32.62,38.34c-1.18-2.09,3.74-5.49,8.74-6.61.9-.2,3.69-.83,5,0,.91.57.48,1.44,1.25,1.65,1.06.29,2.22-1.27,5-1.65a11.41,11.41,0,0,1,2.5,0c3.08.32,6.12,3,7.5,6.61A18.16,18.16,0,0,1,57,41.23c-4.67,1.51-9,1.13-12.49.83a33.4,33.4,0,0,1-10-2.48C33.25,39,32.84,38.73,32.62,38.34Z" transform="translate(-19.78 -8.77)"/><path class="cls-3" d="M28.87,22a1.23,1.23,0,0,0-.88.91,1.05,1.05,0,0,0,.34,1.35,18.08,18.08,0,0,0,6.79,3.44,27.81,27.81,0,0,0,5,.82c5.81.56,7.35.08,11.88-.39a35.22,35.22,0,0,0,13.12-5.31c2-1.48,2.64-2.38,2.7-3.14a2.2,2.2,0,0,0-.2-.94,4.14,4.14,0,0,0-1.25-1.62l-.25.37a17.31,17.31,0,0,1-6.48,5.3,28.62,28.62,0,0,1-9.52,3.28c-6.63,1-16.5-.63-19.37-3.45A2,2,0,0,0,28.87,22Z" transform="translate(-19.78 -8.77)"/></svg>