<svg id="Calque_1" data-name="Calque 1" xmlns="http://www.w3.org/2000/svg" viewBox="0 0 276.07 144.15"><defs><style>.cls-1{fill:#010101;stroke:#010101;stroke-miterlimit:10;}</style></defs><path class="cls-1" d="M38.75,64.1C60.92,62.84,77.43,67,89.31,72.15c.72.31,1.43.62,2.13.94a53.08,53.08,0,0,1,5.67-7.23c3.19-3.42,14.63-15.67,26.26-14.55,1.14.11,1.56.29,2.13,0,5.75-2.86-4.49-34.61-14.07-41.1-.49-.34-.1.22,0,0,.46-1.06,13.34.1,25.77,10.8.5.43.89.78,1.07.95,1.72-3.23,11.9-19.73,35.2-19.75,2.28,0,12,.31,14.67,1-8.22,11-31.23,29.08-21.14,39.58a9.8,9.8,0,0,0,1.07,1c4.17-7,13.33-19.44,28.74-22.73,6.58-1.4,12.28-.64,23.41.95a224.08,224.08,0,0,1,34.06,7.57c-5.27,3.24-20.11,12.83-27.67,24.63a142.93,142.93,0,0,0-8.52,16.09c-1.42,3.14-2.49,5.77-3.19,7.58,11.17-1,28.77-1.25,39.38,5.68.9.59,3,2,5.32,3.79a127.13,127.13,0,0,1,16,14.2c-28.42,6.37-48.73,12.27-50,14.21a14.75,14.75,0,0,0-1.06,1.89c-.36,1.27-.71,2.53-1.07,3.79,7,2.57,21.86,8.88,22.35,18a7.53,7.53,0,0,1,0,1c-6.86-2.88-19.16-6.76-30.33-2.37-.71.28-1.42.6-2.13.95a15.87,15.87,0,0,0-2.13-10.42c-.42-.67-1.14-1.7-4.25-4.73-5.18-5.05-7.6-7.71-8.52-7.58-3.39.5-2.22,10.06-9.58,23.68,0,0-.62,1.95-1.06,1.89-.86-.12,2-8.9-2.13-18A31.49,31.49,0,0,0,183.5,120a91.64,91.64,0,0,0-12.77-16.1c1.23,11.52-1.9,17.12-4.26,19.89-1,1.14-3.57,3.85-5.32,5.68-3.09,3.23-5.69,5.84-7.45,7.58a41,41,0,0,0,2.13-19.89,27.89,27.89,0,0,0-1.07-4.74c-2.56-8-8.59-13.19-12.77-16.09-.57.26-3.68,1.79-4.25,4.73a4.84,4.84,0,0,0,0,1.9c-.06-.42-.61-4-3.2-4.74a4,4,0,0,0-2.13,0c-3.7.92-6.49,8-7.45,14.2a37.62,37.62,0,0,0,2.13,18.94L113.26,119c-1.29,7.39.25,10.7,2.12,12.31.55.48,1.15.82,1.07.95-.28.46-8.8-1.71-12.77-7.57a13.92,13.92,0,0,1-1.07-1.9c-5.93,12.3-5.44,17.12-3.19,18.94.46.37,1.16.76,1.06.95-.54,1.09-23.85-10.63-33-3.79a7.61,7.61,0,0,0-1.06,1c1.54-1.34,7.82-6.46,16-5.68a19.3,19.3,0,0,1,4.26.94c.12-.31-37.36-14.5-57.48-12.31-1.4.16-3,.42-3.19,0-.68-1.5,16.88-12,37.25-12.31.42,0,2,.29,2.13,0,.35-.93-15.23-4.79-33-15.15-1.92-1.12-1.75-1.08-3.2-1.89A84,84,0,0,0,2.57,84a146.35,146.35,0,0,1,53.21-6.63c3.31.21,6.51.53,9.58.94Z" transform="translate(-0.47 -1.71)"/><path class="cls-1" d="M82,89c8.58,12.46,50.74-.13,63.88-7.84a11.67,11.67,0,0,0,3.93-3.59C154.9,69.93,149,55.74,139,50c-14-7.94-34.74,1.18-45.41,11.17C86.55,67.75,76.78,81.34,82,89Z" transform="translate(-0.47 -1.71)"/><path class="cls-1" d="M196,116.21c-2.95,9.82,10.23,19.52,5.64,27-.62,1-1.4,1.7-1.13,2,1,1.08,15.1-3.71,16.92-12,.47-2.17-.81-5.14-3.39-11-4-9.15-6.09-13.72-9-14C201.8,107.89,197.36,111.78,196,116.21Z" transform="translate(-0.47 -1.71)"/></svg>