<svg id="Calque_1" data-name="Calque 1" xmlns="http://www.w3.org/2000/svg" xmlns:xlink="http://www.w3.org/1999/xlink" viewBox="0 0 56.16 57.67"><defs><style>.cls-1,.cls-2,.cls-3,.cls-9{fill:none;stroke-miterlimit:10;}.cls-1,.cls-3{stroke-width:8px;}.cls-1{stroke:url(#Dégradé_sans_nom_63);}.cls-2{stroke:#fff;stroke-width:3px;}.cls-3{stroke:url(#Dégradé_sans_nom_77);}.cls-4{fill:url(#Dégradé_sans_nom_77-2);}.cls-5{fill:url(#Dégradé_sans_nom_77-3);}.cls-6{fill:url(#Dégradé_sans_nom_77-4);}.cls-7{fill:url(#Dégradé_sans_nom_77-5);}.cls-8{fill:url(#Dégradé_sans_nom_77-6);}.cls-9{stroke-width:2px;stroke:url(#Dégradé_sans_nom_77-7);}</style><linearGradient id="Dégradé_sans_nom_63" x1="3.97" y1="26.8" x2="31.41" y2="26.8" gradientUnits="userSpaceOnUse"><stop offset="0.12" stop-color="#312782"/><stop offset="0.78" stop-color="#63b5e5"/></linearGradient><radialGradient id="Dégradé_sans_nom_77" cx="28.64" cy="25.64" r="30.69" gradientTransform="translate(4.69 7.44) scale(0.9 0.86)" gradientUnits="userSpaceOnUse"><stop offset="0" stop-color="#71caf3"/><stop offset="1" stop-color="#312782"/></radialGradient><radialGradient id="Dégradé_sans_nom_77-2" cx="-332.42" cy="-118.15" r="2.92" gradientTransform="matrix(0.06, 0.28, -0.28, 0.05, 29.96, 142.84)" xlink:href="#Dégradé_sans_nom_77"/><radialGradient id="Dégradé_sans_nom_77-3" cx="-325.63" cy="-112.83" r="2.92" gradientTransform="matrix(0.06, 0.28, -0.28, 0.05, 32.92, 142.17)" xlink:href="#Dégradé_sans_nom_77"/><radialGradient id="Dégradé_sans_nom_77-4" cx="-338.81" cy="-112.69" r="2.92" gradientTransform="matrix(0.06, 0.28, -0.28, 0.05, 30.02, 145.93)" xlink:href="#Dégradé_sans_nom_77"/><radialGradient id="Dégradé_sans_nom_77-5" cx="-332.02" cy="-107.37" r="2.92" gradientTransform="matrix(0.06, 0.28, -0.28, 0.05, 32.98, 145.27)" xlink:href="#Dégradé_sans_nom_77"/><radialGradient id="Dégradé_sans_nom_77-6" cx="-343.28" cy="-129.52" r="0" gradientTransform="matrix(0.28, -0.01, -0.01, 0.28, 136.32, 76.79)" xlink:href="#Dégradé_sans_nom_77"/><radialGradient id="Dégradé_sans_nom_77-7" cx="29.95" cy="45.67" r="2.24" gradientTransform="translate(0.92 7.84) scale(0.92 0.85)" xlink:href="#Dégradé_sans_nom_77"/></defs><polyline class="cls-1" points="28.71 27.75 8.87 9.63 7.97 52.78"/><polygon class="cls-2" points="14.12 41.93 3.16 55.8 19.69 55.37 14.12 41.93"/><path class="cls-3" d="M44.88,34.17l.79-22L11.79,54h35.8C48.85,54,53,50.85,53,47.11c0-2.73-1.85-6.7-7.22-6.9-3.6-.14-9.92,0-9.92,0" transform="translate(-0.84 -0.37)"/><ellipse class="cls-4" cx="43.19" cy="45.47" rx="0.79" ry="0.85" transform="translate(-10.44 78.96) rotate(-79.15)"/><ellipse class="cls-5" cx="45.07" cy="46.93" rx="0.79" ry="0.85" transform="translate(-10.34 82) rotate(-79.15)"/><ellipse class="cls-6" cx="41.35" cy="47.06" rx="0.79" ry="0.85" transform="translate(-13.49 78.44) rotate(-79.15)"/><ellipse class="cls-7" cx="43.23" cy="48.52" rx="0.79" ry="0.85" transform="translate(-13.39 81.48) rotate(-79.15)"/><path class="cls-8" d="M40.19,42.33" transform="translate(-0.84 -0.37)"/><line class="cls-9" x1="25.6" y1="46.83" x2="31.1" y2="46.83"/><line class="cls-9" x1="28.35" y1="44.27" x2="28.35" y2="49.4"/></svg>