<svg id="Calque_3" data-name="Calque 3" xmlns="http://www.w3.org/2000/svg" xmlns:xlink="http://www.w3.org/1999/xlink" viewBox="0 0 38.78 31.77"><defs><style>.cls-1,.cls-16,.cls-17,.cls-18,.cls-20,.cls-21,.cls-22,.cls-23,.cls-24,.cls-25,.cls-4{stroke:#1d1d1b;}.cls-1,.cls-11,.cls-14,.cls-15,.cls-16,.cls-17,.cls-18,.cls-19,.cls-20,.cls-21,.cls-22,.cls-23,.cls-24,.cls-25,.cls-26,.cls-28,.cls-29,.cls-31,.cls-32,.cls-33,.cls-34,.cls-35,.cls-36,.cls-37,.cls-38,.cls-39,.cls-4,.cls-40,.cls-42,.cls-7{stroke-miterlimit:10;}.cls-1,.cls-11,.cls-14,.cls-15,.cls-16,.cls-17,.cls-19,.cls-20,.cls-21,.cls-22,.cls-37,.cls-38,.cls-39,.cls-4,.cls-40,.cls-7{stroke-width:0.1px;}.cls-1{fill:url(#Dégradé_sans_nom_432);}.cls-2{fill:#25323a;}.cls-3{fill:url(#Dégradé_sans_nom_326);}.cls-4{fill:url(#Dégradé_sans_nom_432-2);}.cls-5{fill:url(#Dégradé_sans_nom_400);}.cls-6{fill:url(#Dégradé_sans_nom_234);}.cls-11,.cls-14,.cls-15,.cls-19,.cls-26,.cls-28,.cls-37,.cls-38,.cls-39,.cls-40,.cls-7{stroke:#000;}.cls-7{fill:url(#Dégradé_sans_nom_164);}.cls-8{fill:url(#Dégradé_sans_nom_400-2);}.cls-9{fill:#9c4f01;}.cls-10,.cls-37{fill:#6c243a;}.cls-11{fill:#925303;}.cls-12{fill:url(#Dégradé_sans_nom_300);}.cls-13{fill:url(#Dégradé_sans_nom_300-2);}.cls-14{fill:url(#Dégradé_sans_nom_217);}.cls-15{fill:url(#Dégradé_sans_nom_217-2);}.cls-16{fill:url(#Dégradé_sans_nom_369);}.cls-17{fill:url(#Dégradé_sans_nom_359);}.cls-18,.cls-25,.cls-30,.cls-40{fill:none;}.cls-18{stroke-width:0.05px;}.cls-19{fill:url(#Dégradé_sans_nom_171);}.cls-20{fill:url(#Dégradé_sans_nom_383);}.cls-21{fill:url(#Dégradé_sans_nom_390);}.cls-22{fill:#cbaf83;}.cls-23{fill:#fdfefc;}.cls-23,.cls-24,.cls-25,.cls-28,.cls-29,.cls-31,.cls-32,.cls-33,.cls-34,.cls-35,.cls-36,.cls-42{stroke-width:0.25px;}.cls-24{fill:#f6faf5;}.cls-26{stroke-width:0.5px;fill:url(#Dégradé_sans_nom_423);}.cls-27{fill:#395877;}.cls-28{fill:url(#Dégradé_sans_nom_59);}.cls-29{fill:url(#Dégradé_sans_nom_59-2);stroke:url(#Dégradé_sans_nom_59-3);}.cls-31,.cls-32,.cls-33,.cls-34,.cls-35,.cls-36,.cls-42{stroke:#231600;}.cls-31{fill:url(#Dégradé_sans_nom_43);}.cls-32{fill:url(#Dégradé_sans_nom_43-2);}.cls-33{fill:url(#Dégradé_sans_nom_43-3);}.cls-34{fill:url(#Dégradé_sans_nom_43-4);}.cls-35{fill:url(#Dégradé_sans_nom_43-5);}.cls-36{fill:url(#Dégradé_sans_nom_43-6);}.cls-38{fill:#924600;}.cls-39,.cls-41{fill:#964901;}.cls-42{fill:url(#Dégradé_sans_nom_145);}</style><linearGradient id="Dégradé_sans_nom_432" x1="10.01" y1="17.35" x2="14.84" y2="17.35" gradientUnits="userSpaceOnUse"><stop offset="0"/><stop offset="0.07" stop-color="#5a5a5a"/><stop offset="1" stop-color="#aaaaa9"/></linearGradient><linearGradient id="Dégradé_sans_nom_326" x1="21.2" y1="35.09" x2="26.96" y2="29.5" gradientUnits="userSpaceOnUse"><stop offset="0.14" stop-color="#59658d"/><stop offset="0.38" stop-color="#455579"/><stop offset="0.67" stop-color="#2c4160"/><stop offset="0.84" stop-color="#2c4160"/></linearGradient><linearGradient id="Dégradé_sans_nom_432-2" x1="21.18" y1="16.14" x2="26.01" y2="16.14" xlink:href="#Dégradé_sans_nom_432"/><linearGradient id="Dégradé_sans_nom_400" x1="22.2" y1="28.9" x2="30.28" y2="26.38" gradientTransform="matrix(-0.31, 0.9, 0.95, 0.33, 10.1, -5.24)" gradientUnits="userSpaceOnUse"><stop offset="0.05" stop-color="#0f253d"/><stop offset="0.68" stop-color="#1f4461"/><stop offset="0.89" stop-color="#5e7891"/></linearGradient><linearGradient id="Dégradé_sans_nom_234" x1="10.15" y1="29.86" x2="22.26" y2="35.65" gradientUnits="userSpaceOnUse"><stop offset="0.14" stop-color="#26415f"/><stop offset="0.47" stop-color="#25455e"/><stop offset="0.77" stop-color="#586285"/><stop offset="0.91" stop-color="#586285"/></linearGradient><linearGradient id="Dégradé_sans_nom_164" x1="9.73" y1="34.94" x2="21.32" y2="34.94" gradientUnits="userSpaceOnUse"><stop offset="0.06" stop-color="#785750"/><stop offset="0.45" stop-color="#ef9906"/><stop offset="0.76" stop-color="#eba100"/><stop offset="0.86" stop-color="#f3d32a"/></linearGradient><linearGradient id="Dégradé_sans_nom_400-2" x1="4.65" y1="28.81" x2="12.72" y2="26.3" gradientTransform="matrix(1, 0, 0, 1, 0, 0)" xlink:href="#Dégradé_sans_nom_400"/><linearGradient id="Dégradé_sans_nom_300" x1="21.24" y1="16.7" x2="25.12" y2="23.88" gradientTransform="matrix(-0.86, 0.23, 0.28, 1.07, 40.99, -6.93)" gradientUnits="userSpaceOnUse"><stop offset="0.03"/><stop offset="0.21" stop-color="#121922"/><stop offset="0.41" stop-color="#222e3e"/><stop offset="0.67" stop-color="#26425f"/><stop offset="0.88" stop-color="#26425f"/></linearGradient><linearGradient id="Dégradé_sans_nom_300-2" x1="9.93" y1="18.4" x2="13.74" y2="25.47" gradientTransform="matrix(1, 0, 0, 1, 0, 0)" xlink:href="#Dégradé_sans_nom_300"/><linearGradient id="Dégradé_sans_nom_217" x1="12.76" y1="19.21" x2="9.33" y2="22.64" gradientUnits="userSpaceOnUse"><stop offset="0.21" stop-color="#955740"/><stop offset="0.35" stop-color="#9b5a3c"/><stop offset="0.67" stop-color="#f38000"/><stop offset="0.79" stop-color="#fed01a"/></linearGradient><linearGradient id="Dégradé_sans_nom_217-2" x1="20.56" y1="17.07" x2="17.19" y2="20.43" gradientTransform="matrix(-1, 0.46, 0.45, 0.98, 37.39, -7.34)" xlink:href="#Dégradé_sans_nom_217"/><linearGradient id="Dégradé_sans_nom_369" x1="12.05" y1="15.54" x2="12.47" y2="19.68" gradientUnits="userSpaceOnUse"><stop offset="0"/><stop offset="0.19" stop-color="#5d503c"/><stop offset="0.41" stop-color="#cbaf83"/><stop offset="0.64" stop-color="#cbaf83"/></linearGradient><linearGradient id="Dégradé_sans_nom_359" x1="18.93" y1="13.97" x2="20.33" y2="25.69" gradientUnits="userSpaceOnUse"><stop offset="0.02"/><stop offset="0.25" stop-color="#cbaf83"/><stop offset="0.51" stop-color="#cbaf83"/></linearGradient><linearGradient id="Dégradé_sans_nom_171" x1="21.6" y1="33.72" x2="27.29" y2="33.34" gradientUnits="userSpaceOnUse"><stop offset="0.13" stop-color="#f3d32a"/><stop offset="0.54" stop-color="#ef9906"/><stop offset="0.81" stop-color="#ef9c08"/><stop offset="1" stop-color="#785750"/></linearGradient><linearGradient id="Dégradé_sans_nom_383" x1="19.35" y1="16.73" x2="20.83" y2="31.25" gradientUnits="userSpaceOnUse"><stop offset="0"/><stop offset="0.2" stop-color="#aaaaa9"/><stop offset="0.64" stop-color="#aaaaa9"/><stop offset="0.74" stop-color="#aaaaa9"/></linearGradient><linearGradient id="Dégradé_sans_nom_390" x1="21.05" y1="16.12" x2="21.45" y2="24.09" gradientUnits="userSpaceOnUse"><stop offset="0.03"/><stop offset="0.51" stop-color="#aaaaa9"/><stop offset="0.64" stop-color="#aaaaa9"/><stop offset="0.9" stop-color="#aaaaa9"/></linearGradient><linearGradient id="Dégradé_sans_nom_423" x1="1.66" y1="7.67" x2="34.93" y2="7.67" gradientUnits="userSpaceOnUse"><stop offset="0.07" stop-color="#203958"/><stop offset="0.31" stop-color="#39557d"/><stop offset="0.54" stop-color="#3a567d"/><stop offset="0.81" stop-color="#6a83ab"/></linearGradient><linearGradient id="Dégradé_sans_nom_59" x1="16.86" y1="9.78" x2="25.48" y2="9.78" gradientUnits="userSpaceOnUse"><stop offset="0.08" stop-color="#ce6c2d"/><stop offset="0.33" stop-color="#d2722a"/><stop offset="0.62" stop-color="#ef9c10"/><stop offset="0.9" stop-color="#f5b226"/></linearGradient><linearGradient id="Dégradé_sans_nom_59-2" x1="16.8" y1="6.56" x2="23.41" y2="6.56" xlink:href="#Dégradé_sans_nom_59"/><linearGradient id="Dégradé_sans_nom_59-3" x1="16.68" y1="6.56" x2="23.54" y2="6.56" xlink:href="#Dégradé_sans_nom_59"/><linearGradient id="Dégradé_sans_nom_43" x1="19.14" y1="10.62" x2="20.17" y2="10.62" gradientUnits="userSpaceOnUse"><stop offset="0.07" stop-color="#534"/><stop offset="0.61" stop-color="#854b3d"/><stop offset="0.91" stop-color="#894a39"/></linearGradient><linearGradient id="Dégradé_sans_nom_43-2" x1="19.12" y1="8.66" x2="22.83" y2="8.66" xlink:href="#Dégradé_sans_nom_43"/><linearGradient id="Dégradé_sans_nom_43-3" x1="22.7" y1="9.86" x2="23.8" y2="9.86" xlink:href="#Dégradé_sans_nom_43"/><linearGradient id="Dégradé_sans_nom_43-4" x1="20.08" y1="11.8" x2="23.66" y2="11.8" xlink:href="#Dégradé_sans_nom_43"/><linearGradient id="Dégradé_sans_nom_43-5" x1="16.12" y1="10.56" x2="18.09" y2="10.56" xlink:href="#Dégradé_sans_nom_43"/><linearGradient id="Dégradé_sans_nom_43-6" x1="11.02" y1="9.82" x2="16.46" y2="9.82" xlink:href="#Dégradé_sans_nom_43"/><linearGradient id="Dégradé_sans_nom_145" x1="10.61" y1="6.89" x2="13.9" y2="6.89" gradientUnits="userSpaceOnUse"><stop offset="0.07" stop-color="#003177"/><stop offset="0.43" stop-color="#1c437a"/><stop offset="0.58" stop-color="#3a567d"/><stop offset="0.78" stop-color="#7187ac"/></linearGradient></defs><path class="cls-1" d="M10.36,13.65c-1.2,1.15,1,4.2,1.23,7.27,0,.13,0,.38.18.47.55.29,2.77-1.43,3-3.69a4,4,0,0,0-2.1-4.16C12.64,13.51,11.12,12.93,10.36,13.65Z"/><polygon class="cls-2" points="18.43 30.3 20.86 29.11 22.85 29.93 24.25 36.15 23.95 38.21 19.48 39.54 17.42 32.76 18.43 30.3"/><path class="cls-3" d="M21.31,29.55l.74,3.14L23.62,38s2.72-2.41,2.69-2.5.42-2.22.42-2.22l-.09-1.08-.44-2L24.82,28Z"/><path class="cls-4" d="M21.53,12.44c-1.2,1.15,1,4.19,1.23,7.26,0,.14,0,.39.18.47.55.3,2.77-1.43,3-3.68a4,4,0,0,0-2.1-4.16C23.81,12.3,22.29,11.72,21.53,12.44Z"/><path class="cls-5" d="M31.9,25.4a4.23,4.23,0,0,1,.58,2.6,3.8,3.8,0,0,1-.18.69,4.21,4.21,0,0,1-1.7,2,4.67,4.67,0,0,1-3.46.44A5.32,5.32,0,0,1,25,30.06c-.31-.27-.42-1-.72-1.63-.18-.39-.57-.36-.58-.43a3.22,3.22,0,0,1,.4-1.83A8,8,0,0,1,25.24,24C26.74,22.67,30.65,23.36,31.9,25.4Z"/><path class="cls-6" d="M9.94,32.19c1.51,3.24,1.18,3.92,2.22,5.15a6.92,6.92,0,0,0,3.7,2.15c1.7.47,4.24.55,4.81-.49a1.82,1.82,0,0,0,.17-.47,4,4,0,0,0-.26-1.94c0-.21-.09-.71-.19-1.73-.05-.63-.1-1.23-.14-1.92-.13-2.41,0-2.75-.11-3.27a5.35,5.35,0,0,0-4.05-3.91c-1-.19-1.62.1-2.74-.42-.78-.37-.84-.68-1.57-1.1"/><path class="cls-7" d="M20.09,37.81l0,.89a20.5,20.5,0,0,1-2.58.19,6.75,6.75,0,0,1-2.81-.54A6.11,6.11,0,0,1,12.6,37l-.27-.27c-.58-.92-1.05-1.63-1.34-2.23a9.05,9.05,0,0,1-.62-1.64A11.83,11.83,0,0,1,10,31.52l-.16-.6v0a6,6,0,0,0,0,2.16v0a10.61,10.61,0,0,0,.87,2.66,8.32,8.32,0,0,0,2,2.72,6.63,6.63,0,0,0,1.36.91,8.78,8.78,0,0,0,4.11.93,11.1,11.1,0,0,0,3.11-.66v-.22a13.51,13.51,0,0,0-.11-1.91l-.8-6.84,0-.95-.68-.22.11.48A6.52,6.52,0,0,1,20,31.41L20.09,38c0-1.59-.16-5.83-.15-7.42"/><path class="cls-8" d="M5.46,30.5a4.56,4.56,0,0,0,2.39,1.39,4.31,4.31,0,0,0,.75.05A4.51,4.51,0,0,0,11.22,31a4.55,4.55,0,0,0,1.61-3.13,4.87,4.87,0,0,0-.38-2.36,3.7,3.7,0,0,0-.9-1.4,2.88,2.88,0,0,0-.71-.49,3.46,3.46,0,0,0-1.95-.22,9.33,9.33,0,0,0-2.51.35C4.51,24.73,3.86,28.65,5.46,30.5Z"/><path class="cls-9" d="M2.09,24.36c-.52-1-.91-1.7-1.44-2,0,0-.15-.08-.16-.17s.61-.59,1.15-.64a2,2,0,0,1,1.72.56c.25.34.57.9.9,1.06s-.12,0,.23,0a1,1,0,0,1,1,.46,1.78,1.78,0,0,0,.86.48c.84.2,1.1-.31,1.71-.11.35.12.59.49,1.08,1.24s.76,1.17.64,1.45-.77.37-1.85.4A17.27,17.27,0,0,1,5.43,27c-1.43-.19-2.15-.28-2.5-.61S2.82,25.71,2.09,24.36Z"/><path class="cls-10" d="M2.14,26.24c.45-.38,1.2-.62,1.52-.34.14.12.08.23.24.42a1.21,1.21,0,0,0,.82.34,3.67,3.67,0,0,0,1.45-.21c.28-.08.44-.15.6-.06s.15.41.34.53c.36.22,1.11-.55,1.24-.42s-.15.7-.57,1.13c-.72.74-1.75.71-3.53.7-1.51,0-2-.23-2.33-.59A1.09,1.09,0,0,1,1.65,27,1.16,1.16,0,0,1,2.14,26.24Z"/><path class="cls-10" d="M1.45,28a1.13,1.13,0,0,0,.68.68c.24.07.32,0,.71,0a2.67,2.67,0,0,1,.83.15c.88.25,1.92.84,2.31,1,1.53.52,3.84-1,4-2.53.06-.38,0-1-.36-1.24s-1.19.18-1.29.24c-.6.4-.55.83-1.13,1.27A2.69,2.69,0,0,1,6.07,28a6.07,6.07,0,0,1-3.75-.26c-.32-.15-.78-.4-.93-.25S1.39,27.91,1.45,28Z"/><path class="cls-11" d="M5.72,23.82c0-.19.7-.22,1.21-.25a7.09,7.09,0,0,1,1.11,0,4.66,4.66,0,0,1,2.06.52c.67.39,1.49,1.24,1.27,1.77s-.89.55-1.43.41-.37-.43-1.13-1.15a2.29,2.29,0,0,0-1.06-.71c-.18,0-.27,0-.91-.08a2.12,2.12,0,0,1-.55-.11C6.08,24.16,5.69,24,5.72,23.82Z"/><path class="cls-12" d="M29.06,16.81a2.46,2.46,0,0,0-3.1-.73c-.2.11-.85.54-1.41,2.88-.42,1.76-1.05,5.7,0,6.42.69.46,1.78-.66,2.3-1.19C28.71,22.3,30.24,18.57,29.06,16.81Z"/><path class="cls-10" d="M.75,25.36a1.35,1.35,0,0,0-.55.41,1.55,1.55,0,0,0,.65,1.94c.87.44,2-.63,2.39-1.24.14-.22.35-.53.25-.83C3.34,25.11,2.44,25,2.31,25A2.62,2.62,0,0,0,.75,25.36Z"/><path class="cls-13" d="M8.46,19.58a2.9,2.9,0,0,1,3.09-1.33c.25.05,1.06.27,2.32,2.15.94,1.41,2.72,4.65,1.8,5.5-.6.56-2.08-.15-2.79-.49C10.38,24.21,7.7,21.36,8.46,19.58Z"/><path class="cls-14" d="M10.26,16.71,7.34,18.94l-.1,1.11c-.29.56,5,5.54,5.34,5,0,0-3.09-4.14-3.09-4.14l.15-1.12,1.23-1.14"/><path class="cls-15" d="M25.85,15.17l3.77.88.58,1c.53.41-2.37,7.53-2.89,7.18,0,0,1.13-5.34,1.13-5.34l-.62-1L25.17,17"/><path class="cls-16" d="M12.71,16.23c-.38-.13-1.76-.59-2.29.08-.41.5-.07,1.34,0,1.52A2.14,2.14,0,0,0,12,19.15a1.94,1.94,0,0,0,1.26-.28c.42-.26,1.08-.87,1-1.53S13.28,16.42,12.71,16.23Z"/><path class="cls-17" d="M12.81,15.44a2.59,2.59,0,0,0,.11,2.13,1.5,1.5,0,0,0,.14.16A16.09,16.09,0,0,1,15,20.83c.65,1.34,3.31,4.69,6,4.38,2.5-.28,4.31-3.55,4.53-5.53.06-.5,0-.8.11-2.47A6,6,0,0,0,25.63,15a2.87,2.87,0,0,0-.82-1.49c-.86-.65-2,.08-3.75.47-3.92.88-6.7-1-7.78.42A4,4,0,0,0,12.81,15.44Z"/><path class="cls-18" d="M11.12,17c.65.18,1.07.52,1,.82A.33.33,0,0,1,12,18"/><path class="cls-19" d="M27.18,35.07a4.45,4.45,0,0,1-.23.86,4.91,4.91,0,0,1-1.9,2.32,5.65,5.65,0,0,1-1.71.66l-1.12-4.56-.61-2.16-.7-2.59.49-1.2c.29.35.05,2.19.4,2.48L23.74,37a2,2,0,0,0,.89-.35c.59-.33.86-.91,1.31-1.8a4.13,4.13,0,0,0,.63-2.46c-.06-.45-.2-.8-.16-.81A4.57,4.57,0,0,1,27,33.15,4.8,4.8,0,0,1,27.18,35.07Z"/><path class="cls-20" d="M13.64,17.35c-.29-.18-1.25.51-1.49,1.41a1.27,1.27,0,0,0-.06.58c.07.3.28.43.44.62A3.26,3.26,0,0,1,13,21.57c.15,1,.06,1.13.24,1.5s.41.38.75.91c.5.79.24,1.21.75,1.78.32.37.43.21.81.59.68.67.38,1.25,1,1.75s.68.09,1.36.52.59.82,1.22,1.19.78.05,1.66.35c1.09.37,1.27,1,1.87.91.22,0,.51-.32,1.08-.89a4.35,4.35,0,0,0,1-1.17,6.43,6.43,0,0,0,.33-1.1,3.7,3.7,0,0,1,.8-1.73,1.9,1.9,0,0,1,.49-.35,6.63,6.63,0,0,0,.68-1.31,2,2,0,0,0,.21-1.08c-.08-.43-.32-.44-.4-.86,0-.24,0-.33.28-1.24a3.27,3.27,0,0,0,.25-1.13,2.29,2.29,0,0,0-.49-1c-.35-.5-.59-.6-.65-1,0-.24,0-.27,0-.55-.06-.44-.34-.86-.5-.83s-.13.32-.22.9c0,0,0,.32-.34,1.62s-2,2.18-2.23,2.32c-2.66,1.39-5.86-.2-7.19-1.25-.73-.57-1.87-1.48-1.88-2.56C13.75,17.68,13.78,17.43,13.64,17.35Z"/><path class="cls-21" d="M18.41,19a4.05,4.05,0,0,0-1.91,2.66,2.91,2.91,0,0,0,.29,1.64c.44.91,1.43,1.73,2,1.51.17-.07.2-.21.42-.72a15,15,0,0,1,1.55-2.66,2.4,2.4,0,0,1,.35-.38,1.52,1.52,0,0,1,.62-.41,1,1,0,0,1,.53.06,5.38,5.38,0,0,1,2,1.69c.15.18.37.46.84,1,.18.2.32.36.51.35s.41-.35.47-.48a3.28,3.28,0,0,0,0-2.5,5,5,0,0,0-2.51-2.58C21,17.18,18.74,18.78,18.41,19Z"/><path class="cls-22" d="M18.81,18a5.38,5.38,0,0,0,2.64,1.84,1.76,1.76,0,0,0,.58,0,1.56,1.56,0,0,0,1.14-1,1.82,1.82,0,0,0-.56-1.68,3,3,0,0,0-.51-.47"/><path class="cls-23" d="M18.21,16s-.44.73-.83.9A1.93,1.93,0,0,1,16,17a.67.67,0,0,1-.52-1l3.27.05"/><path class="cls-24" d="M21.86,15.58,24.37,15a.69.69,0,0,1,.2.52c0,.27-.27.42-.43.53a1.84,1.84,0,0,1-1.27.22,2.66,2.66,0,0,1-1-.63"/><line class="cls-25" x1="21.08" y1="31.04" x2="21.08" y2="31.11"/><path class="cls-26" d="M6.7,7.09c.07-.86,1.73-2,1.92-2.3l.12-.18c.06-.08.09-.14.12-.18C9.65,3.22,10.32,3,12.57,1.19a3.27,3.27,0,0,1,2.6-.8c2.49.21,3.59-.88,5.22-.14A4.47,4.47,0,0,1,22.1,1.84c.71.91,2.3,5.78,2.3,5.78a26,26,0,0,1,4.83.59c.48.1.79.18,1.09.26,2.46.65,4.5,1.19,4.6,2,.07.53-.66,1-1.38,1.5a11.42,11.42,0,0,1-4.75,1.77c-6.64.85-4.73,1-8.82,1.3a50.22,50.22,0,0,1-9,.12,22.45,22.45,0,0,1-6.46-1.39c-2.21-.86-2.79-1-2.83-1.36-.1-1.11,3.88-2.33,4.54-2.53A28,28,0,0,1,11,9.09c.32-.68.72-1.58.56-1.68s-.39.36-1,.71a3.18,3.18,0,0,1-2.89.24C7.55,8.3,6.65,7.76,6.7,7.09Z"/><path class="cls-27" d="M7,7.11A5.31,5.31,0,0,1,9.35,4.65a20.17,20.17,0,0,1,4.37-2.1,10.73,10.73,0,0,1,1.34-.36c1.5-.3,1.78,0,1.84,0a.88.88,0,0,1,.15.65,7.71,7.71,0,0,0,.14,2.31c.63.86,3.28-.75,4.27.29a1.43,1.43,0,0,1,.32,1c-.07,2-3.8,3.7-6.54,3.54-2.41-.14-3.47-1.67-3.43-2.67,0-.61-1.19,1-2.86,1-1.91,0-1.83-.71-1.88-.9S7,7.35,7,7.11Z"/><path class="cls-27" d="M10.83,11.23c.18.11.45.28.8.47,1.47.81,3.88,2.13,5.74,1.26a2.92,2.92,0,0,0,.94-.68l-3.11-1L12.1,9.82l-1.38,0-4.05.9L5.41,12.31Z"/><path class="cls-28" d="M16.88,9.83c.07-1.09.14-2.17.8-2.58.37-.23.47-.09,1.47,0a6.06,6.06,0,0,0,3.26-1A1.2,1.2,0,0,1,22.79,6c.3-.08.52-.21.78,0s.29.43.48,1.05c.09.29.05.11.35,1.2.6,2.16.59,1.92.73,2.42a5.63,5.63,0,0,1,.34,1.05c0,.14.08.23-.38.58a5.36,5.36,0,0,1-1.47.8,10.25,10.25,0,0,1-2.47.45,15,15,0,0,1-2.28.1,2.25,2.25,0,0,1-.81-.1c-.81-.38-1-1.56-1.12-2.25A6.67,6.67,0,0,1,16.88,9.83Z"/><path class="cls-29" d="M16.8,7.44c0-.22,3.39-.66,4.58-1.1a3,3,0,0,0,.47-.23c.62-.33.68-.59,1-.55a1,1,0,0,1,.46.22c.33.22-.17.35-.28.5s-.78.56-3.43,1.1A5.62,5.62,0,0,1,16.8,7.44Z"/><path class="cls-25" d="M16.51,7.54A11.76,11.76,0,0,0,23.2,6.18a1.92,1.92,0,0,0,.28-.29"/><path class="cls-30" d="M18,13.68c1.29.05,6.22.28,7.12-1.79,0-.09.07-.18.1-.27C24.52,8.77,24,6.93,23.78,6.39a1.32,1.32,0,0,0-.5-.59c-.21-.16-.37-.34-.5-.35"/><path class="cls-25" d="M16,7.42c1.45-.21,2.76-.54,3.63-.72a8.55,8.55,0,0,0,2-.63,9.26,9.26,0,0,0,1.18-.63l.7.54"/><line class="cls-31" x1="19.14" y1="8.99" x2="20.17" y2="12.25"/><path class="cls-32" d="M22.83,8.21l-3.71.91"/><path class="cls-33" d="M22.7,8.19c.85,2.59,1.1,3.33,1.1,3.33"/><path class="cls-34" d="M23.66,11.44c-3.59.71-3.58.72-3.58.72"/><path class="cls-35" d="M18.09,13.64c-.13-.55-.3-1.52-.33-1.69-.3-2.11-.42-4.27-.63-4.35l-1-.17.55,5.67,1.41.58"/><path class="cls-36" d="M11.62,7.64A2.86,2.86,0,0,0,13.22,9a3.93,3.93,0,0,0,.79.09l2.1.12L16.46,12a11.58,11.58,0,0,1-3.24-.24,2.77,2.77,0,0,1-.48-.14,2.85,2.85,0,0,1-1.65-1.71A2.35,2.35,0,0,1,11,9.14"/><path class="cls-37" d="M9.13,25.44c.29-.25,1.34.63,1.86.26.07-.05.15-.14.26-.12s.28.36.33.52,0,.11.06.82c0,.13,0,.19,0,.23-.16.24-.83,0-.9.12s.48.35.59.78-.17.72-.51,1.16a4.29,4.29,0,0,1-2.33,1.63L8,30.92A6.45,6.45,0,0,1,6.58,31l-.4,0a3.22,3.22,0,0,1-1.47-.64,3.14,3.14,0,0,1-1-1.33,4.28,4.28,0,0,0,1,.24,4,4,0,0,0,2.12-.32,4.24,4.24,0,0,0,1.38-1.16c.52-.57.89-1,.91-1.55C9.18,25.78,9,25.56,9.13,25.44Z"/><path class="cls-37" d="M-2,25.76c0-.07-.18-.36-.06-.51a.42.42,0,0,1,.35-.06,1.91,1.91,0,0,1,1.32.38c.25.24.24.45.48.52s.3-.1.49,0c.35.1.16.71.66,1.4.12.18.26.3.22.45s-.3.26-.46.3a2.67,2.67,0,0,1-2.08-.49.34.34,0,0,1-.14-.15.7.7,0,0,1-.05-.45c0-.31-.21-.63-.48-.94A1.08,1.08,0,0,1-2,25.76Z"/><path class="cls-38" d="M-1.93,25.12a1.56,1.56,0,0,1,.62-.4,1,1,0,0,1,.54.06c.56.15.69.45,1.1.6a.35.35,0,0,1,.19.12c.06.09,0,.17,0,.29,0,.28.21.38.16.45s-.53,0-.91-.29-.29-.44-.57-.55a3.26,3.26,0,0,0-1.17-.06s-.15,0-.17,0S-2,25.2-1.93,25.12Z"/><path class="cls-10" d="M-.18,26.62c-.51-.41-.51-.5-.73-.65-.54-.37-.83-.07-.93-.35s-.28-.25-.16-.33a.64.64,0,0,1,.3-.11c.88-.15.72,0,1.18.25a6.05,6.05,0,0,0,.48.51c.21.21.75.18.74.34a1.34,1.34,0,0,1-.37.56C.19,26.89,0,26.78-.18,26.62Z"/><path class="cls-39" d="M.68,25.05a12.66,12.66,0,0,1,.9-.92A1.64,1.64,0,0,1,1.73,24a1.43,1.43,0,0,1,1.61.56,1.58,1.58,0,0,1,.26.88.5.5,0,0,1,0,.19c-.21.52-2,.2-2.57.05-.18-.05-.45-.13-.49-.3S.54,25.23.68,25.05Z"/><path class="cls-40" d="M1.39,28a1.1,1.1,0,0,0,.48.67,1.29,1.29,0,0,0,.34.1,3,3,0,0,0,1.15-.22,4.57,4.57,0,0,1,.74-.1"/><path class="cls-40" d="M3.54,27.49a1.67,1.67,0,0,1,.57-1.23,1.6,1.6,0,0,1,.67-.3,2.1,2.1,0,0,1,1.88.25c.22.22.45.62.3.85a.42.42,0,0,1-.33.16"/><path class="cls-40" d="M1.73,23.93c-.47-1-.82-1.38-1-1.49a.22.22,0,0,1-.15-.14c-.05-.19.31-.5.7-.62a1.19,1.19,0,0,1,.31-.06,2.52,2.52,0,0,1,1.18,0,1.38,1.38,0,0,1,.42.3A5.17,5.17,0,0,1,4.05,23a.31.31,0,0,0,.11.12c.17.11.35-.06.58,0s.14.07.45.3.34.26.46.35"/><line class="cls-40" x1="3.51" y1="25.79" x2="3.89" y2="26.36"/><path class="cls-40" d="M6.49,27c0,.23.18.37.32.36A.25.25,0,0,0,7,27.28"/><path class="cls-40" d="M7.67,23.49a12.7,12.7,0,0,1,2.46,0"/><path class="cls-40" d="M5.92,31a5.39,5.39,0,0,0,2,.88,3.37,3.37,0,0,0,.58.08,4.2,4.2,0,0,0,2.84-1.12,4.59,4.59,0,0,0,1.38-2.63,4.85,4.85,0,0,0,0-1.4"/><path class="cls-41" d="M.57,25.31a.19.19,0,0,0,0,.08c.47.42,1.64.22,2.24.31a.6.6,0,0,0,.32,0l.21-.07c.08,0,.17,0,0,.2s-.61.15-1.32.09-1,0-1.36-.26l-.11-.08"/><path class="cls-9" d="M29.32,24.65c-.33.15-.54.54-1,1.33s-.66,1.24-.51,1.5.8.3,1.88.23a15.18,15.18,0,0,0,2.44-.38c1.41-.31,2.12-.47,2.44-.82.44-.5.06-.65.66-2.06a4.61,4.61,0,0,1,1.25-2.08s.14-.09.14-.18c0-.24-.65-.54-1.2-.54a2,2,0,0,0-1.66.72A3.47,3.47,0,0,1,33,23.5c-.22.13.11,0-.23,0a1,1,0,0,0-.93.55,1.72,1.72,0,0,1-.81.55c-.81.28-1.12-.21-1.71,0"/><path class="cls-10" d="M35.38,26.33c-.48-.34-1.24-.51-1.54-.2-.12.13-.05.23-.2.44a1.22,1.22,0,0,1-.79.41,3.55,3.55,0,0,1-1.46-.07c-.28-.06-.45-.11-.6,0s-.12.43-.29.56c-.34.25-1.15-.44-1.28-.31s.22.69.68,1.08c.79.67,1.81.55,3.58.37,1.5-.15,2-.41,2.26-.8a1,1,0,0,0,.2-.74A1.09,1.09,0,0,0,35.38,26.33Z"/><path class="cls-10" d="M36.24,28.06a1.16,1.16,0,0,1-.62.74c-.23.09-.31,0-.7.05a3.16,3.16,0,0,0-.82.23c-.85.33-1.84,1-2.21,1.17-1.48.67-3.92-.69-4.27-2.14-.09-.38-.1-1,.26-1.27s1.2.07,1.3.12c.63.34.63.78,1.24,1.17a3,3,0,0,0,1.21.35,6.07,6.07,0,0,0,3.72-.6c.31-.17.74-.47.9-.33S36.28,27.92,36.24,28.06Z"/><path class="cls-11" d="M29.63,25c.19-.05.27,0,.91-.16a2.1,2.1,0,0,0,.53-.16c.2-.1.57-.33.53-.47s-.72-.16-1.23-.14"/><path class="cls-11" d="M27.26,24.93c-.62.45-1.37,1.37-1.1,1.89s.94.46,1.47.27.32-.46,1-1.24c.42-.47.63-.71,1-.81"/><path class="cls-10" d="M36.69,25.33a1.23,1.23,0,0,1,.58.36,1.55,1.55,0,0,1-.46,2c-.83.51-2-.45-2.49-1a1.06,1.06,0,0,1-.34-.81c.11-.54,1-.73,1.13-.76A2.5,2.5,0,0,1,36.69,25.33Z"/><path class="cls-37" d="M28.35,26.18c-.31-.23-1.27.74-1.82.42-.08,0-.17-.12-.27-.09s-.25.37-.28.54a4.92,4.92,0,0,0,0,.82c0,.13,0,.2,0,.23.18.23.83-.1.91,0s-.44.39-.52.83.24.7.61,1.11a4.37,4.37,0,0,0,2.48,1.41l.47,0a6.66,6.66,0,0,0,1.43-.05l.39-.08a3.23,3.23,0,0,0,1.41-.77,3.12,3.12,0,0,0,.85-1.41,4.1,4.1,0,0,1-1,.32,3.86,3.86,0,0,1-2.14-.12,4.24,4.24,0,0,1-1.47-1c-.58-.52-1-.89-1.06-1.46C28.34,26.51,28.49,26.28,28.35,26.18Z"/><path class="cls-37" d="M39.12,24.93a2,2,0,0,0-1.28.5c-.23.26-.2.47-.44.56s-.31-.06-.48,0c-.34.14-.1.74-.53,1.47-.11.18-.23.32-.18.46s.32.23.48.26a2.71,2.71,0,0,0,2-.68"/><path class="cls-38" d="M39.34,24.84a1.64,1.64,0,0,0-.66-.34,1.1,1.1,0,0,0-.53.11c-.54.2-.64.51-1,.7a.35.35,0,0,0-.17.13c-.06.1,0,.18,0,.3,0,.28-.17.4-.12.46s.53-.06.88-.37.25-.46.52-.6a3.25,3.25,0,0,1,1.16-.17"/><path class="cls-10" d="M39.12,24.92c-.89-.06-.73,0-1.16.36-.05,0,0,.08-.43.55-.19.23-.73.25-.7.41a1.26,1.26,0,0,0,.42.52c.14,0,.28-.08.48-.27.47-.44.46-.54.67-.71"/><path class="cls-39" d="M36.73,25a11.37,11.37,0,0,0-1-.83c-.13-.12-.12-.12-.16-.14a1.45,1.45,0,0,0-1.56.7,1.73,1.73,0,0,0-.18.9.54.54,0,0,0,0,.19c.26.51,2,0,2.56-.18.17-.06.44-.17.46-.34S36.89,25.18,36.73,25Z"/><path class="cls-40" d="M36.29,28a1.07,1.07,0,0,1-.41.7,1,1,0,0,1-.33.13,3.18,3.18,0,0,1-1.16-.1,3.9,3.9,0,0,0-.75,0"/><path class="cls-40" d="M34.11,27.71a1.74,1.74,0,0,0-.68-1.18,1.52,1.52,0,0,0-.69-.23,2.09,2.09,0,0,0-1.86.41c-.2.24-.38.66-.22.87a.45.45,0,0,0,.34.14"/><path class="cls-40" d="M35.58,24c.38-1.08.69-1.45.91-1.58a.23.23,0,0,0,.14-.15c0-.19-.36-.47-.75-.56l-.32,0a2.42,2.42,0,0,0-1.17.1,1.45,1.45,0,0,0-.39.34,5.47,5.47,0,0,0-.81,1.2.29.29,0,0,1-.1.13c-.16.12-.35,0-.57,0s-.14.08-.42.34l-.43.39"/><line class="cls-40" x1="33.98" y1="26" x2="33.66" y2="26.61"/><path class="cls-40" d="M31.12,27.47c0,.24-.14.39-.28.39a.3.3,0,0,1-.17-.05"/><path class="cls-41" d="M36.87,25.26a.19.19,0,0,1,0,.09c-.42.46-1.61.36-2.2.51a.66.66,0,0,1-.32,0l-.22-.06c-.08,0-.17,0,0,.2s.63.11,1.33,0,1-.1,1.33-.38l.1-.09"/><path class="cls-40" d="M29,31.34a5.06,5.06,0,0,1-.53.05,5.44,5.44,0,0,1-2.58-.6,2.3,2.3,0,0,1-1.25-1.4c-.09-.3.05-.41.08-.59"/><path class="cls-40" d="M30.45,24.13a11.9,11.9,0,0,0-2.36-.69"/><path class="cls-11" d="M31.58,24.29c0-.16-.62-.19-1.08-.22a6.57,6.57,0,0,0-1,0,4,4,0,0,0-1.82.46c-.59.34-1.79,1.46-1.59,1.93s1.26.11,1.73,0,.34-.29,1-.93c.4-.38.51-.48.83-.54a6.07,6.07,0,0,1,1-.22,1.07,1.07,0,0,0,.4-.11C31.26,24.6,31.6,24.42,31.58,24.29Z"/><path class="cls-42" d="M13.9,5.66a22.74,22.74,0,0,1-2,1.59,13.17,13.17,0,0,1-1.34.87"/><path class="cls-27" d="M28.83,11c-.08,0-.78,0-.83-.29s.3-.49.65-.55c.52-.07,1.07.4,1,.62S29.05,11,28.83,11Z"/><path class="cls-40" d="M38.68,27.54c.83-1,1-2.29.65-2.7"/><path class="cls-10" d="M38.62,25.16c.14-.27.41-.3.74-.17.1,0,0-.19.09.15a1.43,1.43,0,0,1-.07,1c-.18.51-.49,1.37-.76,1.3S38.22,25.92,38.62,25.16Z"/></svg>