<svg id="Calque_1" data-name="Calque 1" xmlns="http://www.w3.org/2000/svg" viewBox="0 0 52.74 57.47"><defs><style>.cls-1,.cls-2,.cls-4,.cls-5{fill:none;}.cls-1{stroke:#3e71b6;}.cls-1,.cls-2,.cls-4,.cls-5,.cls-6{stroke-miterlimit:10;}.cls-1,.cls-2{stroke-width:8px;}.cls-2,.cls-5,.cls-6{stroke:#3971b6;}.cls-3{fill:#2f71b7;}.cls-4{stroke:#2f71b7;}.cls-4,.cls-5{stroke-width:2px;}.cls-6{fill:#3971b6;}</style></defs><polyline class="cls-1" points="25.75 27.75 6.29 9.76 6.53 35.67"/><path class="cls-2" d="M44,34l.78-21.81L11.59,53.71l35.1,0c1.24,0,5.32-3.14,5.31-6.85,0-2.71-1.81-6.65-7.08-6.86-3.53-.14-9.72,0-9.72,0" transform="translate(-3.26 -0.24)"/><ellipse class="cls-3" cx="42.38" cy="45.21" rx="0.78" ry="0.84" transform="translate(-14.36 76.28) rotate(-77.2)"/><ellipse class="cls-3" cx="44.23" cy="46.66" rx="0.78" ry="0.84" transform="translate(-14.33 79.21) rotate(-77.2)"/><ellipse class="cls-3" cx="40.57" cy="46.78" rx="0.78" ry="0.84" transform="translate(-17.3 75.74) rotate(-77.2)"/><ellipse class="cls-3" cx="42.42" cy="48.23" rx="0.78" ry="0.84" transform="translate(-17.27 78.67) rotate(-77.2)"/><path class="cls-3" d="M39.44,42.09" transform="translate(-3.26 -0.24)"/><line class="cls-4" x1="22.7" y1="46.69" x2="28.08" y2="46.69"/><line class="cls-5" x1="25.39" y1="44.15" x2="25.39" y2="49.23"/><path class="cls-6" d="M13.38,39.93,6.2,50.08V17.5l6.13,8.66a5.79,5.79,0,0,1,1.05,3.32Z" transform="translate(-3.26 -0.24)"/></svg>