<svg id="Calque_1" data-name="Calque 1" xmlns="http://www.w3.org/2000/svg" viewBox="0 0 140.6 148.4"><defs><style>.cls-1{fill:#fac8ad;}.cls-2{fill:none;stroke:#f49e90;stroke-miterlimit:10;}</style></defs><path class="cls-1" d="M129.24,84.54c4.5-2.24,11.48-.86,14.29,4,3.07,5.32-.19,12.49-1.78,16-3.89,8.54-12.61,17.33-17,15C118.64,116.26,118.75,89.77,129.24,84.54Z" transform="translate(-4.2 -2.51)"/><path class="cls-1" d="M18.86,42.53a59.86,59.86,0,0,1,6.79-12.11C28.77,26.1,46,3.32,74.86,2.53c26-.7,49.72,16.7,57,37,1.46,4.09.66,17.12-1,43-1.94,30.21-3.41,36.85-8,44-8.39,13.06-21.18,18.45-25,20-23.77,9.64-55,3-68-16-1.15-1.67-3.56-5.49-7-23C13.92,62,16.58,48.12,18.86,42.53Z" transform="translate(-4.2 -2.51)"/><path class="cls-1" d="M19.76,84.54c-4.5-2.24-11.48-.86-14.29,4-3.07,5.32.19,12.49,1.78,16,3.89,8.54,12.61,17.33,17,15C30.36,116.26,30.25,89.77,19.76,84.54Z" transform="translate(-4.2 -2.51)"/><path class="cls-2" d="M17.65,92.42c-6.09-.52-7.63,1.44-8,2-2.11,3.25,1.63,10.55,10,18" transform="translate(-4.2 -2.51)"/><path class="cls-2" d="M131.79,91.77c6.1-.53,7.64,1.43,8,2,2.12,3.24-1.62,10.54-10,18" transform="translate(-4.2 -2.51)"/></svg>