<svg xmlns="http://www.w3.org/2000/svg" viewBox="0 0 91 92.5"><defs><style>.cls-1{fill:#fff;}.cls-2,.cls-4{fill:none;stroke-miterlimit:10;}.cls-2{stroke:#645da1;stroke-width:3px;}.cls-3{fill:#645da1;}.cls-4{stroke:#c3b39c;}</style></defs><g id="carte"><g id="fond_2_beige" data-name="fond 2 beige"><rect id="fond_1_blanc" data-name="fond 1 blanc" class="cls-1" x="2.5" y="2.5" width="86" height="87" rx="4.67"/></g><g id="angles"><rect id="contour" class="cls-2" x="1.5" y="1.5" width="88" height="89.5" rx="4.67"/><g id="coins"><path class="cls-3" d="M1.76,65H8A13,13,0,0,1,21,78V91a0,0,0,0,1,0,0H8.5A7.5,7.5,0,0,1,1,83.5V65.76A.76.76,0,0,1,1.76,65Z"/><path class="cls-3" d="M74.76,5H81A13,13,0,0,1,94,18V31a0,0,0,0,1,0,0H81.5A7.5,7.5,0,0,1,74,23.5V5.76A.76.76,0,0,1,74.76,5Z" transform="translate(163.5 32.5) rotate(180)"/></g><g id="symboles_angles" data-name="symboles angles"><path class="cls-1" d="M15,77.5a2.25,2.25,0,1,0-2.29-2.25A2.27,2.27,0,0,0,15,77.5Zm1.59.56h-.3a3.13,3.13,0,0,1-1.3.28,3.16,3.16,0,0,1-1.3-.28h-.3A2.38,2.38,0,0,0,11,80.42v.74a.85.85,0,0,0,.86.84h6.28a.85.85,0,0,0,.86-.84v-.74A2.38,2.38,0,0,0,16.6,78.06Z" transform="translate(-4.5 -3.5)"/><path class="cls-1" d="M12.61,89.69a1.4,1.4,0,0,1-.58-.5,1.81,1.81,0,0,1-.28-.8h.81a.9.9,0,0,0,.15.4A.65.65,0,0,0,13,89a1,1,0,0,0,.43.08.86.86,0,0,0,.62-.21.8.8,0,0,0,.21-.59v-.18a.92.92,0,0,0-.2-.65.75.75,0,0,0-.59-.24h-.4v-.75h.4a.7.7,0,0,0,.52-.2.83.83,0,0,0,.18-.57v-.17A.67.67,0,0,0,14,85a.78.78,0,0,0-.55-.19.87.87,0,0,0-.37.08.76.76,0,0,0-.27.24,1.17,1.17,0,0,0-.16.39h-.81a2.07,2.07,0,0,1,.3-.79,1.41,1.41,0,0,1,.55-.51,1.67,1.67,0,0,1,.76-.17,1.54,1.54,0,0,1,1.13.39A1.42,1.42,0,0,1,15,85.55v.09a1.25,1.25,0,0,1-.23.74,1.28,1.28,0,0,1-.66.46,1.2,1.2,0,0,1,.73.46,1.53,1.53,0,0,1,.25.91v.09a1.75,1.75,0,0,1-.19.85,1.25,1.25,0,0,1-.56.53,1.94,1.94,0,0,1-.88.19A1.86,1.86,0,0,1,12.61,89.69Z" transform="translate(-4.5 -3.5)"/><path class="cls-1" d="M19.35,86.81v.76H16.17v-.76Zm-1.19,2h-.8V85.6h.8Z" transform="translate(-4.5 -3.5)"/></g></g><g id="symboles"><line class="cls-4" x1="5" y1="5.5" x2="5" y2="63.5"/><line class="cls-4" x1="86" y1="29.5" x2="86" y2="87.5"/><line class="cls-4" x1="8.5" y1="5" x2="66.5" y2="5"/><line class="cls-4" x1="24.5" y1="87" x2="82.5" y2="87"/></g></g><g id="titre"><path d="M48.35,74.57a2.38,2.38,0,0,1-.92,1.87,3.87,3.87,0,0,1-2,.87H45.4c-.08,0-.27-.25-.55-.75a3.25,3.25,0,0,1-.42-.93s0-.06.08-.07a6.08,6.08,0,0,0,1-.3.9.9,0,0,0,.56-.83,1.31,1.31,0,0,0-.37-.78q-.63-.72-.69-.81a2.22,2.22,0,0,1-.37-1.23A2,2,0,0,1,45.58,70a3.94,3.94,0,0,1,1.82-.69h.09c.06,0,.1,0,.13.13.09.26.31.73.65,1.42l0,0c0,.06,0,.09-.1.09h-.14l-.16,0a1.28,1.28,0,0,0-.68.18.62.62,0,0,0-.35.57,1.41,1.41,0,0,0,.39.8c.46.57.69.88.72.9A2.22,2.22,0,0,1,48.35,74.57Z" transform="translate(-4.5 -3.5)"/><path d="M55.12,74.46a2.74,2.74,0,0,1-.67,1.9,2.33,2.33,0,0,1-1.83.79,2.17,2.17,0,0,1-.89-.21,2,2,0,0,1-.43-.2s-.07.05-.07.16,0,.46,0,.83,0,.64,0,.82-.06.17-.18.17H50a2.36,2.36,0,0,1-.48,0,.19.19,0,0,1-.16-.2V74.37a10.43,10.43,0,0,0-.18-2.11.44.44,0,0,1,0-.1.1.1,0,0,1,.07-.1,4.72,4.72,0,0,1,.8-.18,6.05,6.05,0,0,1,.83-.09c.14,0,.22.1.24.28s0,.28.07.28.12-.1.46-.3a2,2,0,0,1,.93-.29,2.42,2.42,0,0,1,1.87.77A2.75,2.75,0,0,1,55.12,74.46Zm-2,0a1.16,1.16,0,0,0-.26-.75.87.87,0,0,0-.7-.34.81.81,0,0,0-.69.34,1.22,1.22,0,0,0-.23.75,1.16,1.16,0,0,0,.24.75.83.83,0,0,0,.7.33C52.82,75.53,53.13,75.17,53.13,74.45Z" transform="translate(-4.5 -3.5)"/><path d="M60.74,74.12c0,.37-.11.57-.35.62l-1.11.12c-.42,0-1.05.1-1.89.17a.75.75,0,0,0,.46.53,1.61,1.61,0,0,0,.71.15,2,2,0,0,0,1-.26l.41-.26a1.79,1.79,0,0,1,.38.55,2.14,2.14,0,0,1,.26.63.26.26,0,0,1-.08.12,2.65,2.65,0,0,1-2,.71,2.88,2.88,0,0,1-2.07-.75,2.66,2.66,0,0,1-.8-2,2.9,2.9,0,0,1,.72-2,2.53,2.53,0,0,1,2-.82,2.3,2.3,0,0,1,1.75.76A2.48,2.48,0,0,1,60.74,74.12Zm-1.88-.32a.83.83,0,0,0-.23-.59.75.75,0,0,0-.57-.25.69.69,0,0,0-.56.28,1,1,0,0,0-.2.62.13.13,0,0,0,.15.15,10.18,10.18,0,0,0,1.24-.13C58.8,73.87,58.86,73.84,58.86,73.8Z" transform="translate(-4.5 -3.5)"/><path d="M66.25,74.12c0,.37-.11.57-.34.62l-1.12.12c-.42,0-1.05.1-1.89.17a.78.78,0,0,0,.46.53,1.61,1.61,0,0,0,.71.15,2,2,0,0,0,1-.26l.41-.26a1.79,1.79,0,0,1,.38.55,2.14,2.14,0,0,1,.26.63.2.2,0,0,1-.08.12,2.63,2.63,0,0,1-2,.71,2.88,2.88,0,0,1-2.07-.75,2.66,2.66,0,0,1-.8-2,2.9,2.9,0,0,1,.72-2,2.53,2.53,0,0,1,2-.82,2.3,2.3,0,0,1,1.75.76A2.48,2.48,0,0,1,66.25,74.12Zm-1.88-.32a.83.83,0,0,0-.23-.59.75.75,0,0,0-.57-.25.66.66,0,0,0-.55.28,1,1,0,0,0-.21.62A.13.13,0,0,0,63,74a10.18,10.18,0,0,0,1.24-.13C64.32,73.87,64.37,73.84,64.37,73.8Z" transform="translate(-4.5 -3.5)"/><path d="M72.54,69.42c0-.08,0,0,0,.35s-.07.91-.1,1.53,0,1.5,0,2.4a28.32,28.32,0,0,0,.12,3.15c0,.07,0,.11,0,.13s0,.06-.08.07-.61,0-1.43,0c-.19,0-.3,0-.33-.11s0-.28,0-.41a.2.2,0,0,0,0-.09l-.08.07a2,2,0,0,1-1.45.57,2.27,2.27,0,0,1-1.81-.8,2.78,2.78,0,0,1-.65-1.91,2.86,2.86,0,0,1,.64-1.93,2.25,2.25,0,0,1,1.82-.81,1.62,1.62,0,0,1,1.27.52c0,.06.08.09.1.09s0,0,0-.14c0-.28,0-.69,0-1.24s0-1,0-1.23c0-.1,0-.16.08-.18l1-.06c.72-.09,1-.13,1-.13C72.5,69.29,72.54,69.33,72.54,69.42Zm-2,4.94a1,1,0,0,0-.29-.75,1,1,0,0,0-.72-.32.88.88,0,0,0-.7.32,1.19,1.19,0,0,0-.26.77,1,1,0,0,0,.27.73.84.84,0,0,0,.69.33.91.91,0,0,0,.72-.33A1,1,0,0,0,70.51,74.36Z" transform="translate(-4.5 -3.5)"/><path d="M48.28,83.41a2.81,2.81,0,0,1-.64,1.89,2.25,2.25,0,0,1-1.8.81,1.84,1.84,0,0,1-1.3-.47.09.09,0,0,0-.06,0s-.07.07-.1.2-.07.21-.11.22-.57,0-1.53,0c-.23,0-.34,0-.34-.13a.37.37,0,0,1,0-.08,31.77,31.77,0,0,0,.11-3.25c0-1.53-.05-2.86-.16-4v-.06c0-.06.06-.09.17-.1l.93-.08a9.11,9.11,0,0,1,.94-.05c.07,0,.1.06.1.17s0,.33,0,.56,0,.47,0,.56c0,.35,0,.83,0,1.45,0,.11,0,.16.08.16a.12.12,0,0,0,.09,0,1.66,1.66,0,0,1,1.26-.52,2.26,2.26,0,0,1,1.84.8A3,3,0,0,1,48.28,83.41Zm-1.94,0a1.08,1.08,0,0,0-.28-.76.89.89,0,0,0-.71-.31.86.86,0,0,0-.71.31,1.12,1.12,0,0,0-.26.77,1.11,1.11,0,0,0,.25.76.94.94,0,0,0,.73.31.93.93,0,0,0,.73-.32A1.18,1.18,0,0,0,46.34,83.36Z" transform="translate(-4.5 -3.5)"/><path d="M54.46,81.16c0,.26,0,.66,0,1.19s0,.93,0,1.19,0,.65,0,1.16,0,.9,0,1.16a.16.16,0,0,1-.13.18,4.15,4.15,0,0,1-.87,0,7.22,7.22,0,0,1-.81,0,.15.15,0,0,1-.13-.13l0-.32c0-.16,0-.25-.08-.25s-.13.13-.54.37a2.28,2.28,0,0,1-1.12.36A1.51,1.51,0,0,1,49,84.81a9.37,9.37,0,0,1-.12-1.73,7.55,7.55,0,0,1,.2-1.93c0-.15.11-.22.22-.22h1.5c.12,0,.17,0,.17.14a.54.54,0,0,1,0,.11,9.13,9.13,0,0,0-.11,1.48A8.83,8.83,0,0,0,51,84a.63.63,0,0,0,.7.59.85.85,0,0,0,.51-.21.6.6,0,0,0,.29-.43c0-.13,0-1,0-2.7a.4.4,0,0,1,0-.21s.08,0,.19,0h1.59c.1,0,.17,0,.18.08A.45.45,0,0,1,54.46,81.16Z" transform="translate(-4.5 -3.5)"/><path d="M58.91,82.7c0,.13-.08.2-.23.2h-.59a.93.93,0,0,0-.61.14.76.76,0,0,0-.16.56c0,.16,0,.39,0,.7s0,.55,0,.7,0,.26,0,.47,0,.36,0,.46-.06.13-.18.14-.43,0-.79,0-.61,0-.81,0-.18-.07-.18-.18c0-.28,0-.71,0-1.28V83.29a8,8,0,0,0-.23-2.08.25.25,0,0,1,0-.08.12.12,0,0,1,.08-.11l.86-.11.88-.17c.07,0,.11.11.12.34s0,.34.1.34.1-.1.44-.29a2.2,2.2,0,0,1,1-.28c.2,0,.3.05.3.13a2.93,2.93,0,0,1,0,.44c0,.21,0,.35,0,.44v.42C58.91,82.49,58.91,82.63,58.91,82.7Z" transform="translate(-4.5 -3.5)"/><path d="M64.89,84.64a3.08,3.08,0,0,1-.64,2.2,3,3,0,0,1-2.22.68,7.78,7.78,0,0,1-1.23-.14c-.66-.12-1-.27-1-.43s.08-.42.23-1c0-.1.06-.15.12-.15l.06,0a3.51,3.51,0,0,0,1.53.41,1.7,1.7,0,0,0,.77-.2c.3-.15.46-.35.46-.58V85a2,2,0,0,1-1.41.52,2.11,2.11,0,0,1-1.66-.73,2.69,2.69,0,0,1,0-3.42,2.1,2.1,0,0,1,1.65-.7,1.45,1.45,0,0,1,1.24.58q.09.12.12.12s0-.07,0-.2,0-.43.09-.43l.93.09.88.1a.13.13,0,0,1,.09.14q0,.38,0,1.11c0,.49,0,.86,0,1.1V84C64.89,84.28,64.89,84.5,64.89,84.64ZM63,83.16a1,1,0,0,0-.26-.68.87.87,0,0,0-1.3,0,1,1,0,0,0-.26.69.93.93,0,0,0,.26.67.86.86,0,0,0,.65.29.84.84,0,0,0,.65-.29A1,1,0,0,0,63,83.16Z" transform="translate(-4.5 -3.5)"/><path d="M70.74,83.12c0,.37-.12.57-.35.62l-1.11.12c-.42,0-1,.1-1.89.17a.76.76,0,0,0,.45.53,1.64,1.64,0,0,0,.71.15,2.11,2.11,0,0,0,1-.26l.4-.26a1.63,1.63,0,0,1,.38.55,2,2,0,0,1,.27.63.26.26,0,0,1-.08.12,2.67,2.67,0,0,1-2,.71,2.85,2.85,0,0,1-2.06-.75,2.63,2.63,0,0,1-.81-2,2.9,2.9,0,0,1,.72-2,2.56,2.56,0,0,1,2-.82,2.3,2.3,0,0,1,1.75.76A2.48,2.48,0,0,1,70.74,83.12Zm-1.88-.32a.84.84,0,0,0-.24-.59.72.72,0,0,0-.56-.25.67.67,0,0,0-.56.28,1,1,0,0,0-.2.62.13.13,0,0,0,.15.15,10.26,10.26,0,0,0,1.23-.13C68.8,82.87,68.86,82.84,68.86,82.8Z" transform="translate(-4.5 -3.5)"/><path d="M74.89,82.7c0,.13-.08.2-.23.2h-.59a.93.93,0,0,0-.61.14.76.76,0,0,0-.16.56c0,.16,0,.39,0,.7s0,.55,0,.7,0,.26,0,.47,0,.36,0,.46-.06.13-.18.14-.43,0-.79,0-.61,0-.81,0-.18-.07-.18-.18c0-.28,0-.71,0-1.28V83.29a8,8,0,0,0-.23-2.08.25.25,0,0,1,0-.08.12.12,0,0,1,.08-.11l.86-.11.88-.17c.06,0,.11.11.12.34s0,.34.1.34.1-.1.44-.29a2.2,2.2,0,0,1,1-.28c.2,0,.31.05.31.13s0,.25,0,.44,0,.35,0,.44v.42C74.89,82.49,74.89,82.63,74.89,82.7Z" transform="translate(-4.5 -3.5)"/><path d="M29.51,40a2.82,2.82,0,0,1-2.91-2.73,2.24,2.24,0,0,1,.06-.52C27.19,34.78,31.28,22,49,22S70.81,34.78,71.34,36.75a1.81,1.81,0,0,1,.06.52A2.82,2.82,0,0,1,68.49,40Zm8.29-9a1.6,1.6,0,1,0-1.6,1.5A1.55,1.55,0,0,0,37.8,31Zm24,1.5A1.5,1.5,0,1,0,60.2,31,1.55,1.55,0,0,0,61.8,32.5ZM50.6,28A1.6,1.6,0,1,0,49,29.5,1.55,1.55,0,0,0,50.6,28ZM25,47.5A4.66,4.66,0,0,1,29.8,43H68.2a4.51,4.51,0,1,1,0,9H29.8A4.66,4.66,0,0,1,25,47.5Zm1.6,9A1.56,1.56,0,0,1,28.2,55H69.8a1.56,1.56,0,0,1,1.6,1.5V58A6.22,6.22,0,0,1,65,64H33a6.22,6.22,0,0,1-6.4-6Z" transform="translate(-4.5 -3.5)"/></g></svg>