<svg xmlns="http://www.w3.org/2000/svg" viewBox="0 0 91 92.5"><defs><style>.cls-1{fill:#fff;}.cls-2,.cls-4{fill:none;stroke-miterlimit:10;}.cls-2{stroke:#645da1;stroke-width:3px;}.cls-3{fill:#645da1;}.cls-4{stroke:#c3b39c;}</style></defs><g id="carte"><g id="fond_2_beige" data-name="fond 2 beige"><rect id="fond_1_blanc" data-name="fond 1 blanc" class="cls-1" x="2.5" y="2.5" width="86" height="87" rx="4.67"/></g><g id="angles"><rect id="contour" class="cls-2" x="1.5" y="1.5" width="88" height="89.5" rx="4.67"/><g id="coins"><path class="cls-3" d="M1.76,65H8A13,13,0,0,1,21,78V91a0,0,0,0,1,0,0H8.5A7.5,7.5,0,0,1,1,83.5V65.76A.76.76,0,0,1,1.76,65Z"/><path class="cls-3" d="M74.76,5H81A13,13,0,0,1,94,18V31a0,0,0,0,1,0,0H81.5A7.5,7.5,0,0,1,74,23.5V5.76A.76.76,0,0,1,74.76,5Z" transform="translate(163.5 32.5) rotate(180)"/></g><g id="symboles_angles" data-name="symboles angles"><path class="cls-1" d="M15,77.5a2.25,2.25,0,1,0-2.29-2.25A2.27,2.27,0,0,0,15,77.5Zm1.59.56h-.3a3.13,3.13,0,0,1-1.3.28,3.16,3.16,0,0,1-1.3-.28h-.3A2.38,2.38,0,0,0,11,80.42v.74a.85.85,0,0,0,.86.84h6.28a.85.85,0,0,0,.86-.84v-.74A2.38,2.38,0,0,0,16.6,78.06Z" transform="translate(-4.5 -3.5)"/><path class="cls-1" d="M11.9,89.12l2-2.64a2.55,2.55,0,0,0,.27-.48,1.29,1.29,0,0,0,.09-.45h0A.72.72,0,0,0,14,85a.8.8,0,0,0-.56-.18.82.82,0,0,0-.57.2,1,1,0,0,0-.26.58h-.82a2.09,2.09,0,0,1,.28-.83,1.57,1.57,0,0,1,.56-.53,1.71,1.71,0,0,1,.8-.18,2,2,0,0,1,.86.17,1.24,1.24,0,0,1,.55.51,1.55,1.55,0,0,1,.19.8h0a1.65,1.65,0,0,1-.13.63,2.64,2.64,0,0,1-.34.64L13,89.05H15.1v.76H11.9Z" transform="translate(-4.5 -3.5)"/><path class="cls-1" d="M19.25,86.81v.76H16.08v-.76Zm-1.19,2h-.8V85.6h.8Z" transform="translate(-4.5 -3.5)"/></g></g><g id="symboles"><line class="cls-4" x1="5" y1="5.5" x2="5" y2="63.5"/><line class="cls-4" x1="86" y1="29.5" x2="86" y2="87.5"/><line class="cls-4" x1="8.5" y1="5" x2="66.5" y2="5"/><line class="cls-4" x1="24.5" y1="87" x2="82.5" y2="87"/></g></g><g id="titre"><path d="M38.4,80.28a4,4,0,0,1-.78,2.46,3.51,3.51,0,0,1-2.17,1.35,3.13,3.13,0,0,0,.8,1,.1.1,0,0,1,0,.07q0,.21-1.32.21a5.53,5.53,0,0,1-1.2-.07.26.26,0,0,1-.16-.2,4.92,4.92,0,0,1,0-1,3.6,3.6,0,0,1-2.09-1.38,4.23,4.23,0,0,1,.32-5.22,3.84,3.84,0,0,1,5.51,0A3.91,3.91,0,0,1,38.4,80.28Zm-2,0a2,2,0,0,0-.48-1.38,1.63,1.63,0,0,0-1.31-.58,1.67,1.67,0,0,0-1.33.57,2.34,2.34,0,0,0,0,2.8,1.84,1.84,0,0,0,2.66,0A2,2,0,0,0,36.36,80.27Z" transform="translate(-4.5 -3.5)"/><path d="M44.69,79.16c0,.26,0,.66,0,1.19s0,.93,0,1.19,0,.65,0,1.16,0,.9,0,1.16a.17.17,0,0,1-.14.18,4,4,0,0,1-.86,0,7.44,7.44,0,0,1-.82,0,.15.15,0,0,1-.13-.13l0-.32c0-.16,0-.25-.08-.25s-.13.13-.54.37a2.28,2.28,0,0,1-1.12.36,1.52,1.52,0,0,1-1.69-1.28,9.37,9.37,0,0,1-.12-1.73,7.55,7.55,0,0,1,.2-1.93c0-.15.12-.22.22-.22h1.51c.11,0,.16,0,.16.14a.54.54,0,0,1,0,.11,10.42,10.42,0,0,0-.11,1.48A8.83,8.83,0,0,0,41.17,82a.63.63,0,0,0,.7.59.85.85,0,0,0,.51-.21.57.57,0,0,0,.29-.43c0-.13,0-1,0-2.7a.4.4,0,0,1,0-.21s.09,0,.19,0h1.59c.11,0,.17,0,.19.08S44.69,79.1,44.69,79.16Z" transform="translate(-4.5 -3.5)"/><path d="M47.56,81.58c0,.26,0,.65,0,1.16s0,.91,0,1.17c0,.07,0,.12-.13.13a6.72,6.72,0,0,1-.82,0,6.81,6.81,0,0,1-.83,0,.21.21,0,0,1-.15-.07,1.48,1.48,0,0,1,0-.16c0-.25,0-.62,0-1.11s0-.87,0-1.12a19.31,19.31,0,0,0-.12-2.43.66.66,0,0,1,0-.11c0-.08,0-.11.14-.11l.46,0,.47,0,.46,0,.47,0c.09,0,.13,0,.13.11a.58.58,0,0,1,0,.1A21.66,21.66,0,0,0,47.56,81.58Zm.14-4c0,.63-.35.94-1.05.94a1.16,1.16,0,0,1-.75-.24.89.89,0,0,1,0-1.38,1.12,1.12,0,0,1,.74-.25,1.07,1.07,0,0,1,.72.25A.85.85,0,0,1,47.7,77.58Z" transform="translate(-4.5 -3.5)"/><path d="M56.27,81.12c0,.37-.12.57-.35.62l-1.11.12c-.43,0-1.06.1-1.89.17a.74.74,0,0,0,.45.53,1.64,1.64,0,0,0,.71.15,2,2,0,0,0,1-.26l.41-.26a1.63,1.63,0,0,1,.38.55,2,2,0,0,1,.27.63.23.23,0,0,1-.09.12,2.63,2.63,0,0,1-2,.71,2.85,2.85,0,0,1-2.06-.75,2.63,2.63,0,0,1-.81-2,2.9,2.9,0,0,1,.72-2,2.54,2.54,0,0,1,2-.82,2.32,2.32,0,0,1,1.75.76A2.48,2.48,0,0,1,56.27,81.12Zm-1.88-.32a.84.84,0,0,0-.24-.59.75.75,0,0,0-.56-.25.66.66,0,0,0-.56.28,1,1,0,0,0-.21.62A.13.13,0,0,0,53,81a10.18,10.18,0,0,0,1.24-.13C54.33,80.87,54.39,80.84,54.39,80.8Z" transform="translate(-4.5 -3.5)"/><path d="M60,79.7a.29.29,0,0,1-.08.14,1.54,1.54,0,0,0-.3,0,1,1,0,0,0-.53.14.5.5,0,0,0-.26.46.84.84,0,0,0,.27.48,4.62,4.62,0,0,1,.51.58,1.61,1.61,0,0,1,.28.88,1.85,1.85,0,0,1-.11.58,1.15,1.15,0,0,1-.31.49,4,4,0,0,1-.93.58,2.62,2.62,0,0,1-1.06.25c-.07,0-.23-.19-.48-.58a2.38,2.38,0,0,1-.37-.71.05.05,0,0,1,.06-.06l.75-.14c.32-.1.48-.27.48-.5a.88.88,0,0,0-.28-.54l-.51-.58a1.41,1.41,0,0,1-.27-.82,1.66,1.66,0,0,1,.81-1.37,2.76,2.76,0,0,1,1.57-.5s.2.2.42.58A2.64,2.64,0,0,1,60,79.7Z" transform="translate(-4.5 -3.5)"/><path d="M64.37,82.47c0,.1,0,.27,0,.49a3.5,3.5,0,0,0,0,.48c0,.1,0,.16,0,.19a.77.77,0,0,1-.17.13,3.22,3.22,0,0,1-1.54.38c-1,0-1.55-.4-1.55-1.19,0-.24,0-.59,0-1.07s0-.83,0-1.06-.09-.24-.27-.24h-.14q-.21,0-.21-.15c0-.06,0-.14,0-.26s0-.21,0-.26,0-.19,0-.35,0-.27,0-.34.12-.11.35-.12.2,0,.21-.11a3.78,3.78,0,0,0,0-.64c0-.46,0-.68,0-.66q0-.63.12-.63a2.31,2.31,0,0,1,.41.07,3.45,3.45,0,0,0,.42.08l.83.1c.09,0,.13,0,.13.09s0,.36,0,.65,0,.51,0,.66.06.26.16.26.32,0,.57,0h.57c.08,0,.12,0,.12.08s0,.21,0,.37a3.51,3.51,0,0,0,0,.37v.38c0,.16,0,.29,0,.37s0,.12-.16.12H62.92c-.05,0-.08.08-.08.24v.38c0,.17,0,.3,0,.38a1.28,1.28,0,0,0,.1.62c.09.16.28.23.57.23a1.69,1.69,0,0,0,.38-.06,1.9,1.9,0,0,1,.35-.06A.11.11,0,0,1,64.37,82.47Z" transform="translate(-4.5 -3.5)"/><path d="M68.76,79.91a1.64,1.64,0,0,1-.07.43l-.12.44c0,.17,0,.43-.11.77,0,0,0,.08-.13.08H67.1a14.42,14.42,0,0,0-1.52.1l-.28,0a1.37,1.37,0,0,1-.3,0c-.09,0-.14-.09-.14-.27a4.69,4.69,0,0,1,.18-.78c.12-.4.21-.66.26-.78a.14.14,0,0,1,.14-.09l.63,0,.63,0c.29,0,.78-.05,1.45-.13l.5-.07C68.73,79.73,68.76,79.79,68.76,79.91Z" transform="translate(-4.5 -3.5)"/><path d="M73.16,80.51l-.33-.09a2,2,0,0,0-.51-.09,1,1,0,0,0-1,1.06,1,1,0,0,0,.31.77,1.16,1.16,0,0,0,.81.29,1.39,1.39,0,0,0,.53-.12l.28-.13q.09,0,.24.69a5.53,5.53,0,0,1,.12.82c0,.14-.22.26-.66.35a4,4,0,0,1-.84.12,2.61,2.61,0,0,1-2-.8,2.74,2.74,0,0,1-.76-2,2.71,2.71,0,0,1,.77-2,2.55,2.55,0,0,1,1.94-.8,2.78,2.78,0,0,1,1.41.34c.09.05.14.1.14.15a5.11,5.11,0,0,1-.16.63c-.1.36-.17.58-.2.65S73.19,80.51,73.16,80.51Z" transform="translate(-4.5 -3.5)"/><path d="M79.1,81.12c0,.37-.12.57-.35.62l-1.11.12c-.42,0-1,.1-1.89.17a.76.76,0,0,0,.45.53,1.64,1.64,0,0,0,.71.15,2.11,2.11,0,0,0,1-.26l.4-.26a1.63,1.63,0,0,1,.38.55,2,2,0,0,1,.27.63.26.26,0,0,1-.08.12,2.67,2.67,0,0,1-2,.71,2.85,2.85,0,0,1-2.06-.75,2.63,2.63,0,0,1-.81-2,2.9,2.9,0,0,1,.72-2,2.56,2.56,0,0,1,2-.82,2.3,2.3,0,0,1,1.75.76A2.48,2.48,0,0,1,79.1,81.12Zm-1.88-.32a.84.84,0,0,0-.24-.59.72.72,0,0,0-.56-.25.67.67,0,0,0-.56.28,1,1,0,0,0-.2.62.13.13,0,0,0,.15.15A10.26,10.26,0,0,0,77,80.88C77.16,80.87,77.22,80.84,77.22,80.8Z" transform="translate(-4.5 -3.5)"/><path d="M86.48,78.54a2.11,2.11,0,0,1-1.07,2c-.55.31-.84.62-.89.94a1.94,1.94,0,0,0,0,.24.18.18,0,0,1-.2.12,3.57,3.57,0,0,0-.78.06l-.07,0c-.13,0-.19-.18-.19-.53a2,2,0,0,1,.53-1.13,2,2,0,0,0,.52-1.13c0-.46-.24-.69-.73-.69a3,3,0,0,0-1.22.36c-.15,0-.23-.46-.23-1.37a1.09,1.09,0,0,1,0-.22c0-.24.35-.43.9-.56a4.66,4.66,0,0,1,1.15-.15,2.43,2.43,0,0,1,1.61.54A1.93,1.93,0,0,1,86.48,78.54ZM85,83.16a1,1,0,0,1-.29.72,1,1,0,0,1-1.4,0,1,1,0,0,1-.29-.72,1,1,0,0,1,.29-.71,1,1,0,0,1,1.4,0A1,1,0,0,1,85,83.16Z" transform="translate(-4.5 -3.5)"/><path d="M30.91,46.42a7.48,7.48,0,0,0,7.23-7.71A7.49,7.49,0,0,0,30.91,31a7.49,7.49,0,0,0-7.24,7.72A7.48,7.48,0,0,0,30.91,46.42ZM79.1,61.83a4.56,4.56,0,0,0,4.33-4.76c0-5.24-3.88-9.48-8.65-9.48H63.53a7.9,7.9,0,0,0-4.1,1.14A18,18,0,0,1,70,61.83ZM64.87,60c-1.18-4.62-4.1-8.11-7.66-9a6.88,6.88,0,0,0-1.64-.19h-11a6.88,6.88,0,0,0-1.64.19c-3.56.84-6.48,4.33-7.66,9a18.36,18.36,0,0,0-.56,4.58c0,2.53,1.47,4.57,3.29,4.57H62.14c1.82,0,3.29-2,3.29-4.57A18.36,18.36,0,0,0,64.87,60Zm6.49-13.6a7.48,7.48,0,0,0,7.24-7.71,7.25,7.25,0,1,0-14.47,0A7.48,7.48,0,0,0,71.36,46.42ZM60.3,39.29C60.3,33.61,56,29,50.65,29S41,33.61,41,39.29s4.33,10.29,9.65,10.29S60.3,45,60.3,39.29ZM30.72,61.48A18,18,0,0,1,41.3,48.39a8,8,0,0,0-4.11-1.14H25.94c-4.77,0-8.64,4.23-8.64,9.48a4.55,4.55,0,0,0,4.32,4.75Z" transform="translate(-4.5 -3.5)"/><path class="cls-1" d="M51.32,63.3h-2V61.91a1.83,1.83,0,0,1,.28-1.09,6.36,6.36,0,0,1,1.24-1.14,3.09,3.09,0,0,0,1.45-2.37,2,2,0,0,0-.57-1.5,2,2,0,0,0-1.48-.55c-1.41,0-2.24,1-2.49,2.92l-2.24-.4a5,5,0,0,1,1.62-3.43,4.93,4.93,0,0,1,3.38-1.24,4.63,4.63,0,0,1,3.24,1.16A3.76,3.76,0,0,1,55,57.17a4,4,0,0,1-.35,1.63,3.8,3.8,0,0,1-.81,1.2A21.12,21.12,0,0,1,52,61.49a1.5,1.5,0,0,0-.52.58A4.65,4.65,0,0,0,51.32,63.3Zm.41,1.45v2.57H49.32V64.75Z" transform="translate(-4.5 -3.5)"/></g></svg>