<svg xmlns="http://www.w3.org/2000/svg" viewBox="0 0 91 92.5"><defs><style>.cls-1{fill:#fff;}.cls-2,.cls-4,.cls-5{fill:none;stroke-miterlimit:10;}.cls-2{stroke:#645da1;stroke-width:3px;}.cls-3{fill:#645da1;}.cls-4{stroke:#c3b39c;}.cls-5{stroke:#000;}</style></defs><g id="carte"><g id="fond_2_beige" data-name="fond 2 beige"><rect id="fond_1_blanc" data-name="fond 1 blanc" class="cls-1" x="2.5" y="2.5" width="86" height="87" rx="4.67"/></g><g id="angles"><rect id="contour" class="cls-2" x="1.5" y="1.5" width="88" height="89.5" rx="4.67"/><g id="coins"><path class="cls-3" d="M1.76,65H8A13,13,0,0,1,21,78V91a0,0,0,0,1,0,0H8.5A7.5,7.5,0,0,1,1,83.5V65.76A.76.76,0,0,1,1.76,65Z"/><path class="cls-3" d="M74.76,5H81A13,13,0,0,1,94,18V31a0,0,0,0,1,0,0H81.5A7.5,7.5,0,0,1,74,23.5V5.76A.76.76,0,0,1,74.76,5Z" transform="translate(163.5 32.5) rotate(180)"/></g><g id="symboles_angles" data-name="symboles angles"><path class="cls-1" d="M15,77.5a2.25,2.25,0,1,0-2.29-2.25A2.27,2.27,0,0,0,15,77.5Zm1.59.56h-.3a3.13,3.13,0,0,1-1.3.28,3.16,3.16,0,0,1-1.3-.28h-.3A2.38,2.38,0,0,0,11,80.42v.74a.85.85,0,0,0,.86.84h6.28a.85.85,0,0,0,.86-.84v-.74A2.38,2.38,0,0,0,16.6,78.06Z" transform="translate(-4.5 -3.5)"/><path class="cls-1" d="M11.9,88.12l2-2.64a2.55,2.55,0,0,0,.27-.48,1.29,1.29,0,0,0,.09-.45h0A.72.72,0,0,0,14,84a.8.8,0,0,0-.56-.18.82.82,0,0,0-.57.2,1,1,0,0,0-.26.58h-.82a2.09,2.09,0,0,1,.28-.83,1.57,1.57,0,0,1,.56-.53,1.71,1.71,0,0,1,.8-.18,2,2,0,0,1,.86.17,1.24,1.24,0,0,1,.55.51,1.55,1.55,0,0,1,.19.8h0a1.65,1.65,0,0,1-.13.63,2.64,2.64,0,0,1-.34.64L13,88.05H15.1v.76H11.9Z" transform="translate(-4.5 -3.5)"/><path class="cls-1" d="M19.25,85.81v.76H16.08v-.76Zm-1.19,2h-.8V84.6h.8Z" transform="translate(-4.5 -3.5)"/></g></g><g id="symboles"><line class="cls-4" x1="5" y1="5.5" x2="5" y2="63.5"/><line class="cls-4" x1="86" y1="29.5" x2="86" y2="87.5"/><line class="cls-4" x1="8.5" y1="5" x2="66.5" y2="5"/><line class="cls-4" x1="24.5" y1="87" x2="82.5" y2="87"/></g></g><g id="Tour"><rect x="27.5" y="22.5" width="22" height="26" rx="3"/><rect class="cls-5" x="37" y="29" width="22" height="26" rx="3"/></g><g id="titre"><path d="M45.51,73.12a7.47,7.47,0,0,1-.22,2.08,4.13,4.13,0,0,1-1.28,2,.26.26,0,0,1-.16.09.15.15,0,0,1-.12-.07c-.13-.15-.32-.37-.59-.66l-.68-.6a.17.17,0,0,1-.06-.11.14.14,0,0,1,.06-.1,5.43,5.43,0,0,0,.51-.48,1.87,1.87,0,0,0,.32-.63A6.93,6.93,0,0,0,43.44,73a38.39,38.39,0,0,0-.19-4.28.31.31,0,0,1,0-.08q0-.09.18-.09h.5l.51,0,.48,0h.48c.1,0,.15,0,.15.14,0,.49,0,1.23,0,2.23S45.51,72.63,45.51,73.12Z" transform="translate(-4.5 -3.5)"/><path d="M51.47,73.12c0,.37-.12.57-.35.62L50,73.86c-.43,0-1.06.1-1.89.17a.76.76,0,0,0,.45.53,1.64,1.64,0,0,0,.71.15,2,2,0,0,0,1-.26l.41-.26a1.63,1.63,0,0,1,.38.55,2,2,0,0,1,.27.63.26.26,0,0,1-.08.12,2.67,2.67,0,0,1-2,.71,2.85,2.85,0,0,1-2.06-.75,2.63,2.63,0,0,1-.81-2,2.9,2.9,0,0,1,.72-2,2.56,2.56,0,0,1,2-.82,2.3,2.3,0,0,1,1.75.76A2.48,2.48,0,0,1,51.47,73.12Zm-1.88-.32a.84.84,0,0,0-.24-.59.73.73,0,0,0-.56-.25.67.67,0,0,0-.56.28,1,1,0,0,0-.2.62.13.13,0,0,0,.15.15,10.26,10.26,0,0,0,1.23-.13C49.53,72.87,49.59,72.84,49.59,72.8Z" transform="translate(-4.5 -3.5)"/><path d="M57.59,71.16c0,.26,0,.66,0,1.19s0,.93,0,1.19,0,.65,0,1.16,0,.9,0,1.16a.16.16,0,0,1-.13.18,4,4,0,0,1-.86,0,7.31,7.31,0,0,1-.82,0,.15.15,0,0,1-.13-.13l0-.32c0-.16-.05-.25-.08-.25s-.13.13-.54.37a2.28,2.28,0,0,1-1.12.36,1.52,1.52,0,0,1-1.69-1.28A9.37,9.37,0,0,1,52,73.08a7.55,7.55,0,0,1,.2-1.93c0-.15.11-.22.22-.22H54c.11,0,.16,0,.16.14a.54.54,0,0,1,0,.11A10.42,10.42,0,0,0,54,72.67,8.83,8.83,0,0,0,54.07,74a.63.63,0,0,0,.7.59.85.85,0,0,0,.51-.21.6.6,0,0,0,.29-.43c0-.13,0-1,0-2.7a.4.4,0,0,1,0-.21s.09,0,.19,0h1.59c.11,0,.17,0,.19.08S57.59,71.1,57.59,71.16Z" transform="translate(-4.5 -3.5)"/><path d="M66.92,68.42c0-.08,0,0,0,.35s-.07.91-.09,1.53,0,1.5,0,2.4a28.32,28.32,0,0,0,.12,3.15.85.85,0,0,1,0,.13s0,.06-.08.07-.6,0-1.42,0c-.19,0-.31,0-.33-.11l0-.41a.12.12,0,0,0,0-.09.23.23,0,0,0-.08.07,2,2,0,0,1-1.45.57,2.29,2.29,0,0,1-1.82-.8A2.83,2.83,0,0,1,61,73.4a2.92,2.92,0,0,1,.64-1.93,2.27,2.27,0,0,1,1.83-.81,1.6,1.6,0,0,1,1.26.52c0,.06.09.09.11.09s0,0,0-.14c0-.28,0-.69,0-1.24s0-1,0-1.23c0-.1,0-.16.08-.18l.95-.06c.71-.09,1-.13,1-.13C66.88,68.29,66.92,68.33,66.92,68.42Zm-2,4.94a1.08,1.08,0,0,0-.29-.75,1,1,0,0,0-.72-.32.86.86,0,0,0-.7.32,1.19,1.19,0,0,0-.26.77,1.09,1.09,0,0,0,.26.73.86.86,0,0,0,.7.33.91.91,0,0,0,.72-.33A1.08,1.08,0,0,0,64.89,73.36Z" transform="translate(-4.5 -3.5)"/><path d="M72.63,73.12c0,.37-.12.57-.35.62l-1.11.12c-.42,0-1,.1-1.89.17a.75.75,0,0,0,.46.53,1.57,1.57,0,0,0,.7.15,2.11,2.11,0,0,0,1-.26l.4-.26a1.49,1.49,0,0,1,.38.55,2,2,0,0,1,.27.63.26.26,0,0,1-.08.12,2.67,2.67,0,0,1-2,.71,2.85,2.85,0,0,1-2.06-.75,2.63,2.63,0,0,1-.81-2,2.9,2.9,0,0,1,.72-2,2.56,2.56,0,0,1,2-.82,2.3,2.3,0,0,1,1.75.76A2.48,2.48,0,0,1,72.63,73.12Zm-1.88-.32a.84.84,0,0,0-.24-.59A.72.72,0,0,0,70,72a.67.67,0,0,0-.56.28,1,1,0,0,0-.2.62.13.13,0,0,0,.15.15,10.26,10.26,0,0,0,1.23-.13C70.69,72.87,70.75,72.84,70.75,72.8Z" transform="translate(-4.5 -3.5)"/><path d="M76.36,71.7a.23.23,0,0,1-.08.14,1.54,1.54,0,0,0-.3,0,1,1,0,0,0-.53.14.52.52,0,0,0-.26.46.82.82,0,0,0,.28.48,7.47,7.47,0,0,1,.51.58,1.59,1.59,0,0,1,.27.88,1.85,1.85,0,0,1-.11.58,1.06,1.06,0,0,1-.31.49,3.58,3.58,0,0,1-.93.58,2.59,2.59,0,0,1-1.06.25c-.07,0-.23-.19-.48-.58A2.38,2.38,0,0,1,73,75a.05.05,0,0,1,.06-.06l.76-.14c.31-.1.47-.27.47-.5a.83.83,0,0,0-.28-.54l-.5-.58a1.36,1.36,0,0,1-.28-.82A1.64,1.64,0,0,1,74,70.94a2.73,2.73,0,0,1,1.56-.5c.06,0,.2.2.42.58A2.64,2.64,0,0,1,76.36,71.7Z" transform="translate(-4.5 -3.5)"/><path d="M51.05,82.46a2.75,2.75,0,0,1-.68,1.9,2.3,2.3,0,0,1-1.83.79,2.25,2.25,0,0,1-.89-.21,1.66,1.66,0,0,1-.42-.2s-.07.05-.07.16,0,.46,0,.83,0,.64,0,.82-.06.17-.18.17H45.94a2.29,2.29,0,0,1-.48,0,.18.18,0,0,1-.16-.2V82.37a9.68,9.68,0,0,0-.19-2.11.38.38,0,0,1,0-.1.09.09,0,0,1,.06-.1,4.72,4.72,0,0,1,.8-.18,6.15,6.15,0,0,1,.84-.09c.14,0,.22.1.24.28s0,.28.07.28.11-.1.46-.3a2,2,0,0,1,.93-.29,2.38,2.38,0,0,1,1.86.77A2.76,2.76,0,0,1,51.05,82.46Zm-2,0a1.11,1.11,0,0,0-.27-.75.87.87,0,0,0-.7-.34.81.81,0,0,0-.69.34,1.36,1.36,0,0,0,0,1.5.83.83,0,0,0,.7.33C48.74,83.53,49.06,83.17,49.06,82.45Z" transform="translate(-4.5 -3.5)"/><path d="M57.15,82.36c0,.27,0,.68,0,1.23s.05,1,.05,1.22-.06.22-.19.23c-.44,0-.95,0-1.52,0-.07,0-.11-.1-.14-.31s0-.31-.08-.31a.27.27,0,0,0-.11.09,1.82,1.82,0,0,1-1.29.6,2.17,2.17,0,0,1-1.74-.82,2.8,2.8,0,0,1-.65-1.85,3,3,0,0,1,.67-2,2.46,2.46,0,0,1,1.92-.78,1.62,1.62,0,0,1,1.33.59s0,0,0,0,.07-.09.11-.27.1-.26.15-.26a4.33,4.33,0,0,1,.76.12,7.36,7.36,0,0,1,.76.18c.06,0,.08.05.08.09a.66.66,0,0,1,0,.11A11.3,11.3,0,0,0,57.15,82.36Zm-1.73,0a1.06,1.06,0,0,0-.29-.76,1.09,1.09,0,0,0-1.5,0,1.05,1.05,0,0,0-.28.76,1,1,0,0,0,.3.74,1,1,0,0,0,.73.32,1,1,0,0,0,.75-.3A1.06,1.06,0,0,0,55.42,82.39Z" transform="translate(-4.5 -3.5)"/><path d="M60.2,82.58c0,.26,0,.65,0,1.16s0,.91,0,1.17c0,.07,0,.12-.13.13a6.72,6.72,0,0,1-.82,0,6.81,6.81,0,0,1-.83,0c-.08,0-.13,0-.14-.07a.38.38,0,0,1,0-.16c0-.25,0-.62,0-1.11s0-.87,0-1.12a19.31,19.31,0,0,0-.12-2.43.66.66,0,0,1,0-.11c0-.08,0-.11.14-.11l.46,0,.47,0,.46,0,.47,0c.09,0,.13,0,.13.11a.58.58,0,0,1,0,.1A21.66,21.66,0,0,0,60.2,82.58Zm.14-4c0,.63-.35.94-1.05.94a1.16,1.16,0,0,1-.75-.24.89.89,0,0,1,0-1.38,1.12,1.12,0,0,1,.74-.25,1.07,1.07,0,0,1,.72.25A.85.85,0,0,1,60.34,78.58Z" transform="translate(-4.5 -3.5)"/><path d="M64.8,81.7c0,.13-.08.2-.23.2H64a.93.93,0,0,0-.61.14.72.72,0,0,0-.16.56c0,.16,0,.39,0,.7V84c0,.11,0,.26,0,.47s0,.36,0,.46-.06.13-.18.14-.43,0-.79,0-.61,0-.82,0a.17.17,0,0,1-.17-.18V83.58c0-.57,0-1,0-1.29a8,8,0,0,0-.23-2.08.25.25,0,0,1,0-.08.11.11,0,0,1,.08-.11l.86-.11.88-.17c.06,0,.1.11.12.34s0,.34.1.34.09-.1.44-.29a2.13,2.13,0,0,1,1-.28c.2,0,.3.05.3.13s0,.25,0,.44,0,.35,0,.44,0,.24,0,.42S64.8,81.63,64.8,81.7Z" transform="translate(-4.5 -3.5)"/><path d="M70.35,82.12c0,.37-.12.57-.35.62l-1.11.12c-.43,0-1.06.1-1.89.17a.76.76,0,0,0,.45.53,1.64,1.64,0,0,0,.71.15,2,2,0,0,0,1-.26l.41-.26a1.63,1.63,0,0,1,.38.55,2,2,0,0,1,.27.63.23.23,0,0,1-.09.12,2.63,2.63,0,0,1-2,.71A2.85,2.85,0,0,1,66,84.45a2.63,2.63,0,0,1-.81-2,2.9,2.9,0,0,1,.72-2,2.54,2.54,0,0,1,2-.82,2.32,2.32,0,0,1,1.75.76A2.48,2.48,0,0,1,70.35,82.12Zm-1.88-.32a.84.84,0,0,0-.24-.59.73.73,0,0,0-.56-.25.66.66,0,0,0-.56.28,1,1,0,0,0-.21.62.13.13,0,0,0,.15.15,10.18,10.18,0,0,0,1.24-.13C68.41,81.87,68.47,81.84,68.47,81.8Z" transform="translate(-4.5 -3.5)"/><path d="M74.08,80.7a.29.29,0,0,1-.08.14,1.54,1.54,0,0,0-.3,0,1,1,0,0,0-.53.14.52.52,0,0,0-.26.46.84.84,0,0,0,.27.48,4.62,4.62,0,0,1,.51.58,1.53,1.53,0,0,1,.28.88,1.85,1.85,0,0,1-.11.58,1.15,1.15,0,0,1-.31.49,4,4,0,0,1-.93.58,2.62,2.62,0,0,1-1.06.25c-.07,0-.23-.19-.48-.58a2.38,2.38,0,0,1-.37-.71.05.05,0,0,1,.06-.06l.75-.14c.32-.1.48-.27.48-.5a.83.83,0,0,0-.28-.54l-.51-.58a1.41,1.41,0,0,1-.27-.82,1.66,1.66,0,0,1,.81-1.37,2.76,2.76,0,0,1,1.57-.5c.06,0,.2.2.42.58A2.64,2.64,0,0,1,74.08,80.7Z" transform="translate(-4.5 -3.5)"/></g></svg>