<svg xmlns="http://www.w3.org/2000/svg" viewBox="0 0 91 92.5"><defs><style>.cls-1{fill:#fff;}.cls-2,.cls-4{fill:none;stroke-miterlimit:10;}.cls-2{stroke:#645da1;stroke-width:3px;}.cls-3{fill:#645da1;}.cls-4{stroke:#c3b39c;}</style></defs><g id="carte"><g id="fond_2_beige" data-name="fond 2 beige"><rect id="fond_1_blanc" data-name="fond 1 blanc" class="cls-1" x="2.5" y="2.5" width="86" height="87" rx="4.67"/></g><g id="angles"><rect id="contour" class="cls-2" x="1.5" y="1.5" width="88" height="89.5" rx="4.67"/><g id="coins"><path class="cls-3" d="M1.76,65H8A13,13,0,0,1,21,78V91a0,0,0,0,1,0,0H8.5A7.5,7.5,0,0,1,1,83.5V65.76A.76.76,0,0,1,1.76,65Z"/><path class="cls-3" d="M74.76,5H81A13,13,0,0,1,94,18V31a0,0,0,0,1,0,0H81.5A7.5,7.5,0,0,1,74,23.5V5.76A.76.76,0,0,1,74.76,5Z" transform="translate(163.5 32.5) rotate(180)"/></g><g id="symboles_angles" data-name="symboles angles"><path class="cls-1" d="M15,77.5a2.25,2.25,0,1,0-2.29-2.25A2.27,2.27,0,0,0,15,77.5Zm1.59.56h-.3a3.13,3.13,0,0,1-1.3.28,3.16,3.16,0,0,1-1.3-.28h-.3A2.38,2.38,0,0,0,11,80.42v.74a.85.85,0,0,0,.86.84h6.28a.85.85,0,0,0,.86-.84v-.74A2.38,2.38,0,0,0,16.6,78.06Z" transform="translate(-4.5 -3.5)"/><path class="cls-1" d="M11.9,88.12l2-2.64a2.55,2.55,0,0,0,.27-.48,1.29,1.29,0,0,0,.09-.45h0A.72.72,0,0,0,14,84a.8.8,0,0,0-.56-.18.82.82,0,0,0-.57.2,1,1,0,0,0-.26.58h-.82a2.09,2.09,0,0,1,.28-.83,1.57,1.57,0,0,1,.56-.53,1.71,1.71,0,0,1,.8-.18,2,2,0,0,1,.86.17,1.24,1.24,0,0,1,.55.51,1.55,1.55,0,0,1,.19.8h0a1.65,1.65,0,0,1-.13.63,2.64,2.64,0,0,1-.34.64L13,88.05H15.1v.76H11.9Z" transform="translate(-4.5 -3.5)"/><path class="cls-1" d="M19.25,85.81v.76H16.08v-.76Zm-1.19,2h-.8V84.6h.8Z" transform="translate(-4.5 -3.5)"/></g></g><g id="symboles"><line class="cls-4" x1="5" y1="5.5" x2="5" y2="63.5"/><line class="cls-4" x1="86" y1="29.5" x2="86" y2="87.5"/><line class="cls-4" x1="8.5" y1="5" x2="66.5" y2="5"/><line class="cls-4" x1="24.5" y1="87" x2="82.5" y2="87"/></g></g><g id="titre"><path d="M51.21,75.83a.44.44,0,0,1-.11.22,3.26,3.26,0,0,1-2.63,1.18,3.49,3.49,0,0,1-2.72-1.15,3.92,3.92,0,0,1-1-2.79,4.07,4.07,0,0,1,1-2.77,3.35,3.35,0,0,1,2.64-1.19A3.51,3.51,0,0,1,51.1,70.4a.33.33,0,0,1,.1.21,3.26,3.26,0,0,1-.37.75,4.56,4.56,0,0,1-.47.74.15.15,0,0,1-.11,0,1.3,1.3,0,0,1-.27-.21,2.47,2.47,0,0,0-.57-.4,1.82,1.82,0,0,0-.88-.22,1.56,1.56,0,0,0-1.26.59,2.37,2.37,0,0,0,0,2.72,1.52,1.52,0,0,0,1.26.61,2,2,0,0,0,.89-.21,2.84,2.84,0,0,0,.56-.37,1.44,1.44,0,0,1,.26-.21.15.15,0,0,1,.11.06c.06.06.21.29.47.67A3.92,3.92,0,0,1,51.21,75.83Z" transform="translate(-4.5 -3.5)"/><path d="M57.15,74.36c0,.27,0,.68.05,1.23s0,1,0,1.22a.2.2,0,0,1-.19.23c-.45,0-1,0-1.53,0-.07,0-.11-.1-.14-.31s0-.31-.08-.31a.35.35,0,0,0-.11.09,1.81,1.81,0,0,1-1.29.6,2.17,2.17,0,0,1-1.74-.82,2.8,2.8,0,0,1-.64-1.85,2.9,2.9,0,0,1,.67-2,2.42,2.42,0,0,1,1.91-.78,1.61,1.61,0,0,1,1.33.59l0,0s.07-.09.11-.27.09-.26.15-.26a4.41,4.41,0,0,1,.75.12,7.72,7.72,0,0,1,.77.18c.05,0,.08.05.08.09s0,0,0,.11A12.27,12.27,0,0,0,57.15,74.36Zm-1.73,0a1.06,1.06,0,0,0-.29-.76,1,1,0,0,0-.75-.3,1,1,0,0,0-.74.3,1.06,1.06,0,0,0-.29.76,1,1,0,0,0,.3.74,1,1,0,0,0,1.48,0A1.06,1.06,0,0,0,55.42,74.39Z" transform="translate(-4.5 -3.5)"/><path d="M60.17,73.81c0,1,0,1.73,0,2.25,0,.08,0,.22,0,.42s0,.33,0,.43,0,.12-.14.13a5.74,5.74,0,0,1-.87,0,4.6,4.6,0,0,1-.82,0,.18.18,0,0,1-.14-.14v-.23c0-.32,0-.8,0-1.44s0-1.11,0-1.42V71.75a16.84,16.84,0,0,0-.13-2,.31.31,0,0,1,0-.09c0-.08,0-.12.14-.12h1.91c.09,0,.13,0,.13.12v.09C60.22,71.25,60.17,72.62,60.17,73.81Z" transform="translate(-4.5 -3.5)"/><path d="M64.71,73.51l-.32-.09a2.09,2.09,0,0,0-.52-.09,1,1,0,0,0-.76.29,1,1,0,0,0-.29.77,1,1,0,0,0,.31.77,1.16,1.16,0,0,0,.81.29,1.39,1.39,0,0,0,.53-.12l.28-.13c.07,0,.14.23.24.69a5.53,5.53,0,0,1,.12.82c0,.14-.22.26-.66.35a3.9,3.9,0,0,1-.83.12,2.59,2.59,0,0,1-1.95-.8,2.71,2.71,0,0,1-.77-2,2.75,2.75,0,0,1,.77-2,2.56,2.56,0,0,1,1.95-.8A2.77,2.77,0,0,1,65,72c.1.05.14.1.14.15a5.11,5.11,0,0,1-.16.63c-.1.36-.16.58-.19.65S64.74,73.51,64.71,73.51Z" transform="translate(-4.5 -3.5)"/><path d="M71.26,72.16c0,.26,0,.66,0,1.19s0,.93,0,1.19,0,.65,0,1.16,0,.9,0,1.16a.17.17,0,0,1-.14.18,4,4,0,0,1-.86,0,7.56,7.56,0,0,1-.82,0,.15.15,0,0,1-.13-.13l0-.32c0-.16,0-.25-.07-.25s-.14.13-.55.37a2.25,2.25,0,0,1-1.12.36,1.52,1.52,0,0,1-1.69-1.28,9.55,9.55,0,0,1-.11-1.73,7.62,7.62,0,0,1,.19-1.93c0-.15.12-.22.22-.22h1.51c.11,0,.16,0,.16.14a.54.54,0,0,1,0,.11,10.42,10.42,0,0,0-.11,1.48A8.83,8.83,0,0,0,67.74,75a.63.63,0,0,0,.7.59.9.9,0,0,0,.52-.21.58.58,0,0,0,.28-.43c0-.13,0-1,0-2.7,0-.12,0-.19,0-.21s.09,0,.2,0h1.58c.11,0,.17,0,.19.08S71.26,72.1,71.26,72.16Z" transform="translate(-4.5 -3.5)"/><path d="M74.1,73.81c0,1,0,1.73,0,2.25,0,.08,0,.22,0,.42s0,.33,0,.43,0,.12-.13.13a5.74,5.74,0,0,1-.87,0,4.53,4.53,0,0,1-.82,0,.17.17,0,0,1-.14-.14v-.23c0-.32,0-.8,0-1.44s0-1.11,0-1.42c0-1.51,0-2.19,0-2.06a19.13,19.13,0,0,0-.13-2,.37.37,0,0,1,0-.09c0-.08,0-.12.14-.12h1.92c.09,0,.13,0,.13.12v.09C74.15,71.25,74.1,72.62,74.1,73.81Z" transform="translate(-4.5 -3.5)"/><path d="M51.12,85.84c0,.13-.06.2-.16.21a7.05,7.05,0,0,1-.8,0,6.38,6.38,0,0,1-.82,0c-.1,0-.16-.11-.16-.26s0-.41,0-.74,0-.57,0-.74c0-.63,0-1.07,0-1.34s-.22-.64-.6-.64a.77.77,0,0,0-.51.22.72.72,0,0,0-.27.47c0,.15,0,.59,0,1.32,0,.17,0,.42,0,.76s0,.6,0,.77,0,.18-.16.18H46c-.1,0-.15-.07-.15-.22s0-.42,0-.76,0-.59,0-.76,0-.33,0-.6,0-.47,0-.61c0-.51-.2-.77-.59-.77a.87.87,0,0,0-.51.19.53.53,0,0,0-.3.42v1.46c0,.65,0,1.13,0,1.45a.29.29,0,0,1,0,.17.37.37,0,0,1-.17,0,7.45,7.45,0,0,1-.76,0l-.77,0c-.09,0-.14,0-.15,0s0-.07,0-.16c0-.28,0-.71,0-1.28V83.27a18.33,18.33,0,0,0-.12-2,.84.84,0,0,1,0-.1.12.12,0,0,1,.08-.12A1.93,1.93,0,0,1,43,81l.47,0,.43-.11a1.59,1.59,0,0,1,.42-.08c.07,0,.11.13.11.37s0,.38,0,.38l.13-.08a4.51,4.51,0,0,1,.76-.51,1.92,1.92,0,0,1,.9-.2,1.72,1.72,0,0,1,.88.22,1.13,1.13,0,0,1,.56.69,2.3,2.3,0,0,1,.78-.65,2.06,2.06,0,0,1,1-.26,1.89,1.89,0,0,1,1.15.33,1.2,1.2,0,0,1,.51,1c0,.19,0,.48,0,.86s0,.67,0,.86,0,.56,0,1S51.12,85.62,51.12,85.84Z" transform="translate(-4.5 -3.5)"/><path d="M57.06,83.12c0,.37-.12.57-.35.62l-1.11.12c-.43,0-1.06.1-1.89.17a.76.76,0,0,0,.45.53,1.64,1.64,0,0,0,.71.15,2,2,0,0,0,1-.26l.41-.26a1.63,1.63,0,0,1,.38.55,2,2,0,0,1,.27.63.23.23,0,0,1-.09.12,2.63,2.63,0,0,1-2,.71,2.85,2.85,0,0,1-2.06-.75,2.63,2.63,0,0,1-.81-2,2.9,2.9,0,0,1,.72-2,2.56,2.56,0,0,1,2-.82,2.32,2.32,0,0,1,1.75.76A2.48,2.48,0,0,1,57.06,83.12Zm-1.88-.32a.84.84,0,0,0-.24-.59.73.73,0,0,0-.56-.25.66.66,0,0,0-.56.28,1,1,0,0,0-.21.62.13.13,0,0,0,.15.15A10.18,10.18,0,0,0,55,82.88C55.12,82.87,55.18,82.84,55.18,82.8Z" transform="translate(-4.5 -3.5)"/><path d="M63,85.88a.15.15,0,0,1-.15.17,6.74,6.74,0,0,1-.79,0,6.67,6.67,0,0,1-.84,0,.2.2,0,0,1-.16-.22c0-.17,0-.42,0-.76s0-.6,0-.77,0-.33,0-.59,0-.46,0-.6c0-.49-.21-.73-.64-.73a.93.93,0,0,0-.48.18c-.2.14-.31.27-.31.4v2.9c0,.12-.05.19-.16.2a6.93,6.93,0,0,1-.77,0,6.83,6.83,0,0,1-.82,0,.17.17,0,0,1-.16-.18V84.6c0-.56,0-1,0-1.27a8.28,8.28,0,0,0-.21-2.1.25.25,0,0,1,0-.08.12.12,0,0,1,.08-.11l.9-.12c.57-.11.89-.17,1-.17s.07.12.09.36.06.37.09.37a3,3,0,0,1,.58-.38,2.29,2.29,0,0,1,1.12-.37,2,2,0,0,1,1.14.32,1.2,1.2,0,0,1,.51,1v2.76C63,85.3,63,85.65,63,85.88Z" transform="translate(-4.5 -3.5)"/><path d="M67.48,84.47c0,.1,0,.27,0,.49a3.5,3.5,0,0,0,0,.48.38.38,0,0,1,0,.19l-.18.13a3.19,3.19,0,0,1-1.54.38c-1,0-1.55-.4-1.55-1.19,0-.24,0-.59,0-1.07s0-.83,0-1.06-.09-.24-.27-.24h-.14c-.14,0-.2,0-.2-.15s0-.14,0-.26,0-.21,0-.26,0-.19,0-.35,0-.27,0-.34.11-.11.34-.12.2,0,.21-.11a3.78,3.78,0,0,0,0-.64c0-.46,0-.68,0-.66q0-.63.12-.63a2.31,2.31,0,0,1,.41.07,3.84,3.84,0,0,0,.42.08l.83.1c.09,0,.14,0,.14.09s0,.36,0,.65,0,.51,0,.66,0,.26.15.26.32,0,.57,0h.58c.07,0,.11,0,.11.08s0,.21,0,.37a3.51,3.51,0,0,0,0,.37c0,.09,0,.21,0,.38v.37q0,.12-.15.12H66s-.08.08-.08.24v.38c0,.17,0,.3,0,.38a1.28,1.28,0,0,0,.1.62.62.62,0,0,0,.57.23,1.69,1.69,0,0,0,.38-.06,1.84,1.84,0,0,1,.36-.06C67.44,84.35,67.48,84.39,67.48,84.47Z" transform="translate(-4.5 -3.5)"/><path d="M73.44,83.36c0,.27,0,.68,0,1.23s.05,1,.05,1.22a.2.2,0,0,1-.19.23c-.45,0-.95,0-1.53,0-.07,0-.11-.1-.13-.31s-.06-.31-.09-.31a.35.35,0,0,0-.11.09,1.81,1.81,0,0,1-1.29.6,2.14,2.14,0,0,1-1.73-.82,2.75,2.75,0,0,1-.65-1.85,2.9,2.9,0,0,1,.67-2,2.42,2.42,0,0,1,1.91-.78,1.61,1.61,0,0,1,1.33.59l0,0s.07-.09.11-.27.09-.26.15-.26a4.41,4.41,0,0,1,.75.12,7.72,7.72,0,0,1,.77.18s.08.05.08.09,0,0,0,.11A12.27,12.27,0,0,0,73.44,83.36Zm-1.73,0a1.06,1.06,0,0,0-.29-.76,1.08,1.08,0,0,0-1.49,0,1.06,1.06,0,0,0-.29.76,1,1,0,0,0,.3.74,1,1,0,0,0,1.48,0A1.06,1.06,0,0,0,71.71,83.39Z" transform="translate(-4.5 -3.5)"/><path d="M76.46,82.81c0,1,0,1.73,0,2.25,0,.08,0,.22,0,.42s0,.33,0,.43-.05.12-.14.13a5.74,5.74,0,0,1-.87,0,4.6,4.6,0,0,1-.82,0,.16.16,0,0,1-.13-.14v-.23c0-.32,0-.8,0-1.44s0-1.11,0-1.42V80.75a16.84,16.84,0,0,0-.13-2,.31.31,0,0,1,0-.09c0-.08,0-.12.14-.12h1.92c.08,0,.13,0,.12.12v.09C76.51,80.25,76.46,81.62,76.46,82.81Z" transform="translate(-4.5 -3.5)"/><path d="M61.5,17h-27A4.56,4.56,0,0,0,30,21.59V61.41A4.66,4.66,0,0,0,34.5,66h27A4.56,4.56,0,0,0,66,61.41V21.59A4.66,4.66,0,0,0,61.5,17Zm-24,18.38h3A1.52,1.52,0,0,1,42,36.91V40a1.52,1.52,0,0,1-1.5,1.53h-3A1.52,1.52,0,0,1,36,40V36.91A1.52,1.52,0,0,1,37.5,35.38Zm0,9.18h3A1.52,1.52,0,0,1,42,46.09v3.07a1.52,1.52,0,0,1-1.5,1.53h-3A1.52,1.52,0,0,1,36,49.16V46.09A1.52,1.52,0,0,1,37.5,44.56Zm12,15.32h-12A1.53,1.53,0,0,1,36,58.34V55.28a1.52,1.52,0,0,1,1.5-1.53h12A1.52,1.52,0,0,1,51,55.28v3.06A1.53,1.53,0,0,1,49.5,59.88Zm0-9.19h-3A1.52,1.52,0,0,1,45,49.16V46.09a1.52,1.52,0,0,1,1.5-1.53h3A1.52,1.52,0,0,1,51,46.09v3.07A1.52,1.52,0,0,1,49.5,50.69Zm0-9.19h-3A1.52,1.52,0,0,1,45,40V36.91a1.52,1.52,0,0,1,1.5-1.53h3A1.52,1.52,0,0,1,51,36.91V40A1.52,1.52,0,0,1,49.5,41.5Zm9,18.38h-3A1.52,1.52,0,0,1,54,58.34V55.28a1.52,1.52,0,0,1,1.5-1.53h3A1.52,1.52,0,0,1,60,55.28v3.06A1.52,1.52,0,0,1,58.5,59.88Zm0-9.19h-3A1.52,1.52,0,0,1,54,49.16V46.09a1.52,1.52,0,0,1,1.5-1.53h3A1.52,1.52,0,0,1,60,46.09v3.07A1.52,1.52,0,0,1,58.5,50.69Zm0-9.19h-3A1.52,1.52,0,0,1,54,40V36.91a1.51,1.51,0,0,1,1.5-1.53h3A1.51,1.51,0,0,1,60,36.91V40A1.52,1.52,0,0,1,58.5,41.5Zm0-9.19h-21A1.52,1.52,0,0,1,36,30.78V24.66a1.53,1.53,0,0,1,1.5-1.54h21A1.52,1.52,0,0,1,60,24.66v6.12A1.52,1.52,0,0,1,58.5,32.31Z" transform="translate(-4.5 -3.5)"/></g></svg>