<svg xmlns="http://www.w3.org/2000/svg" viewBox="0 0 91 92.5"><defs><style>.cls-1{fill:#fff;}.cls-2,.cls-4{fill:none;stroke-miterlimit:10;}.cls-2{stroke:#645da1;stroke-width:3px;}.cls-3{fill:#645da1;}.cls-4{stroke:#c3b39c;}</style></defs><g id="carte"><g id="fond_2_beige" data-name="fond 2 beige"><rect id="fond_1_blanc" data-name="fond 1 blanc" class="cls-1" x="2.5" y="2.5" width="86" height="87" rx="4.67"/></g><g id="angles"><rect id="contour" class="cls-2" x="1.5" y="1.5" width="88" height="89.5" rx="4.67"/><g id="coins"><path class="cls-3" d="M1.76,65H8A13,13,0,0,1,21,78V91a0,0,0,0,1,0,0H8.5A7.5,7.5,0,0,1,1,83.5V65.76A.76.76,0,0,1,1.76,65Z"/><path class="cls-3" d="M74.76,5H81A13,13,0,0,1,94,18V31a0,0,0,0,1,0,0H81.5A7.5,7.5,0,0,1,74,23.5V5.76A.76.76,0,0,1,74.76,5Z" transform="translate(163.5 32.5) rotate(180)"/></g><g id="symboles_angles" data-name="symboles angles"><path class="cls-1" d="M15,77.5a2.25,2.25,0,1,0-2.29-2.25A2.27,2.27,0,0,0,15,77.5Zm1.59.56h-.3a3.13,3.13,0,0,1-1.3.28,3.16,3.16,0,0,1-1.3-.28h-.3A2.38,2.38,0,0,0,11,80.42v.74a.85.85,0,0,0,.86.84h6.28a.85.85,0,0,0,.86-.84v-.74A2.38,2.38,0,0,0,16.6,78.06Z" transform="translate(-4.5 -3.5)"/><path class="cls-1" d="M11.9,89.12l2-2.64a2.55,2.55,0,0,0,.27-.48,1.29,1.29,0,0,0,.09-.45h0A.72.72,0,0,0,14,85a.8.8,0,0,0-.56-.18.82.82,0,0,0-.57.2,1,1,0,0,0-.26.58h-.82a2.09,2.09,0,0,1,.28-.83,1.57,1.57,0,0,1,.56-.53,1.71,1.71,0,0,1,.8-.18,2,2,0,0,1,.86.17,1.24,1.24,0,0,1,.55.51,1.55,1.55,0,0,1,.19.8h0a1.65,1.65,0,0,1-.13.63,2.64,2.64,0,0,1-.34.64L13,89.05H15.1v.76H11.9Z" transform="translate(-4.5 -3.5)"/><path class="cls-1" d="M19.25,86.81v.76H16.08v-.76Zm-1.19,2h-.8V85.6h.8Z" transform="translate(-4.5 -3.5)"/></g></g><g id="symboles"><line class="cls-4" x1="5" y1="5.5" x2="5" y2="63.5"/><line class="cls-4" x1="86" y1="29.5" x2="86" y2="87.5"/><line class="cls-4" x1="8.5" y1="5" x2="66.5" y2="5"/><line class="cls-4" x1="24.5" y1="87" x2="82.5" y2="87"/></g></g><g id="titre"><path d="M47.47,81.12a7.47,7.47,0,0,1-.22,2.08,4.13,4.13,0,0,1-1.28,2,.29.29,0,0,1-.16.09.15.15,0,0,1-.12-.07c-.13-.15-.32-.37-.59-.66l-.68-.6a.17.17,0,0,1-.06-.11.14.14,0,0,1,.06-.1,5.43,5.43,0,0,0,.51-.48,2.07,2.07,0,0,0,.32-.63A6.93,6.93,0,0,0,45.4,81a35.69,35.69,0,0,0-.2-4.28s0-.06,0-.08.06-.09.18-.09h.5l.51,0,.48,0h.48c.1,0,.15,0,.15.14,0,.49,0,1.23,0,2.23S47.47,80.63,47.47,81.12Z" transform="translate(-4.5 -3.5)"/><path d="M53.91,81.36c0,.27,0,.68,0,1.23s0,1,0,1.22-.06.22-.19.23c-.44,0-1,0-1.52,0-.07,0-.11-.1-.14-.31s0-.31-.08-.31a.27.27,0,0,0-.11.09,1.84,1.84,0,0,1-1.29.6,2.17,2.17,0,0,1-1.74-.82,2.8,2.8,0,0,1-.65-1.85,3,3,0,0,1,.67-2,2.46,2.46,0,0,1,1.92-.78,1.62,1.62,0,0,1,1.33.59s0,0,0,0,.06-.09.11-.27.09-.26.14-.26a4.47,4.47,0,0,1,.76.12,6.75,6.75,0,0,1,.76.18c.06,0,.08.05.08.09a.66.66,0,0,1,0,.11A11.3,11.3,0,0,0,53.91,81.36Zm-1.73,0a1.06,1.06,0,0,0-.29-.76,1.09,1.09,0,0,0-1.5,0,1.05,1.05,0,0,0-.28.76,1,1,0,0,0,.3.74,1,1,0,0,0,.73.32,1,1,0,0,0,.75-.3A1.06,1.06,0,0,0,52.18,81.39Z" transform="translate(-4.5 -3.5)"/><path d="M60.5,79.16c0,.26,0,.66,0,1.19s0,.93,0,1.19,0,.65,0,1.16,0,.9,0,1.16a.17.17,0,0,1-.13.18,4.15,4.15,0,0,1-.87,0,7.56,7.56,0,0,1-.82,0,.14.14,0,0,1-.12-.13l0-.32c0-.16,0-.25-.07-.25s-.13.13-.55.37a2.25,2.25,0,0,1-1.12.36,1.5,1.5,0,0,1-1.68-1.28A9.37,9.37,0,0,1,55,81.08a7.12,7.12,0,0,1,.2-1.93c0-.15.11-.22.22-.22h1.5c.11,0,.17,0,.17.14s0,.06,0,.11a9.14,9.14,0,0,0-.12,1.48A8.83,8.83,0,0,0,57,82a.64.64,0,0,0,.71.59.9.9,0,0,0,.51-.21.63.63,0,0,0,.29-.43c0-.13,0-1,0-2.7a.67.67,0,0,1,0-.21.28.28,0,0,1,.2,0H60.3c.11,0,.17,0,.19.08A.45.45,0,0,1,60.5,79.16Z" transform="translate(-4.5 -3.5)"/><path d="M66.74,82.64a3.08,3.08,0,0,1-.65,2.2,3,3,0,0,1-2.21.68,7.78,7.78,0,0,1-1.23-.14c-.66-.12-1-.27-1-.43a8.83,8.83,0,0,1,.23-1c0-.1.06-.15.11-.15l.06,0a3.58,3.58,0,0,0,1.53.41,1.67,1.67,0,0,0,.77-.2c.31-.15.47-.35.47-.58V83a2,2,0,0,1-1.41.52,2.1,2.1,0,0,1-1.66-.73,2.69,2.69,0,0,1,0-3.42,2.1,2.1,0,0,1,1.64-.7,1.45,1.45,0,0,1,1.25.58c0,.08.09.12.11.12s0-.07,0-.2,0-.43.1-.43l.93.09.87.1a.13.13,0,0,1,.09.14c0,.25,0,.62,0,1.11s0,.86,0,1.1V82C66.74,82.28,66.74,82.5,66.74,82.64Zm-1.86-1.48a1,1,0,0,0-.26-.68.88.88,0,0,0-1.31,0,1,1,0,0,0-.26.69.94.94,0,0,0,.27.67.87.87,0,0,0,1.3,0A1,1,0,0,0,64.88,81.16Z" transform="translate(-4.5 -3.5)"/><path d="M72.59,81.12c0,.37-.12.57-.35.62l-1.12.12c-.42,0-1.05.1-1.89.17a.78.78,0,0,0,.46.53,1.61,1.61,0,0,0,.71.15,2,2,0,0,0,1-.26l.41-.26a1.79,1.79,0,0,1,.38.55,1.87,1.87,0,0,1,.26.63.2.2,0,0,1-.08.12,2.63,2.63,0,0,1-2,.71,2.89,2.89,0,0,1-2.07-.75,2.66,2.66,0,0,1-.8-2,2.9,2.9,0,0,1,.72-2,2.54,2.54,0,0,1,2-.82,2.32,2.32,0,0,1,1.75.76A2.48,2.48,0,0,1,72.59,81.12Zm-1.88-.32a.84.84,0,0,0-.24-.59.75.75,0,0,0-.56-.25.66.66,0,0,0-.56.28,1,1,0,0,0-.21.62.13.13,0,0,0,.15.15,10.18,10.18,0,0,0,1.24-.13C70.65,80.87,70.71,80.84,70.71,80.8Z" transform="translate(-4.5 -3.5)"/><path class="cls-1" d="M51.32,63.3h-2V61.91a1.83,1.83,0,0,1,.28-1.09,6.36,6.36,0,0,1,1.24-1.14,3.09,3.09,0,0,0,1.45-2.37,2,2,0,0,0-.57-1.5,2,2,0,0,0-1.48-.55c-1.41,0-2.24,1-2.49,2.92l-2.24-.4a5,5,0,0,1,1.62-3.43,4.93,4.93,0,0,1,3.38-1.24,4.63,4.63,0,0,1,3.24,1.16A3.76,3.76,0,0,1,55,57.17a4,4,0,0,1-.35,1.63,3.8,3.8,0,0,1-.81,1.2A21.12,21.12,0,0,1,52,61.49a1.5,1.5,0,0,0-.52.58A4.65,4.65,0,0,0,51.32,63.3Zm.41,1.45v2.57H49.32V64.75Z" transform="translate(-4.5 -3.5)"/><path d="M34.71,33.1c0,.07.08.16.13.23l2,3.23a6.82,6.82,0,0,1,5.12-2l-2.39-3.73a2.92,2.92,0,0,0-3.78-.92A2.38,2.38,0,0,0,34.7,33.1Zm20,4.91c8.2,2.37,13.77,9.27,13.77,17.07a3.62,3.62,0,0,1,0,.47,14.3,14.3,0,0,0,7.39-12.26V30.39a2.78,2.78,0,0,0-5.53,0v8.53l-13.39-21A2.92,2.92,0,0,0,53.17,17a2.39,2.39,0,0,0-1,3.42L59.53,32a.79.79,0,0,1-.33,1.14,1,1,0,0,1-1.26-.3L48.72,18.36a2.94,2.94,0,0,0-3.79-.92,2.38,2.38,0,0,0-1,3.42l9.22,14.48a.8.8,0,0,1-.34,1.14,1,1,0,0,1-1.25-.31L44.17,24.59a2.93,2.93,0,0,0-3.78-.92,2.39,2.39,0,0,0-1,3.43l5.07,7.95ZM24.24,67.15a2.61,2.61,0,0,0,2.47,2.49H51c7.64,0,13.83-5.6,13.83-12.53,0-.12,0-.25,0-.37s0-.27,0-.39c0-7.1-5.07-13.39-12.55-15.55L42.58,38a2.83,2.83,0,0,0-3.47,1.63,2.46,2.46,0,0,0,1.8,3.14l6.21,1.8H23.31a2.52,2.52,0,1,0,0,5H38.06a.84.84,0,1,1,0,1.67H19.63a2.52,2.52,0,1,0,0,5H38.06a.84.84,0,1,1,0,1.67H23.31a2.52,2.52,0,1,0,0,5H38.06a.84.84,0,1,1,0,1.67H27A2.64,2.64,0,0,0,24.24,67.15Z" transform="translate(-4.5 -3.5)"/></g></svg>