<svg xmlns="http://www.w3.org/2000/svg" viewBox="0 0 91 92.5"><defs><style>.cls-1{fill:#fff;}.cls-2,.cls-4{fill:none;stroke-miterlimit:10;}.cls-2{stroke:#645da1;stroke-width:3px;}.cls-3{fill:#645da1;}.cls-4{stroke:#c3b39c;}</style></defs><g id="carte"><g id="fond_2_beige" data-name="fond 2 beige"><rect id="fond_1_blanc" data-name="fond 1 blanc" class="cls-1" x="2.5" y="2.5" width="86" height="87" rx="4.67"/></g><g id="angles"><rect id="contour" class="cls-2" x="1.5" y="1.5" width="88" height="89.5" rx="4.67"/><g id="coins"><path class="cls-3" d="M1.76,65H8A13,13,0,0,1,21,78V91a0,0,0,0,1,0,0H8.5A7.5,7.5,0,0,1,1,83.5V65.76A.76.76,0,0,1,1.76,65Z"/><path class="cls-3" d="M74.76,5H81A13,13,0,0,1,94,18V31a0,0,0,0,1,0,0H81.5A7.5,7.5,0,0,1,74,23.5V5.76A.76.76,0,0,1,74.76,5Z" transform="translate(163.5 32.5) rotate(180)"/></g><g id="symboles_angles" data-name="symboles angles"><path class="cls-1" d="M15,77.5a2.25,2.25,0,1,0-2.29-2.25A2.27,2.27,0,0,0,15,77.5Zm1.59.56h-.3a3.13,3.13,0,0,1-1.3.28,3.16,3.16,0,0,1-1.3-.28h-.3A2.38,2.38,0,0,0,11,80.42v.74a.85.85,0,0,0,.86.84h6.28a.85.85,0,0,0,.86-.84v-.74A2.38,2.38,0,0,0,16.6,78.06Z" transform="translate(-4.5 -3.5)"/><path class="cls-1" d="M11.9,88.12l2-2.64a2.55,2.55,0,0,0,.27-.48,1.29,1.29,0,0,0,.09-.45h0A.72.72,0,0,0,14,84a.8.8,0,0,0-.56-.18.82.82,0,0,0-.57.2,1,1,0,0,0-.26.58h-.82a2.09,2.09,0,0,1,.28-.83,1.57,1.57,0,0,1,.56-.53,1.71,1.71,0,0,1,.8-.18,2,2,0,0,1,.86.17,1.24,1.24,0,0,1,.55.51,1.55,1.55,0,0,1,.19.8h0a1.65,1.65,0,0,1-.13.63,2.64,2.64,0,0,1-.34.64L13,88.05H15.1v.76H11.9Z" transform="translate(-4.5 -3.5)"/><path class="cls-1" d="M19.25,85.81v.76H16.08v-.76Zm-1.19,2h-.8V84.6h.8Z" transform="translate(-4.5 -3.5)"/></g></g><g id="symboles"><line class="cls-4" x1="5" y1="5.5" x2="5" y2="63.5"/><line class="cls-4" x1="86" y1="29.5" x2="86" y2="87.5"/><line class="cls-4" x1="8.5" y1="5" x2="66.5" y2="5"/><line class="cls-4" x1="24.5" y1="87" x2="82.5" y2="87"/></g></g><g id="Tour"><path d="M50,41.6h6V50H50Zm.6,7.26,2-3.06-2-3.06ZM55,42.2H51l2,3.06Zm0,7.2-2-3.06L51,49.4Zm.36-.54V42.74l-2,3.06Z" transform="translate(-4.5 -3.5)"/><ellipse class="cls-1" cx="42.75" cy="37.25" rx="18.05" ry="17.67"/></g><g id="titre"><path d="M46.31,75.83a.4.4,0,0,1-.12.22,3.22,3.22,0,0,1-2.62,1.18,3.48,3.48,0,0,1-2.72-1.15,3.93,3.93,0,0,1-1-2.79,4.08,4.08,0,0,1,1-2.77,3.35,3.35,0,0,1,2.64-1.19,3.48,3.48,0,0,1,2.72,1.07.31.31,0,0,1,.11.21,3.26,3.26,0,0,1-.37.75,4.56,4.56,0,0,1-.47.74.15.15,0,0,1-.11,0,1.3,1.3,0,0,1-.27-.21,2.47,2.47,0,0,0-.57-.4,1.82,1.82,0,0,0-.88-.22,1.54,1.54,0,0,0-1.26.59,2.32,2.32,0,0,0,0,2.72,1.5,1.5,0,0,0,1.26.61,2,2,0,0,0,.89-.21,2.84,2.84,0,0,0,.56-.37,1.13,1.13,0,0,1,.26-.21.15.15,0,0,1,.11.06c0,.06.21.29.46.67A3.64,3.64,0,0,1,46.31,75.83Z" transform="translate(-4.5 -3.5)"/><path d="M52.21,73.15v3.7q0,.2-.15.21a7,7,0,0,1-.79,0,5.23,5.23,0,0,1-.82,0c-.12,0-.17-.1-.17-.23,0-.31,0-.77,0-1.39s0-1.08,0-1.39a.56.56,0,0,0-.64-.63,1.13,1.13,0,0,0-.51.17c-.21.13-.31.26-.31.39v1.33c0,.17,0,.43,0,.78s0,.6,0,.77-.06.21-.17.22a9,9,0,0,1-.93,0,3.26,3.26,0,0,1-.64,0c-.13,0-.19-.09-.19-.19,0-.28,0-.71,0-1.27V74.3c0-1.17,0-2.14,0-2.9,0-.27,0-.54,0-.81a5.27,5.27,0,0,0-.1-.8.84.84,0,0,1,0-.1.11.11,0,0,1,.08-.11,2.49,2.49,0,0,1,.49-.06l.5,0,1-.11c.06,0,.09,0,.09.11s0,.27,0,.47,0,.39,0,.47c0,.81,0,1.45,0,1.92,0,.07,0,.1.06.1l.27-.18a3.19,3.19,0,0,1,.6-.35,2,2,0,0,1,.82-.19,1.82,1.82,0,0,1,1.15.36A1.28,1.28,0,0,1,52.21,73.15Z" transform="translate(-4.5 -3.5)"/><path d="M58.48,74.36c0,.27,0,.68.05,1.23s0,1,0,1.22-.06.22-.19.23c-.44,0-1,0-1.52,0-.07,0-.12-.1-.14-.31s0-.31-.08-.31a.36.36,0,0,0-.12.09,1.81,1.81,0,0,1-1.29.6,2.16,2.16,0,0,1-1.73-.82,2.8,2.8,0,0,1-.65-1.85,2.9,2.9,0,0,1,.67-2,2.44,2.44,0,0,1,1.91-.78,1.63,1.63,0,0,1,1.34.59s0,0,0,0,.07-.09.11-.27.09-.26.15-.26a4.47,4.47,0,0,1,.76.12,7.36,7.36,0,0,1,.76.18s.08.05.08.09a.34.34,0,0,1,0,.11A12.27,12.27,0,0,0,58.48,74.36Zm-1.73,0a1.05,1.05,0,0,0-.28-.76,1.09,1.09,0,0,0-1.5,0,1.05,1.05,0,0,0-.28.76,1,1,0,0,0,.3.74,1,1,0,0,0,.73.32,1,1,0,0,0,.74-.3A1,1,0,0,0,56.75,74.39Z" transform="translate(-4.5 -3.5)"/><path d="M61.54,74.58c0,.26,0,.65,0,1.16s0,.91,0,1.17c0,.07,0,.12-.13.13a6.72,6.72,0,0,1-.82,0,6.81,6.81,0,0,1-.83,0,.21.21,0,0,1-.15-.07,1.48,1.48,0,0,1,0-.16c0-.25,0-.62,0-1.11s0-.87,0-1.12a19.31,19.31,0,0,0-.12-2.43.66.66,0,0,1,0-.11c0-.08,0-.11.14-.11l.46,0,.47,0,.46,0,.47,0c.08,0,.13,0,.13.11a.58.58,0,0,1,0,.1A21.66,21.66,0,0,0,61.54,74.58Zm.14-4c0,.63-.35.94-1,.94a1.16,1.16,0,0,1-.75-.24.89.89,0,0,1,0-1.38,1.11,1.11,0,0,1,.74-.25,1.07,1.07,0,0,1,.72.25A.85.85,0,0,1,61.68,70.58Z" transform="translate(-4.5 -3.5)"/><path d="M65.72,72.7a.29.29,0,0,1-.08.14,1.54,1.54,0,0,0-.3,0,1,1,0,0,0-.54.14.51.51,0,0,0-.25.46.84.84,0,0,0,.27.48,4.62,4.62,0,0,1,.51.58,1.61,1.61,0,0,1,.28.88,1.85,1.85,0,0,1-.11.58,1.15,1.15,0,0,1-.31.49,4,4,0,0,1-.93.58,2.66,2.66,0,0,1-1.06.25c-.07,0-.23-.19-.48-.58a2.55,2.55,0,0,1-.38-.71.05.05,0,0,1,.06-.06l.76-.14c.32-.1.47-.27.47-.5a.86.86,0,0,0-.27-.54l-.51-.58a1.41,1.41,0,0,1-.27-.82,1.66,1.66,0,0,1,.81-1.37,2.76,2.76,0,0,1,1.57-.5c.05,0,.19.2.42.58A2.64,2.64,0,0,1,65.72,72.7Z" transform="translate(-4.5 -3.5)"/><path d="M71.41,74.12c0,.37-.12.57-.35.62L70,74.86c-.42,0-1,.1-1.89.17a.75.75,0,0,0,.46.53,1.58,1.58,0,0,0,.71.15,2.07,2.07,0,0,0,1-.26l.41-.26a1.67,1.67,0,0,1,.37.55,2,2,0,0,1,.27.63.26.26,0,0,1-.08.12,2.67,2.67,0,0,1-2,.71,2.85,2.85,0,0,1-2.06-.75,2.62,2.62,0,0,1-.8-2,2.94,2.94,0,0,1,.71-2,2.56,2.56,0,0,1,2-.82,2.3,2.3,0,0,1,1.75.76A2.48,2.48,0,0,1,71.41,74.12Zm-1.88-.32a.84.84,0,0,0-.24-.59.72.72,0,0,0-.56-.25.69.69,0,0,0-.56.28,1,1,0,0,0-.2.62.13.13,0,0,0,.15.15,10.06,10.06,0,0,0,1.23-.13C69.47,73.87,69.53,73.84,69.53,73.8Z" transform="translate(-4.5 -3.5)"/><path d="M75.14,72.7a.23.23,0,0,1-.08.14,1.54,1.54,0,0,0-.3,0,1,1,0,0,0-.53.14.52.52,0,0,0-.26.46.88.88,0,0,0,.28.48,7.47,7.47,0,0,1,.51.58,1.57,1.57,0,0,1,.16,1.46,1.06,1.06,0,0,1-.31.49,3.58,3.58,0,0,1-.93.58,2.58,2.58,0,0,1-1.05.25c-.08,0-.24-.19-.49-.58a2.69,2.69,0,0,1-.37-.71.05.05,0,0,1,.06-.06l.76-.14c.31-.1.47-.27.47-.5a.86.86,0,0,0-.27-.54l-.51-.58a1.36,1.36,0,0,1-.28-.82,1.64,1.64,0,0,1,.82-1.37,2.75,2.75,0,0,1,1.56-.5c.06,0,.2.2.43.58A2.81,2.81,0,0,1,75.14,72.7Z" transform="translate(-4.5 -3.5)"/><path d="M43.36,85.84c0,.13-.06.2-.16.21a7.05,7.05,0,0,1-.8,0,6.07,6.07,0,0,1-.81,0c-.11,0-.17-.11-.17-.26s0-.41,0-.74,0-.57,0-.74c0-.63,0-1.07,0-1.34s-.23-.64-.61-.64a.73.73,0,0,0-.5.22.69.69,0,0,0-.28.47c0,.15,0,.59,0,1.32,0,.17,0,.42,0,.76s0,.6,0,.77S40,86,39.9,86H38.28c-.1,0-.15-.07-.15-.22s0-.42,0-.76,0-.59,0-.76,0-.33,0-.6,0-.47,0-.61c0-.51-.2-.77-.59-.77a.87.87,0,0,0-.51.19.53.53,0,0,0-.3.42c0,.32,0,.81,0,1.46v1.45a.29.29,0,0,1,0,.17.37.37,0,0,1-.17,0,7.45,7.45,0,0,1-.76,0L35,86c-.08,0-.14,0-.15,0s0-.07,0-.16c0-.28,0-.71,0-1.28s0-1,0-1.29a18.53,18.53,0,0,0-.13-2,.46.46,0,0,1,0-.1.11.11,0,0,1,.07-.12,1.93,1.93,0,0,1,.45-.08l.47,0,.43-.11a1.67,1.67,0,0,1,.42-.08c.07,0,.11.13.11.37s0,.38,0,.38l.13-.08a4.51,4.51,0,0,1,.76-.51,2,2,0,0,1,.9-.2,1.72,1.72,0,0,1,.88.22,1.09,1.09,0,0,1,.56.69,2.25,2.25,0,0,1,.79-.65,2,2,0,0,1,1-.26,1.87,1.87,0,0,1,1.15.33,1.2,1.2,0,0,1,.51,1c0,.19,0,.48,0,.86s0,.67,0,.86,0,.56,0,1S43.36,85.62,43.36,85.84Z" transform="translate(-4.5 -3.5)"/><path d="M49.91,81.16c0,.26,0,.66,0,1.19s0,.93,0,1.19,0,.65,0,1.16,0,.9,0,1.16a.16.16,0,0,1-.13.18,4.09,4.09,0,0,1-.87,0,7.22,7.22,0,0,1-.81,0,.15.15,0,0,1-.13-.13l0-.32c0-.16,0-.25-.08-.25s-.13.13-.54.37a2.28,2.28,0,0,1-1.12.36,1.52,1.52,0,0,1-1.69-1.28,9.37,9.37,0,0,1-.12-1.73,7.55,7.55,0,0,1,.2-1.93c0-.15.11-.22.22-.22h1.51c.11,0,.16,0,.16.14a.54.54,0,0,1,0,.11,10.42,10.42,0,0,0-.11,1.48A8.83,8.83,0,0,0,46.39,84a.63.63,0,0,0,.7.59.85.85,0,0,0,.51-.21.6.6,0,0,0,.29-.43c0-.13,0-1,0-2.7a.4.4,0,0,1,0-.21s.08,0,.19,0h1.59c.1,0,.17,0,.18.08A.39.39,0,0,1,49.91,81.16Z" transform="translate(-4.5 -3.5)"/><path d="M53.93,81.7a.23.23,0,0,1-.08.14,1.54,1.54,0,0,0-.3,0,1,1,0,0,0-.53.14.52.52,0,0,0-.26.46.82.82,0,0,0,.28.48,7.47,7.47,0,0,1,.51.58,1.57,1.57,0,0,1,.16,1.46,1.06,1.06,0,0,1-.31.49,3.58,3.58,0,0,1-.93.58,2.59,2.59,0,0,1-1.06.25c-.07,0-.23-.19-.48-.58a2.69,2.69,0,0,1-.37-.71.05.05,0,0,1,.06-.06l.76-.14c.31-.1.47-.27.47-.5a.86.86,0,0,0-.27-.54l-.51-.58a1.36,1.36,0,0,1-.28-.82,1.64,1.64,0,0,1,.82-1.37,2.73,2.73,0,0,1,1.56-.5c.06,0,.2.2.43.58A2.81,2.81,0,0,1,53.93,81.7Z" transform="translate(-4.5 -3.5)"/><path d="M56.69,83.58c0,.26,0,.65,0,1.16s0,.91,0,1.17c0,.07,0,.12-.14.13a6.6,6.6,0,0,1-.82,0,6.81,6.81,0,0,1-.83,0A.2.2,0,0,1,54.8,86a.5.5,0,0,1,0-.16c0-.25,0-.62,0-1.11s0-.87,0-1.12a19.31,19.31,0,0,0-.12-2.43.66.66,0,0,1,0-.11c0-.08.05-.11.15-.11l.45,0,.47,0,.47,0,.46,0c.09,0,.13,0,.13.11a.58.58,0,0,1,0,.1A21.66,21.66,0,0,0,56.69,83.58Zm.14-4c0,.63-.35.94-1,.94a1.12,1.12,0,0,1-.74-.24.83.83,0,0,1-.33-.7A.85.85,0,0,1,55,78.9a1.21,1.21,0,0,1,1.47,0A.87.87,0,0,1,56.83,79.58Z" transform="translate(-4.5 -3.5)"/><path d="M61.29,82.51,61,82.42a2,2,0,0,0-.52-.09,1,1,0,0,0-.76.29,1,1,0,0,0-.28.77,1,1,0,0,0,.31.77,1.16,1.16,0,0,0,.81.29,1.43,1.43,0,0,0,.53-.12l.28-.13q.09,0,.24.69a5.53,5.53,0,0,1,.12.82c0,.14-.22.26-.67.35a3.82,3.82,0,0,1-.83.12,2.59,2.59,0,0,1-1.95-.8,2.93,2.93,0,0,1,0-4,2.59,2.59,0,0,1,1.95-.8A2.83,2.83,0,0,1,61.6,81c.09.05.14.1.14.15s-.06.25-.16.63-.17.58-.2.65S61.32,82.51,61.29,82.51Z" transform="translate(-4.5 -3.5)"/><path d="M67.71,83.36c0,.27,0,.68,0,1.23s0,1,0,1.22-.06.22-.19.23c-.44,0-1,0-1.52,0-.07,0-.12-.1-.14-.31s0-.31-.08-.31a.36.36,0,0,0-.12.09,1.8,1.8,0,0,1-1.28.6,2.17,2.17,0,0,1-1.74-.82,2.8,2.8,0,0,1-.65-1.85,3,3,0,0,1,.67-2,2.46,2.46,0,0,1,1.92-.78A1.62,1.62,0,0,1,66,81.3s0,0,0,0,.07-.09.11-.27.1-.26.15-.26a4.47,4.47,0,0,1,.76.12,7.36,7.36,0,0,1,.76.18c.06,0,.08.05.08.09a.66.66,0,0,1,0,.11A11.3,11.3,0,0,0,67.71,83.36Zm-1.73,0a1.06,1.06,0,0,0-.29-.76,1.09,1.09,0,0,0-1.5,0,1.05,1.05,0,0,0-.28.76,1,1,0,0,0,.3.74,1,1,0,0,0,.73.32,1,1,0,0,0,.75-.3A1.06,1.06,0,0,0,66,83.39Z" transform="translate(-4.5 -3.5)"/><path d="M70.73,82.81c0,1,0,1.73,0,2.25,0,.08,0,.22,0,.42s0,.33,0,.43,0,.12-.13.13a5.74,5.74,0,0,1-.87,0A4.53,4.53,0,0,1,69,86a.17.17,0,0,1-.14-.14v-.23c0-.32,0-.8,0-1.44s0-1.11,0-1.42c0-1.51,0-2.19,0-2.06a16.65,16.65,0,0,0-.14-2s0-.07,0-.09,0-.12.14-.12h1.92q.14,0,.12.12v.09C70.78,80.25,70.73,81.62,70.73,82.81Z" transform="translate(-4.5 -3.5)"/><path d="M76.63,83.12c0,.37-.11.57-.35.62l-1.11.12c-.42,0-1,.1-1.89.17a.75.75,0,0,0,.46.53,1.61,1.61,0,0,0,.71.15,2.07,2.07,0,0,0,1-.26l.41-.26a1.67,1.67,0,0,1,.37.55,2,2,0,0,1,.27.63.26.26,0,0,1-.08.12,2.67,2.67,0,0,1-2,.71,2.85,2.85,0,0,1-2.06-.75,2.62,2.62,0,0,1-.8-2,2.9,2.9,0,0,1,.72-2,2.53,2.53,0,0,1,2-.82,2.3,2.3,0,0,1,1.75.76A2.48,2.48,0,0,1,76.63,83.12Zm-1.88-.32a.88.88,0,0,0-.23-.59A.75.75,0,0,0,74,82a.69.69,0,0,0-.56.28,1,1,0,0,0-.2.62.13.13,0,0,0,.15.15,10.38,10.38,0,0,0,1.24-.13C74.69,82.87,74.75,82.84,74.75,82.8Z" transform="translate(-4.5 -3.5)"/><path d="M80.37,81.7a.26.26,0,0,1-.09.14,1.54,1.54,0,0,0-.3,0,1,1,0,0,0-.53.14.52.52,0,0,0-.26.46.88.88,0,0,0,.28.48,7.47,7.47,0,0,1,.51.58,1.59,1.59,0,0,1,.27.88,1.81,1.81,0,0,1-.1.58,1.16,1.16,0,0,1-.32.49,3.58,3.58,0,0,1-.93.58,2.58,2.58,0,0,1-1.05.25c-.08,0-.24-.19-.48-.58A2.55,2.55,0,0,1,77,85a.05.05,0,0,1,.06-.06l.76-.14c.31-.1.47-.27.47-.5a.86.86,0,0,0-.27-.54l-.51-.58a1.36,1.36,0,0,1-.28-.82A1.67,1.67,0,0,1,78,80.94a2.75,2.75,0,0,1,1.56-.5c.06,0,.2.2.43.58A3.09,3.09,0,0,1,80.37,81.7Z" transform="translate(-4.5 -3.5)"/><path d="M68.6,50l-1.26-2.72a2.71,2.71,0,0,0-2.47-1.57H34.81a2.72,2.72,0,0,0-2.47,1.57L31.09,50a2.72,2.72,0,0,0,2.39,3.85v9.5a1.36,1.36,0,0,0,1.36,1.36h2.71a1.36,1.36,0,0,0,1.36-1.36v-9.5H60.63v9.5A1.36,1.36,0,0,0,62,64.72h2.63A1.36,1.36,0,0,0,66,63.36l.15-9.5a2.7,2.7,0,0,0,2.28-1.25A2.73,2.73,0,0,0,68.6,50ZM40.28,32.14a6.86,6.86,0,0,1,3.38-5.84V43h4.07V25.35h4.07V43h4.07V26.29a6.61,6.61,0,0,1,3.39,5.85V43h4.08V32.14A10.86,10.86,0,0,0,52.49,21.28H47.06A10.84,10.84,0,0,0,36.28,32.14V43h4.07Z" transform="translate(-4.5 -3.5)"/></g></svg>