<svg xmlns="http://www.w3.org/2000/svg" viewBox="0 0 91 92.5"><defs><style>.cls-1{fill:#fff;}.cls-2,.cls-4,.cls-5{fill:none;stroke-miterlimit:10;}.cls-2{stroke:#645da1;stroke-width:3px;}.cls-3{fill:#645da1;}.cls-4{stroke:#c3b39c;}.cls-5{stroke:#000;}</style></defs><g id="carte"><g id="fond_2_beige" data-name="fond 2 beige"><rect id="fond_1_blanc" data-name="fond 1 blanc" class="cls-1" x="2.5" y="2.5" width="86" height="87" rx="4.67"/></g><g id="angles"><rect id="contour" class="cls-2" x="1.5" y="1.5" width="88" height="89.5" rx="4.67"/><g id="coins"><path class="cls-3" d="M1.76,65H8A13,13,0,0,1,21,78V91a0,0,0,0,1,0,0H8.5A7.5,7.5,0,0,1,1,83.5V65.76A.76.76,0,0,1,1.76,65Z"/><path class="cls-3" d="M74.76,5H81A13,13,0,0,1,94,18V31a0,0,0,0,1,0,0H81.5A7.5,7.5,0,0,1,74,23.5V5.76A.76.76,0,0,1,74.76,5Z" transform="translate(163.5 32.5) rotate(180)"/></g><g id="symboles_angles" data-name="symboles angles"><path class="cls-1" d="M15,77.5a2.25,2.25,0,1,0-2.29-2.25A2.27,2.27,0,0,0,15,77.5Zm1.59.56h-.3a3.13,3.13,0,0,1-1.3.28,3.16,3.16,0,0,1-1.3-.28h-.3A2.38,2.38,0,0,0,11,80.42v.74a.85.85,0,0,0,.86.84h6.28a.85.85,0,0,0,.86-.84v-.74A2.38,2.38,0,0,0,16.6,78.06Z" transform="translate(-4.5 -3.5)"/><path class="cls-1" d="M11.9,89.12l2-2.64a2.55,2.55,0,0,0,.27-.48,1.29,1.29,0,0,0,.09-.45h0A.72.72,0,0,0,14,85a.8.8,0,0,0-.56-.18.82.82,0,0,0-.57.2,1,1,0,0,0-.26.58h-.82a2.09,2.09,0,0,1,.28-.83,1.57,1.57,0,0,1,.56-.53,1.71,1.71,0,0,1,.8-.18,2,2,0,0,1,.86.17,1.24,1.24,0,0,1,.55.51,1.55,1.55,0,0,1,.19.8h0a1.65,1.65,0,0,1-.13.63,2.64,2.64,0,0,1-.34.64L13,89.05H15.1v.76H11.9Z" transform="translate(-4.5 -3.5)"/><path class="cls-1" d="M19.25,86.81v.76H16.08v-.76Zm-1.19,2h-.8V85.6h.8Z" transform="translate(-4.5 -3.5)"/></g></g><g id="symboles"><line class="cls-4" x1="5" y1="5.5" x2="5" y2="63.5"/><line class="cls-4" x1="86" y1="29.5" x2="86" y2="87.5"/><line class="cls-4" x1="8.5" y1="5" x2="66.5" y2="5"/><line class="cls-4" x1="24.5" y1="87" x2="82.5" y2="87"/></g></g><g id="titre"><path d="M41.86,83.91c0,.06,0,.11-.13.13a6.19,6.19,0,0,1-1,0,6.82,6.82,0,0,1-1,0,.28.28,0,0,1-.23-.24,2.24,2.24,0,0,0-.28-.83,12.93,12.93,0,0,0-1.44,0,4.43,4.43,0,0,0-1,0,1.65,1.65,0,0,0-.2.58c-.07.29-.15.46-.25.48a9,9,0,0,1-1.22,0c-.55,0-.82,0-.82-.15s.4-1.24,1.21-3.43c.88-2.38,1.35-3.68,1.43-3.92s.09-.2.15-.2l.45,0,.45,0,.43,0,.42,0c.07,0,.13.06.19.18.17.38.69,1.66,1.54,3.87S41.86,83.81,41.86,83.91ZM38.06,79a10.06,10.06,0,0,0-.39,1,6.17,6.17,0,0,0-.29,1c0,.07.11.1.33.11h.54c.24,0,.37,0,.4-.09a.56.56,0,0,0,0-.07,5.94,5.94,0,0,0-.25-1A9.74,9.74,0,0,0,38.06,79Z" transform="translate(-4.5 -3.5)"/><path d="M47.9,79.16c0,.26,0,.66,0,1.19s0,.93,0,1.19,0,.65,0,1.16,0,.9,0,1.16a.17.17,0,0,1-.13.18,4.15,4.15,0,0,1-.87,0,7.56,7.56,0,0,1-.82,0,.14.14,0,0,1-.12-.13l0-.32c0-.16,0-.25-.07-.25s-.13.13-.54.37a2.31,2.31,0,0,1-1.13.36,1.5,1.5,0,0,1-1.68-1.28,9.37,9.37,0,0,1-.12-1.73,7.12,7.12,0,0,1,.2-1.93c0-.15.11-.22.22-.22h1.5c.11,0,.17,0,.17.14s0,.06,0,.11a9.14,9.14,0,0,0-.12,1.48A8.83,8.83,0,0,0,44.38,82a.64.64,0,0,0,.71.59.87.87,0,0,0,.51-.21.63.63,0,0,0,.29-.43c0-.13,0-1,0-2.7a.67.67,0,0,1,0-.21.28.28,0,0,1,.2,0H47.7c.11,0,.17,0,.19.08A.45.45,0,0,1,47.9,79.16Z" transform="translate(-4.5 -3.5)"/><path d="M52.38,82.47a3.87,3.87,0,0,1,0,.49,3.5,3.5,0,0,0,0,.48.38.38,0,0,1,0,.19.68.68,0,0,1-.18.13,3.17,3.17,0,0,1-1.54.38c-1,0-1.55-.4-1.55-1.19,0-.24,0-.59,0-1.07s0-.83,0-1.06-.1-.24-.28-.24h-.14c-.13,0-.2,0-.2-.15s0-.14,0-.26,0-.21,0-.26,0-.19,0-.35,0-.27,0-.34.11-.11.34-.12.2,0,.21-.11a3.78,3.78,0,0,0,0-.64c0-.46,0-.68,0-.66q0-.63.12-.63a2.17,2.17,0,0,1,.41.07,3.88,3.88,0,0,0,.43.08l.82.1c.09,0,.14,0,.14.09a6.45,6.45,0,0,1,0,.65q0,.43,0,.66c0,.17,0,.26.15.26s.32,0,.57,0h.58c.08,0,.12,0,.12.08a3.32,3.32,0,0,1,0,.37,3.51,3.51,0,0,0,0,.37c0,.09,0,.21,0,.38v.37q0,.12-.15.12H50.94q-.09,0-.09.24v.38c0,.17,0,.3,0,.38a1.28,1.28,0,0,0,.1.62.62.62,0,0,0,.57.23,1.85,1.85,0,0,0,.39-.06,1.67,1.67,0,0,1,.35-.06C52.34,82.35,52.38,82.39,52.38,82.47Z" transform="translate(-4.5 -3.5)"/><path d="M58.11,81.4a2.73,2.73,0,0,1-.75,2,2.91,2.91,0,0,1-3.91,0,2.6,2.6,0,0,1-.76-1.94,2.82,2.82,0,0,1,.73-2,2.55,2.55,0,0,1,2-.78,2.68,2.68,0,0,1,2,.76A2.71,2.71,0,0,1,58.11,81.4Zm-1.76,0a1.2,1.2,0,0,0-.26-.75.85.85,0,0,0-.69-.33.86.86,0,0,0-.69.34,1.13,1.13,0,0,0-.26.74,1.11,1.11,0,0,0,.26.74.83.83,0,0,0,.69.34.87.87,0,0,0,.7-.34A1.11,1.11,0,0,0,56.35,81.4Z" transform="translate(-4.5 -3.5)"/><path d="M65.07,80.51l-.33-.09a2,2,0,0,0-.52-.09,1,1,0,0,0-1,1.06,1,1,0,0,0,.31.77,1.16,1.16,0,0,0,.81.29,1.43,1.43,0,0,0,.53-.12l.28-.13q.09,0,.24.69a5.53,5.53,0,0,1,.12.82c0,.14-.22.26-.67.35a3.82,3.82,0,0,1-.83.12,2.59,2.59,0,0,1-1.95-.8,2.93,2.93,0,0,1,0-4,2.59,2.59,0,0,1,1.95-.8,2.83,2.83,0,0,1,1.41.34c.09.05.14.1.14.15s-.06.25-.16.63-.17.58-.2.65S65.1,80.51,65.07,80.51Z" transform="translate(-4.5 -3.5)"/><path d="M68,80.81c0,1,0,1.73,0,2.25,0,.08,0,.22,0,.42s0,.33,0,.43S68,84,68,84a5.74,5.74,0,0,1-.87,0,4.6,4.6,0,0,1-.82,0,.18.18,0,0,1-.14-.14v-.23c0-.32,0-.8,0-1.44s0-1.11,0-1.42V78.75a16.84,16.84,0,0,0-.13-2,.31.31,0,0,1,0-.09c0-.08,0-.12.14-.12h1.91c.09,0,.13,0,.13.12v.09C68.09,78.25,68,79.62,68,80.81Z" transform="translate(-4.5 -3.5)"/><path d="M71,81.58c0,.26,0,.65,0,1.16s0,.91,0,1.17c0,.07,0,.12-.13.13a6.72,6.72,0,0,1-.82,0,6.81,6.81,0,0,1-.83,0c-.08,0-.13,0-.14-.07a.5.5,0,0,1,0-.16c0-.25,0-.62,0-1.11s0-.87,0-1.12A19.31,19.31,0,0,0,69,79.15.66.66,0,0,1,69,79c0-.08,0-.11.14-.11l.46,0,.47,0,.46,0,.47,0c.09,0,.13,0,.13.11a.58.58,0,0,1,0,.1A21.66,21.66,0,0,0,71,81.58Zm.14-4c0,.63-.35.94-1.05.94a1.16,1.16,0,0,1-.75-.24.89.89,0,0,1,0-1.38,1.12,1.12,0,0,1,.74-.25,1.07,1.07,0,0,1,.72.25A.85.85,0,0,1,71.15,77.58Z" transform="translate(-4.5 -3.5)"/><path d="M75.6,80.51l-.32-.09a2,2,0,0,0-.52-.09,1,1,0,0,0-.76.29,1,1,0,0,0-.29.77,1,1,0,0,0,.32.77,1.13,1.13,0,0,0,.81.29,1.47,1.47,0,0,0,.53-.12l.28-.13c.06,0,.14.23.23.69a4.76,4.76,0,0,1,.13.82c0,.14-.22.26-.67.35a3.82,3.82,0,0,1-.83.12,2.59,2.59,0,0,1-2-.8,2.93,2.93,0,0,1,0-4,2.57,2.57,0,0,1,2-.8,2.83,2.83,0,0,1,1.41.34c.09.05.13.1.13.15a5.11,5.11,0,0,1-.16.63c-.1.36-.16.58-.19.65S75.64,80.51,75.6,80.51Z" transform="translate(-4.5 -3.5)"/><path d="M82.59,80.53a2,2,0,0,1-1.16,1.81c-.08,0-.11.07-.11.11a3.45,3.45,0,0,0,.5.76c.33.45.5.68.5.7s-.48.15-1.43.15c-.36,0-.57,0-.63-.14s-.37-.59-.67-1a6.14,6.14,0,0,0-1-.08c0,.11,0,.29,0,.53v.54a.16.16,0,0,1-.15.18h-.85a5.72,5.72,0,0,1-.76,0c-.09,0-.14-.09-.14-.22V80.54c0-.44,0-1.09,0-2s-.05-1.54-.05-2c0-.09.05-.13.15-.14h.85l.52-.06a4.21,4.21,0,0,1,.52,0s.08,0,.08.15,0,.33,0,.56a5.59,5.59,0,0,0,0,.56c0,.77-.05,1.36-.05,1.78,0,.11,0,.16,0,.16a.66.66,0,0,0,.12-.12A2.54,2.54,0,0,1,82,79.14,1.65,1.65,0,0,1,82.59,80.53Zm-2.13.35c0-.43-.25-.65-.74-.65a1.27,1.27,0,0,0-.69.25.73.73,0,0,0-.4.57q0,.45.12.54a1.64,1.64,0,0,0,.62.07C80.1,81.66,80.46,81.4,80.46,80.88Z" transform="translate(-4.5 -3.5)"/><path class="cls-5" d="M60.26,31.25" transform="translate(-4.5 -3.5)"/><path class="cls-5" d="M38.77,31.25" transform="translate(-4.5 -3.5)"/><path class="cls-5" d="M60.26,39.92" transform="translate(-4.5 -3.5)"/><path class="cls-5" d="M38.77,39.92" transform="translate(-4.5 -3.5)"/><path class="cls-5" d="M60.26,48.08" transform="translate(-4.5 -3.5)"/><path class="cls-5" d="M38.77,48.08" transform="translate(-4.5 -3.5)"/><path class="cls-5" d="M60.26,56.24" transform="translate(-4.5 -3.5)"/><path class="cls-5" d="M38.77,56.24" transform="translate(-4.5 -3.5)"/><path d="M33.13,54.44A14.05,14.05,0,0,0,47.19,68.5h5.62A14.07,14.07,0,0,0,66.88,54.44V43.19H33.13ZM48.59,23.5h-1.4A14.06,14.06,0,0,0,33.13,37.56v2.82H48.59Zm4.22,0h-1.4V40.38H66.88V37.56A14.06,14.06,0,0,0,52.81,23.5Z" transform="translate(-4.5 -3.5)"/></g></svg>