<svg xmlns="http://www.w3.org/2000/svg" viewBox="0 0 91 92.5"><defs><style>.cls-1{fill:#fff;}.cls-2,.cls-4{fill:none;stroke-miterlimit:10;}.cls-2{stroke:#645da1;stroke-width:3px;}.cls-3{fill:#645da1;}.cls-4{stroke:#c3b39c;}</style></defs><g id="carte"><g id="fond_2_beige" data-name="fond 2 beige"><rect id="fond_1_blanc" data-name="fond 1 blanc" class="cls-1" x="2.5" y="2.5" width="86" height="87" rx="4.67"/></g><g id="angles"><rect id="contour" class="cls-2" x="1.5" y="1.5" width="88" height="89.5" rx="4.67"/><g id="coins"><path class="cls-3" d="M1.76,65H8A13,13,0,0,1,21,78V91a0,0,0,0,1,0,0H8.5A7.5,7.5,0,0,1,1,83.5V65.76A.76.76,0,0,1,1.76,65Z"/><path class="cls-3" d="M74.76,5H81A13,13,0,0,1,94,18V31a0,0,0,0,1,0,0H81.5A7.5,7.5,0,0,1,74,23.5V5.76A.76.76,0,0,1,74.76,5Z" transform="translate(163.5 32.5) rotate(180)"/></g><g id="symboles_angles" data-name="symboles angles"><path class="cls-1" d="M15,77.5a2.25,2.25,0,1,0-2.29-2.25A2.27,2.27,0,0,0,15,77.5Zm1.59.56h-.3a3.13,3.13,0,0,1-1.3.28,3.16,3.16,0,0,1-1.3-.28h-.3A2.38,2.38,0,0,0,11,80.42v.74a.85.85,0,0,0,.86.84h6.28a.85.85,0,0,0,.86-.84v-.74A2.38,2.38,0,0,0,16.6,78.06Z" transform="translate(-4.5 -3.5)"/><path class="cls-1" d="M11.9,88.12l2-2.64a2.55,2.55,0,0,0,.27-.48,1.29,1.29,0,0,0,.09-.45h0A.72.72,0,0,0,14,84a.8.8,0,0,0-.56-.18.82.82,0,0,0-.57.2,1,1,0,0,0-.26.58h-.82a2.09,2.09,0,0,1,.28-.83,1.57,1.57,0,0,1,.56-.53,1.71,1.71,0,0,1,.8-.18,2,2,0,0,1,.86.17,1.24,1.24,0,0,1,.55.51,1.55,1.55,0,0,1,.19.8h0a1.65,1.65,0,0,1-.13.63,2.64,2.64,0,0,1-.34.64L13,88.05H15.1v.76H11.9Z" transform="translate(-4.5 -3.5)"/><path class="cls-1" d="M19.25,85.81v.76H16.08v-.76Zm-1.19,2h-.8V84.6h.8Z" transform="translate(-4.5 -3.5)"/></g></g><g id="symboles"><line class="cls-4" x1="5" y1="5.5" x2="5" y2="63.5"/><line class="cls-4" x1="86" y1="29.5" x2="86" y2="87.5"/><line class="cls-4" x1="8.5" y1="5" x2="66.5" y2="5"/><line class="cls-4" x1="24.5" y1="87" x2="82.5" y2="87"/></g></g><g id="Tour"><path d="M50,41.6h6V50H50Zm.6,7.26,2-3.06-2-3.06ZM55,42.2H51l2,3.06Zm0,7.2-2-3.06L51,49.4Zm.36-.54V42.74l-2,3.06Z" transform="translate(-4.5 -3.5)"/><ellipse class="cls-1" cx="42.75" cy="37.25" rx="18.05" ry="17.67"/></g><g id="titre"><path d="M51.46,75.83a.44.44,0,0,1-.11.22,3.26,3.26,0,0,1-2.63,1.18A3.49,3.49,0,0,1,46,76.08a4,4,0,0,1-1-2.79,4.07,4.07,0,0,1,1-2.77,3.35,3.35,0,0,1,2.64-1.19,3.51,3.51,0,0,1,2.73,1.07.36.36,0,0,1,.11.21,3.58,3.58,0,0,1-.38.75,3.9,3.9,0,0,1-.47.74.14.14,0,0,1-.11,0,2,2,0,0,1-.26-.21,3,3,0,0,0-.57-.4,1.88,1.88,0,0,0-.88-.22,1.56,1.56,0,0,0-1.27.59,2.37,2.37,0,0,0,0,2.72,1.52,1.52,0,0,0,1.27.61,1.93,1.93,0,0,0,.88-.21,2.84,2.84,0,0,0,.56-.37,2,2,0,0,1,.26-.21.15.15,0,0,1,.11.06c.06.06.21.29.47.67A3.92,3.92,0,0,1,51.46,75.83Z" transform="translate(-4.5 -3.5)"/><path d="M57.17,74.4a2.73,2.73,0,0,1-.75,2,2.68,2.68,0,0,1-2,.76,2.65,2.65,0,0,1-1.94-.75,2.61,2.61,0,0,1-.77-1.94,2.86,2.86,0,0,1,.73-2,2.59,2.59,0,0,1,2-.78,2.68,2.68,0,0,1,2,.76A2.71,2.71,0,0,1,57.17,74.4Zm-1.76,0a1.15,1.15,0,0,0-.27-.75.82.82,0,0,0-.68-.33.9.9,0,0,0-.7.34,1.12,1.12,0,0,0-.25.74,1.11,1.11,0,0,0,.25.74.89.89,0,0,0,1.4,0A1.16,1.16,0,0,0,55.41,74.4Z" transform="translate(-4.5 -3.5)"/><path d="M59.78,73.81c0,1,0,1.73,0,2.25,0,.08,0,.22,0,.42s0,.33,0,.43,0,.12-.14.13a5.74,5.74,0,0,1-.87,0A4.6,4.6,0,0,1,58,77a.16.16,0,0,1-.13-.14v-.23c0-.32,0-.8,0-1.44s0-1.11,0-1.42V71.75a16.84,16.84,0,0,0-.13-2,.31.31,0,0,1,0-.09c0-.08,0-.12.14-.12H59.8q.14,0,.12.12v.09C59.82,71.25,59.78,72.62,59.78,73.81Z" transform="translate(-4.5 -3.5)"/><path d="M65.92,74.4a2.73,2.73,0,0,1-.75,2,2.64,2.64,0,0,1-2,.76,2.67,2.67,0,0,1-2-.75,2.6,2.6,0,0,1-.76-1.94,2.82,2.82,0,0,1,.73-2,2.59,2.59,0,0,1,2-.78,2.65,2.65,0,0,1,2,.76A2.71,2.71,0,0,1,65.92,74.4Zm-1.76,0a1.14,1.14,0,0,0-.26-.75.83.83,0,0,0-.68-.33.87.87,0,0,0-.7.34,1.13,1.13,0,0,0-.26.74,1.11,1.11,0,0,0,.26.74.88.88,0,0,0,1.39,0A1.11,1.11,0,0,0,64.16,74.4Z" transform="translate(-4.5 -3.5)"/><path d="M70.13,73.7c0,.13-.07.2-.23.2h-.59a.89.89,0,0,0-.6.14.72.72,0,0,0-.17.56c0,.16,0,.39,0,.7s0,.55,0,.7,0,.26,0,.47a4.4,4.4,0,0,1,0,.46c0,.08-.06.13-.17.14s-.44,0-.79,0-.61,0-.82,0-.18-.07-.18-.18c0-.28,0-.71,0-1.28V74.29a7.61,7.61,0,0,0-.23-2.08s0-.06,0-.08a.12.12,0,0,1,.08-.11l.87-.11c.56-.12.86-.17.87-.17s.11.11.13.34,0,.34.09.34.1-.1.44-.29a2.2,2.2,0,0,1,1-.28c.2,0,.3.05.3.13s0,.25,0,.44a3.28,3.28,0,0,0,0,.44v.42C70.13,73.49,70.13,73.63,70.13,73.7Z" transform="translate(-4.5 -3.5)"/><path d="M46.22,85.84c0,.13-.06.2-.16.21a7.05,7.05,0,0,1-.8,0,6.18,6.18,0,0,1-.81,0c-.11,0-.17-.11-.17-.26s0-.41,0-.74,0-.57,0-.74c0-.63,0-1.07,0-1.34s-.23-.64-.61-.64a.73.73,0,0,0-.5.22.69.69,0,0,0-.28.47c0,.15,0,.59,0,1.32,0,.17,0,.42,0,.76s0,.6,0,.77-.05.18-.16.18H41.14C41,86,41,86,41,85.82s0-.42,0-.76,0-.59,0-.76,0-.33,0-.6,0-.47,0-.61c0-.51-.2-.77-.59-.77a.87.87,0,0,0-.51.19.53.53,0,0,0-.3.42c0,.32,0,.81,0,1.46v1.45a.29.29,0,0,1,0,.17.37.37,0,0,1-.17,0,7.45,7.45,0,0,1-.76,0l-.77,0a.3.3,0,0,1-.15,0s0-.07,0-.16V84.56c0-.58,0-1,0-1.29a18.53,18.53,0,0,0-.13-2,.46.46,0,0,1,0-.1.11.11,0,0,1,.07-.12A1.93,1.93,0,0,1,38.1,81l.48,0,.42-.11a1.67,1.67,0,0,1,.42-.08c.07,0,.11.13.11.37s0,.38,0,.38l.13-.08a4.51,4.51,0,0,1,.76-.51,2,2,0,0,1,.9-.2,1.72,1.72,0,0,1,.88.22,1.09,1.09,0,0,1,.56.69,2.25,2.25,0,0,1,.79-.65,2,2,0,0,1,1-.26,1.87,1.87,0,0,1,1.15.33,1.2,1.2,0,0,1,.51,1c0,.19,0,.48,0,.86s0,.67,0,.86,0,.56,0,1S46.22,85.62,46.22,85.84Z" transform="translate(-4.5 -3.5)"/><path d="M52.16,83.12c0,.37-.12.57-.35.62l-1.11.12c-.42,0-1.05.1-1.89.17a.76.76,0,0,0,.45.53,1.64,1.64,0,0,0,.71.15,2,2,0,0,0,1-.26l.41-.26a1.63,1.63,0,0,1,.38.55,2,2,0,0,1,.27.63.26.26,0,0,1-.08.12,2.67,2.67,0,0,1-2,.71,2.85,2.85,0,0,1-2.06-.75,2.63,2.63,0,0,1-.81-2,2.9,2.9,0,0,1,.72-2,2.56,2.56,0,0,1,2-.82,2.3,2.3,0,0,1,1.75.76A2.48,2.48,0,0,1,52.16,83.12Zm-1.88-.32a.84.84,0,0,0-.24-.59.73.73,0,0,0-.56-.25.67.67,0,0,0-.56.28,1,1,0,0,0-.2.62.13.13,0,0,0,.15.15,10.26,10.26,0,0,0,1.23-.13C50.22,82.87,50.28,82.84,50.28,82.8Z" transform="translate(-4.5 -3.5)"/><path d="M61.33,85.84c0,.13,0,.2-.16.21a6.84,6.84,0,0,1-.79,0,6.38,6.38,0,0,1-.82,0c-.11,0-.16-.11-.16-.26s0-.41,0-.74,0-.57,0-.74c0-.63,0-1.07,0-1.34s-.22-.64-.61-.64a.75.75,0,0,0-.5.22A.69.69,0,0,0,58,83c0,.15,0,.59,0,1.32,0,.17,0,.42,0,.76s0,.6,0,.77S58,86,57.88,86H56.25c-.1,0-.15-.07-.15-.22s0-.42,0-.76,0-.59,0-.76,0-.33,0-.6,0-.47,0-.61c0-.51-.19-.77-.58-.77a.87.87,0,0,0-.51.19c-.2.13-.31.27-.31.42,0,.32,0,.81,0,1.46s0,1.13,0,1.45a.27.27,0,0,1,0,.17.32.32,0,0,1-.16,0,7.67,7.67,0,0,1-.77,0L53,86a.32.32,0,0,1-.16,0,.38.38,0,0,1,0-.16V84.56c0-.58,0-1,0-1.29a16.24,16.24,0,0,0-.13-2,.46.46,0,0,1,0-.1.11.11,0,0,1,.08-.12,1.72,1.72,0,0,1,.44-.08l.48,0,.42-.11a1.73,1.73,0,0,1,.43-.08c.07,0,.1.13.11.37s0,.38,0,.38a.62.62,0,0,0,.12-.08,5,5,0,0,1,.76-.51,2,2,0,0,1,.9-.2,1.72,1.72,0,0,1,.88.22,1.14,1.14,0,0,1,.57.69A2.3,2.3,0,0,1,58.7,81a2,2,0,0,1,1-.26,1.9,1.9,0,0,1,1.16.33,1.22,1.22,0,0,1,.5,1c0,.19,0,.48,0,.86s0,.67,0,.86,0,.56,0,1S61.33,85.62,61.33,85.84Z" transform="translate(-4.5 -3.5)"/><path d="M67.52,83.4a2.73,2.73,0,0,1-.75,2,2.91,2.91,0,0,1-3.91,0,2.6,2.6,0,0,1-.76-1.94,2.82,2.82,0,0,1,.73-2,2.55,2.55,0,0,1,2-.78,2.68,2.68,0,0,1,2,.76A2.71,2.71,0,0,1,67.52,83.4Zm-1.76,0a1.2,1.2,0,0,0-.26-.75.85.85,0,0,0-.69-.33.86.86,0,0,0-.69.34,1.08,1.08,0,0,0-.26.74,1.06,1.06,0,0,0,.26.74.83.83,0,0,0,.69.34.87.87,0,0,0,.7-.34A1.16,1.16,0,0,0,65.76,83.4Z" transform="translate(-4.5 -3.5)"/><path d="M71.73,82.7c0,.13-.08.2-.23.2h-.59a.93.93,0,0,0-.61.14.72.72,0,0,0-.16.56c0,.16,0,.39,0,.7s0,.55,0,.7a4.57,4.57,0,0,0,0,.47c0,.2,0,.36,0,.46s-.06.13-.18.14-.43,0-.79,0-.61,0-.81,0-.18-.07-.18-.18V84.58c0-.57,0-1,0-1.29A8,8,0,0,0,68,81.21a.25.25,0,0,1,0-.08.12.12,0,0,1,.08-.11l.86-.11.88-.17c.06,0,.1.11.12.34s0,.34.1.34.1-.1.44-.29a2.16,2.16,0,0,1,1-.28c.2,0,.3.05.3.13s0,.25,0,.44,0,.35,0,.44,0,.24,0,.42S71.73,82.63,71.73,82.7Z" transform="translate(-4.5 -3.5)"/><path d="M77.63,82.21a7.34,7.34,0,0,1-.06,1.27,15.09,15.09,0,0,1-1.18,1.94c-.11.18-.41.58-.88,1.22a9.61,9.61,0,0,1-.9,1.11,7.23,7.23,0,0,1-1.65.08.58.58,0,0,1-.31,0l-.18-.52-.17-.38a1.29,1.29,0,0,1-.12-.37c0-.07,0-.1.09-.1,1,0,1.49-.23,1.49-.69A9.38,9.38,0,0,0,73,84.66a6.66,6.66,0,0,1-.83-1.32,6.6,6.6,0,0,1,0-1.11c0-.13,0-.32,0-.58s0-.45,0-.58.06-.14.17-.14h.83c.37,0,.65,0,.83,0s.12.06.12.17,0,.25,0,.45,0,.35,0,.45a8.93,8.93,0,0,0,0,.92,2,2,0,0,0,.32.7c.21.36.37.53.46.53s.23-.17.42-.52a2.57,2.57,0,0,0,.3-.68,8.1,8.1,0,0,0,0-1c0-.1,0-.24,0-.44s0-.35,0-.45,0-.1.11-.1l.82,0c.36,0,.64,0,.82,0a.18.18,0,0,1,.19.14A5.21,5.21,0,0,1,77.63,82.21Z" transform="translate(-4.5 -3.5)"/><path d="M72,41.37c0,.16-.08.24-.08.32C72,44.9,69.05,47,65.84,47H57.23A4.29,4.29,0,0,0,53,51.3a4.94,4.94,0,0,0,.08.87,16.21,16.21,0,0,0,1,2.63,9.39,9.39,0,0,1,1.06,3.69c0,2.8-1.89,5.33-4.69,5.45H49.5A22.5,22.5,0,1,1,72,41.45Zm-36.56,0a2.86,2.86,0,0,0-2.81,2.81,2.81,2.81,0,0,0,5.62,0A2.85,2.85,0,0,0,35.44,41.34Zm2.81-5.63a2.76,2.76,0,0,0,2.81-2.81,2.81,2.81,0,0,0-5.62,0A2.76,2.76,0,0,0,38.25,35.71ZM49.5,24.46a2.87,2.87,0,0,0-2.81,2.81,2.81,2.81,0,1,0,5.62,0A2.86,2.86,0,0,0,49.5,24.46ZM60.75,35.71a2.76,2.76,0,0,0,2.81-2.81,2.81,2.81,0,0,0-5.62,0A2.76,2.76,0,0,0,60.75,35.71Z" transform="translate(-4.5 -3.5)"/></g></svg>