<svg xmlns="http://www.w3.org/2000/svg" viewBox="0 0 91 92.5"><defs><style>.cls-1{fill:#fff;}.cls-2,.cls-4{fill:none;stroke-miterlimit:10;}.cls-2{stroke:#645da1;stroke-width:3px;}.cls-3{fill:#645da1;}.cls-4{stroke:#c3b39c;}</style></defs><g id="carte"><g id="fond_2_beige" data-name="fond 2 beige"><rect id="fond_1_blanc" data-name="fond 1 blanc" class="cls-1" x="2.5" y="2.5" width="86" height="87" rx="4.67"/></g><g id="angles"><rect id="contour" class="cls-2" x="1.5" y="1.5" width="88" height="89.5" rx="4.67"/><g id="coins"><path class="cls-3" d="M1.76,65H8A13,13,0,0,1,21,78V91a0,0,0,0,1,0,0H8.5A7.5,7.5,0,0,1,1,83.5V65.76A.76.76,0,0,1,1.76,65Z"/><path class="cls-3" d="M74.76,5H81A13,13,0,0,1,94,18V31a0,0,0,0,1,0,0H81.5A7.5,7.5,0,0,1,74,23.5V5.76A.76.76,0,0,1,74.76,5Z" transform="translate(163.5 32.5) rotate(180)"/></g><g id="symboles_angles" data-name="symboles angles"><path class="cls-1" d="M15,77.5a2.25,2.25,0,1,0-2.29-2.25A2.27,2.27,0,0,0,15,77.5Zm1.59.56h-.3a3.13,3.13,0,0,1-1.3.28,3.16,3.16,0,0,1-1.3-.28h-.3A2.38,2.38,0,0,0,11,80.42v.74a.85.85,0,0,0,.86.84h6.28a.85.85,0,0,0,.86-.84v-.74A2.38,2.38,0,0,0,16.6,78.06Z" transform="translate(-4.5 -3.5)"/><path class="cls-1" d="M11.9,88.12l2-2.64a2.55,2.55,0,0,0,.27-.48,1.29,1.29,0,0,0,.09-.45h0A.72.72,0,0,0,14,84a.8.8,0,0,0-.56-.18.82.82,0,0,0-.57.2,1,1,0,0,0-.26.58h-.82a2.09,2.09,0,0,1,.28-.83,1.57,1.57,0,0,1,.56-.53,1.71,1.71,0,0,1,.8-.18,2,2,0,0,1,.86.17,1.24,1.24,0,0,1,.55.51,1.55,1.55,0,0,1,.19.8h0a1.65,1.65,0,0,1-.13.63,2.64,2.64,0,0,1-.34.64L13,88.05H15.1v.76H11.9Z" transform="translate(-4.5 -3.5)"/><path class="cls-1" d="M19.25,85.81v.76H16.08v-.76Zm-1.19,2h-.8V84.6h.8Z" transform="translate(-4.5 -3.5)"/></g></g><g id="symboles"><line class="cls-4" x1="5" y1="5.5" x2="5" y2="63.5"/><line class="cls-4" x1="86" y1="29.5" x2="86" y2="87.5"/><line class="cls-4" x1="8.5" y1="5" x2="66.5" y2="5"/><line class="cls-4" x1="24.5" y1="87" x2="82.5" y2="87"/></g></g><g id="Tour"><polyline id="base" points="31.5 67.5 64.5 67.5 63.06 44.7 60.2 44.7 60.2 32.7 57.33 32.7 57.33 19.5 38.67 19.5 38.67 32.7 35.8 32.7 35.8 43.5 32.94 43.5 31.5 67.5"/><g id="sommet"><polygon points="39.2 17.77 39.2 17.77 56.5 15.5 55.53 8.1 51.54 8.62 51.93 11.58 49.27 11.93 48.88 8.97 44.88 9.49 45.27 12.45 42.61 12.8 42.22 9.84 38.23 10.37 39.2 17.77"/></g></g><g id="titre"><path d="M35.5,84.13l-1.21,0-1.2,0-1.61,0a6,6,0,0,1-.69,0c-.1,0-.15-.07-.15-.16,0-.4,0-1,0-1.76s0-1.36,0-1.75,0-1,0-1.87,0-1.45,0-1.87c0-.07,0-.11.16-.11h.48l.47,0,.53,0,.53,0s.08,0,.07.1v.07c-.05.68-.09,1.69-.15,3v2.42a.57.57,0,0,1,0,.13.1.1,0,0,0,.08.08h.14c.33,0,.81,0,1.45,0s1.13,0,1.45,0c.1,0,.14,0,.14.12A8.23,8.23,0,0,1,35.83,84a.2.2,0,0,1-.11.16Z" transform="translate(-4.5 -3.5)"/><path d="M38.65,77.83a3.08,3.08,0,0,1-.33,1.3,3.82,3.82,0,0,1-.79,1.09.31.31,0,0,1-.17.11s-.07,0-.11-.08L36.91,80c-.18-.16-.26-.24-.26-.26s.09-.09.27-.37a1.59,1.59,0,0,0,.27-.87,1.16,1.16,0,0,0-.4-.77,5.3,5.3,0,0,1-.4-.44q0-.09.27-.3l.36-.27.32-.3a1.51,1.51,0,0,1,.32-.26.36.36,0,0,1,.15.08A2,2,0,0,1,38.65,77.83Z" transform="translate(-4.5 -3.5)"/><path d="M44.5,81.12c0,.37-.11.57-.35.62L43,81.86c-.42,0-1,.1-1.89.17a.75.75,0,0,0,.46.53,1.61,1.61,0,0,0,.71.15,2,2,0,0,0,1-.26l.41-.26a1.79,1.79,0,0,1,.38.55,2.14,2.14,0,0,1,.26.63.26.26,0,0,1-.08.12,2.65,2.65,0,0,1-2,.71,2.88,2.88,0,0,1-2.07-.75,2.66,2.66,0,0,1-.8-2,2.9,2.9,0,0,1,.72-2,2.53,2.53,0,0,1,2-.82,2.3,2.3,0,0,1,1.75.76A2.48,2.48,0,0,1,44.5,81.12Zm-1.88-.32a.88.88,0,0,0-.23-.59.75.75,0,0,0-.57-.25.69.69,0,0,0-.56.28,1,1,0,0,0-.2.62.13.13,0,0,0,.15.15,10.18,10.18,0,0,0,1.24-.13C42.56,80.87,42.62,80.84,42.62,80.8Z" transform="translate(-4.5 -3.5)"/><path d="M53.68,83.84c0,.13-.06.2-.16.21a7.05,7.05,0,0,1-.8,0,6.38,6.38,0,0,1-.82,0c-.1,0-.16-.11-.16-.26s0-.41,0-.74,0-.57,0-.74c0-.63,0-1.07,0-1.34s-.22-.64-.6-.64a.73.73,0,0,0-.5.22.69.69,0,0,0-.28.47c0,.15,0,.59,0,1.32,0,.17,0,.42,0,.76s0,.6,0,.77-.05.18-.16.18H48.6c-.1,0-.15-.07-.15-.22s0-.42,0-.76,0-.59,0-.76,0-.33,0-.6,0-.47,0-.61c0-.51-.2-.77-.59-.77a.87.87,0,0,0-.51.19.53.53,0,0,0-.3.42c0,.32,0,.81,0,1.46v1.45A.29.29,0,0,1,47,84a.37.37,0,0,1-.17,0,7.45,7.45,0,0,1-.76,0l-.77,0c-.08,0-.14,0-.15,0s0-.07,0-.16c0-.28,0-.71,0-1.28V81.27a18.33,18.33,0,0,0-.12-2,.46.46,0,0,1,0-.1.11.11,0,0,1,.07-.12,1.93,1.93,0,0,1,.45-.08l.47,0,.43-.11a1.67,1.67,0,0,1,.42-.08c.07,0,.11.13.11.37s0,.38,0,.38l.13-.08a4.51,4.51,0,0,1,.76-.51,2,2,0,0,1,.9-.2,1.72,1.72,0,0,1,.88.22,1.09,1.09,0,0,1,.56.69A2.3,2.3,0,0,1,51,79a2.06,2.06,0,0,1,1-.26,1.87,1.87,0,0,1,1.15.33,1.2,1.2,0,0,1,.51,1c0,.19,0,.48,0,.86s0,.67,0,.86,0,.56,0,1S53.68,83.62,53.68,83.84Z" transform="translate(-4.5 -3.5)"/><path d="M60.62,81.46a2.74,2.74,0,0,1-.67,1.9,2.33,2.33,0,0,1-1.84.79,2.17,2.17,0,0,1-.88-.21,1.66,1.66,0,0,1-.43-.2s-.07.05-.07.16,0,.46,0,.83,0,.64,0,.82-.06.17-.18.17H55.51a2.29,2.29,0,0,1-.48,0,.18.18,0,0,1-.16-.2V81.37a9.68,9.68,0,0,0-.19-2.11s0-.07,0-.1a.09.09,0,0,1,.07-.1,4.49,4.49,0,0,1,.8-.18,6.05,6.05,0,0,1,.83-.09c.14,0,.22.1.24.28s0,.28.07.28.12-.1.46-.3a2,2,0,0,1,.93-.29,2.42,2.42,0,0,1,1.87.77A2.75,2.75,0,0,1,60.62,81.46Zm-2,0a1.16,1.16,0,0,0-.26-.75.88.88,0,0,0-.71-.34.8.8,0,0,0-.68.34,1.22,1.22,0,0,0-.23.75,1.16,1.16,0,0,0,.24.75.81.81,0,0,0,.69.33C58.31,82.53,58.63,82.17,58.63,81.45Z" transform="translate(-4.5 -3.5)"/><path d="M63.31,81.58c0,.26,0,.65,0,1.16s0,.91,0,1.17a.13.13,0,0,1-.13.13,6.92,6.92,0,0,1-.83,0,6.6,6.6,0,0,1-.82,0,.21.21,0,0,1-.15-.07.5.5,0,0,1,0-.16c0-.25,0-.62,0-1.11s0-.87,0-1.12a19.31,19.31,0,0,0-.12-2.43.8.8,0,0,0,0-.11c0-.08.05-.11.15-.11l.46,0,.46,0,.47,0,.47,0c.08,0,.13,0,.13.11a.58.58,0,0,0,0,.1A21.66,21.66,0,0,0,63.31,81.58Zm.14-4c0,.63-.35.94-1.06.94a1.12,1.12,0,0,1-.74-.24.82.82,0,0,1-.32-.7.85.85,0,0,1,.33-.68,1.19,1.19,0,0,1,1.46,0A.85.85,0,0,1,63.45,77.58Z" transform="translate(-4.5 -3.5)"/><path d="M66.3,80.81c0,1,0,1.73,0,2.25a3.94,3.94,0,0,0,0,.42c0,.19,0,.33,0,.43s0,.12-.13.13a5.74,5.74,0,0,1-.87,0,4.53,4.53,0,0,1-.82,0,.17.17,0,0,1-.14-.14v-.23c0-.32,0-.8,0-1.44s0-1.11,0-1.42c0-1.51,0-2.19,0-2.06a16.65,16.65,0,0,0-.14-2s0-.07,0-.09,0-.12.14-.12h1.92q.14,0,.12.12v.09C66.34,78.25,66.3,79.62,66.3,80.81Z" transform="translate(-4.5 -3.5)"/><path d="M72.2,81.12c0,.37-.12.57-.35.62l-1.11.12c-.42,0-1,.1-1.89.17a.75.75,0,0,0,.46.53,1.57,1.57,0,0,0,.7.15,2.11,2.11,0,0,0,1-.26l.4-.26a1.49,1.49,0,0,1,.38.55,2,2,0,0,1,.27.63.26.26,0,0,1-.08.12,2.67,2.67,0,0,1-2,.71,2.85,2.85,0,0,1-2.06-.75,2.63,2.63,0,0,1-.81-2,2.9,2.9,0,0,1,.72-2,2.56,2.56,0,0,1,2-.82,2.3,2.3,0,0,1,1.75.76A2.48,2.48,0,0,1,72.2,81.12Zm-1.88-.32a.84.84,0,0,0-.24-.59.72.72,0,0,0-.56-.25.67.67,0,0,0-.56.28,1,1,0,0,0-.2.62.13.13,0,0,0,.15.15,10.26,10.26,0,0,0,1.23-.13C70.26,80.87,70.32,80.84,70.32,80.8Z" transform="translate(-4.5 -3.5)"/><path d="M78.32,79.16c0,.26,0,.66,0,1.19s0,.93,0,1.19,0,.65,0,1.16,0,.9,0,1.16a.17.17,0,0,1-.14.18,4,4,0,0,1-.86,0,7.56,7.56,0,0,1-.82,0,.15.15,0,0,1-.13-.13l0-.32c0-.16,0-.25-.07-.25s-.14.13-.55.37a2.25,2.25,0,0,1-1.12.36,1.52,1.52,0,0,1-1.69-1.28,9.55,9.55,0,0,1-.11-1.73A7.62,7.62,0,0,1,73,79.15c0-.15.12-.22.22-.22H74.7c.11,0,.16,0,.16.14a.54.54,0,0,1,0,.11,10.42,10.42,0,0,0-.11,1.48A8.83,8.83,0,0,0,74.8,82a.63.63,0,0,0,.7.59.9.9,0,0,0,.52-.21.58.58,0,0,0,.28-.43c0-.13,0-1,0-2.7,0-.12,0-.19,0-.21s.09,0,.2,0h1.58c.11,0,.17,0,.19.08S78.32,79.1,78.32,79.16Z" transform="translate(-4.5 -3.5)"/><path d="M82.77,80.7c0,.13-.08.2-.23.2h-.6a.89.89,0,0,0-.6.14.72.72,0,0,0-.16.56v.7c0,.32,0,.55,0,.7s0,.26,0,.47a4.4,4.4,0,0,1,0,.46c0,.08,0,.13-.17.14s-.44,0-.79,0-.61,0-.82,0-.18-.07-.18-.18c0-.28,0-.71,0-1.28s0-1,0-1.29a7.57,7.57,0,0,0-.24-2.08s0-.06,0-.08a.12.12,0,0,1,.08-.11l.87-.11c.56-.12.86-.17.87-.17s.11.11.13.34.05.34.09.34.1-.1.45-.29a2.13,2.13,0,0,1,1-.28c.2,0,.3.05.3.13s0,.25,0,.44,0,.35,0,.44v.42C82.76,80.49,82.77,80.63,82.77,80.7Z" transform="translate(-4.5 -3.5)"/></g></svg>