<svg xmlns="http://www.w3.org/2000/svg" viewBox="0 0 91 92.5"><defs><style>.cls-1{fill:#fff;}.cls-2,.cls-4{fill:none;stroke-miterlimit:10;}.cls-2{stroke:#ff5156;stroke-width:3px;}.cls-3{fill:#ff5156;}.cls-4{stroke:#c3b39c;}</style></defs><g id="carte"><g id="fond_2_beige" data-name="fond 2 beige"><rect id="fond_1_blanc" data-name="fond 1 blanc" class="cls-1" x="2.5" y="2.5" width="86" height="87" rx="4.67"/></g><g id="angles"><rect id="contour" class="cls-2" x="1.5" y="1.5" width="88" height="89.5" rx="4.67"/><g id="coins"><path class="cls-3" d="M1.76,65H8A13,13,0,0,1,21,78V91a0,0,0,0,1,0,0H8.5A7.5,7.5,0,0,1,1,83.5V65.76A.76.76,0,0,1,1.76,65Z"/><path class="cls-3" d="M74.76,5H81A13,13,0,0,1,94,18V31a0,0,0,0,1,0,0H81.5A7.5,7.5,0,0,1,74,23.5V5.76A.76.76,0,0,1,74.76,5Z" transform="translate(163.5 32.5) rotate(180)"/></g><g id="symboles_angles" data-name="symboles angles"><path class="cls-1" d="M15,77.5a2.25,2.25,0,1,0-2.29-2.25A2.27,2.27,0,0,0,15,77.5Zm1.59.56h-.3a3.13,3.13,0,0,1-1.3.28,3.16,3.16,0,0,1-1.3-.28h-.3A2.38,2.38,0,0,0,11,80.42v.74a.85.85,0,0,0,.86.84h6.28a.85.85,0,0,0,.86-.84v-.74A2.38,2.38,0,0,0,16.6,78.06Z" transform="translate(-4.5 -3.5)"/><path class="cls-1" d="M11.9,88.12l2-2.64a2.55,2.55,0,0,0,.27-.48,1.29,1.29,0,0,0,.09-.45h0A.72.72,0,0,0,14,84a.8.8,0,0,0-.56-.18.82.82,0,0,0-.57.2,1,1,0,0,0-.26.58h-.82a2.09,2.09,0,0,1,.28-.83,1.57,1.57,0,0,1,.56-.53,1.71,1.71,0,0,1,.8-.18,2,2,0,0,1,.86.17,1.24,1.24,0,0,1,.55.51,1.55,1.55,0,0,1,.19.8h0a1.65,1.65,0,0,1-.13.63,2.64,2.64,0,0,1-.34.64L13,88.05H15.1v.76H11.9Z" transform="translate(-4.5 -3.5)"/><path class="cls-1" d="M19.25,85.81v.76H16.08v-.76Zm-1.19,2h-.8V84.6h.8Z" transform="translate(-4.5 -3.5)"/></g></g><g id="symboles"><line class="cls-4" x1="5" y1="5.5" x2="5" y2="63.5"/><line class="cls-4" x1="86" y1="29.5" x2="86" y2="87.5"/><line class="cls-4" x1="8.5" y1="5" x2="66.5" y2="5"/><line class="cls-4" x1="24.5" y1="87" x2="82.5" y2="87"/></g></g><g id="Tour"><path d="M50,41.6h6V50H50Zm.6,7.26,2-3.06-2-3.06ZM55,42.2H51l2,3.06Zm0,7.2-2-3.06L51,49.4Zm.36-.54V42.74l-2,3.06Z" transform="translate(-4.5 -3.5)"/><ellipse class="cls-1" cx="42.75" cy="37.25" rx="18.05" ry="17.67"/></g><g id="titre"><path d="M35,75.37a7.14,7.14,0,0,1-.09.85,3.38,3.38,0,0,1-.18.8.19.19,0,0,1-.17.1h-.16c-.27,0-1-.06-2.29-.06H29.61c-.11,0-.17-.05-.17-.16q0-.6.06-1.8c.05-.81.07-1.41.07-1.81s0-1.17-.06-2.28q0-.43-.06-1.29v-.07c0-.08,0-.12.14-.12.26,0,.66,0,1.19,0l1.2,0,1.18,0c.52,0,.92,0,1.18,0s.29.07.32.2a7.11,7.11,0,0,1,.08.75c0,.42.06.67.06.76s0,.12-.11.12h-.11c-1-.08-1.81-.12-2.57-.12-.19,0-.3.05-.35.14a2.57,2.57,0,0,0,0,.41.76.76,0,0,0,.1.48.47.47,0,0,0,.35.11h.47c.45,0,.91,0,1.37,0l.3,0,.29,0a.12.12,0,0,1,.13.13,5.37,5.37,0,0,0-.1.82,8.25,8.25,0,0,0,0,.86c0,.07-.06.11-.16.11l-.48-.06c-.21,0-.67,0-1.4,0h-.57c-.15,0-.23,0-.26.11v.33a1.85,1.85,0,0,0,.05.53q.09.19.69.24h.78c.19,0,.47,0,.85,0a7.87,7.87,0,0,1,.84,0C34.92,75.18,35,75.24,35,75.37Z" transform="translate(-4.5 -3.5)"/><path d="M38.78,72.7a.29.29,0,0,1-.08.14,1.54,1.54,0,0,0-.3,0,1,1,0,0,0-.54.14.51.51,0,0,0-.25.46.84.84,0,0,0,.27.48,4.62,4.62,0,0,1,.51.58,1.59,1.59,0,0,1,.27.88,1.81,1.81,0,0,1-.1.58,1.16,1.16,0,0,1-.32.49,3.69,3.69,0,0,1-.92.58,2.66,2.66,0,0,1-1.06.25c-.07,0-.23-.19-.48-.58A2.55,2.55,0,0,1,35.4,76a.05.05,0,0,1,.06-.06l.76-.14c.31-.1.47-.27.47-.5a.86.86,0,0,0-.27-.54l-.51-.58a1.42,1.42,0,0,1-.28-.82,1.67,1.67,0,0,1,.82-1.37,2.75,2.75,0,0,1,1.56-.5c.06,0,.2.2.43.58A3.09,3.09,0,0,1,38.78,72.7Z" transform="translate(-4.5 -3.5)"/><path d="M43.11,73.51l-.33-.09a2,2,0,0,0-.52-.09,1,1,0,0,0-.76.29,1,1,0,0,0-.29.77,1,1,0,0,0,.32.77,1.13,1.13,0,0,0,.81.29,1.43,1.43,0,0,0,.53-.12l.28-.13c.06,0,.14.23.23.69a4.76,4.76,0,0,1,.13.82c0,.14-.22.26-.67.35a3.82,3.82,0,0,1-.83.12,2.59,2.59,0,0,1-1.95-.8,2.93,2.93,0,0,1,0-4,2.59,2.59,0,0,1,1.95-.8,2.83,2.83,0,0,1,1.41.34c.09.05.14.1.14.15s-.06.25-.16.63-.17.58-.2.65S43.14,73.51,43.11,73.51Z" transform="translate(-4.5 -3.5)"/><path d="M49.52,74.36c0,.27,0,.68,0,1.23s0,1,0,1.22-.06.22-.19.23c-.44,0-1,0-1.52,0-.07,0-.12-.1-.14-.31s-.05-.31-.08-.31a.36.36,0,0,0-.12.09,1.8,1.8,0,0,1-1.28.6,2.17,2.17,0,0,1-1.74-.82,2.8,2.8,0,0,1-.65-1.85,2.9,2.9,0,0,1,.67-2,2.44,2.44,0,0,1,1.91-.78,1.63,1.63,0,0,1,1.34.59s0,0,0,0,.07-.09.11-.27.09-.26.15-.26a4.47,4.47,0,0,1,.76.12,7.36,7.36,0,0,1,.76.18c.06,0,.08.05.08.09a.66.66,0,0,1,0,.11A11.28,11.28,0,0,0,49.52,74.36Zm-1.73,0a1.05,1.05,0,0,0-.28-.76,1.09,1.09,0,0,0-1.5,0,1.05,1.05,0,0,0-.28.76,1,1,0,0,0,.3.74,1,1,0,0,0,.73.32,1,1,0,0,0,.74-.3A1,1,0,0,0,47.79,74.39Z" transform="translate(-4.5 -3.5)"/><path d="M52.55,73.81c0,1,0,1.73,0,2.25,0,.08,0,.22,0,.42a3.82,3.82,0,0,1,0,.43c0,.07,0,.12-.13.13a5.83,5.83,0,0,1-.87,0,4.74,4.74,0,0,1-.83,0,.17.17,0,0,1-.13-.14v-.23c0-.32,0-.8,0-1.44s0-1.11,0-1.42c0-1.51,0-2.19,0-2.06a16.65,16.65,0,0,0-.14-2s0-.07,0-.09.05-.12.14-.12h1.92q.13,0,.12.12v.09C52.59,71.25,52.55,72.62,52.55,73.81Z" transform="translate(-4.5 -3.5)"/><path d="M58.93,74.36c0,.27,0,.68,0,1.23s.05,1,.05,1.22a.2.2,0,0,1-.19.23c-.45,0-1,0-1.53,0-.07,0-.11-.1-.14-.31s-.05-.31-.08-.31a.35.35,0,0,0-.11.09,1.81,1.81,0,0,1-1.29.6A2.14,2.14,0,0,1,54,76.34a2.76,2.76,0,0,1-.66-1.85,2.9,2.9,0,0,1,.68-2,2.42,2.42,0,0,1,1.91-.78,1.62,1.62,0,0,1,1.33.59l0,0s.07-.09.11-.27.09-.26.15-.26a4.41,4.41,0,0,1,.75.12,7.72,7.72,0,0,1,.77.18c.05,0,.08.05.08.09s0,0,0,.11A12.27,12.27,0,0,0,58.93,74.36Zm-1.73,0a1.06,1.06,0,0,0-.29-.76,1,1,0,0,0-.75-.3,1,1,0,0,0-.74.3,1.06,1.06,0,0,0-.29.76,1,1,0,0,0,.3.74,1,1,0,0,0,1.48,0A1.06,1.06,0,0,0,57.2,74.39Z" transform="translate(-4.5 -3.5)"/><path d="M65.69,69.42c0-.08,0,0,0,.35s-.07.91-.09,1.53,0,1.5,0,2.4a25.46,25.46,0,0,0,.13,3.15c0,.07,0,.11,0,.13s0,.06-.08.07-.61,0-1.43,0c-.19,0-.3,0-.33-.11s0-.28,0-.41a.18.18,0,0,0,0-.09.17.17,0,0,0-.08.07,2,2,0,0,1-1.45.57,2.29,2.29,0,0,1-1.82-.8,2.83,2.83,0,0,1-.65-1.91,2.86,2.86,0,0,1,.64-1.93,2.26,2.26,0,0,1,1.83-.81,1.6,1.6,0,0,1,1.26.52c.05.06.08.09.11.09s0,0,0-.14c0-.28,0-.69,0-1.24s0-1,0-1.23q0-.15.09-.18l.94-.06a8.82,8.82,0,0,0,.95-.13C65.65,69.29,65.69,69.33,65.69,69.42Zm-2,4.94a1.05,1.05,0,0,0-.3-.75.94.94,0,0,0-.71-.32.85.85,0,0,0-.7.32,1.14,1.14,0,0,0-.26.77,1,1,0,0,0,.26.73.86.86,0,0,0,.7.33.94.94,0,0,0,.72-.33A1.08,1.08,0,0,0,63.67,74.36Z" transform="translate(-4.5 -3.5)"/><path d="M71.41,74.12c0,.37-.12.57-.35.62L70,74.86c-.43,0-1.06.1-1.9.17a.78.78,0,0,0,.46.53,1.64,1.64,0,0,0,.71.15,2,2,0,0,0,1-.26l.41-.26a1.79,1.79,0,0,1,.38.55,1.87,1.87,0,0,1,.26.63.2.2,0,0,1-.08.12,2.63,2.63,0,0,1-2,.71,2.89,2.89,0,0,1-2.07-.75,2.66,2.66,0,0,1-.8-2,2.9,2.9,0,0,1,.72-2,2.54,2.54,0,0,1,2-.82,2.32,2.32,0,0,1,1.75.76A2.48,2.48,0,0,1,71.41,74.12Zm-1.88-.32a.84.84,0,0,0-.24-.59.75.75,0,0,0-.56-.25.66.66,0,0,0-.56.28,1,1,0,0,0-.21.62.13.13,0,0,0,.15.15,10.18,10.18,0,0,0,1.24-.13C69.47,73.87,69.53,73.84,69.53,73.8Z" transform="translate(-4.5 -3.5)"/><path d="M79.67,74.12c0,.37-.12.57-.35.62l-1.11.12c-.43,0-1.06.1-1.89.17a.76.76,0,0,0,.45.53,1.64,1.64,0,0,0,.71.15,2,2,0,0,0,1-.26l.41-.26a1.79,1.79,0,0,1,.38.55,2,2,0,0,1,.27.63.23.23,0,0,1-.09.12,2.63,2.63,0,0,1-2,.71,2.85,2.85,0,0,1-2.06-.75,2.63,2.63,0,0,1-.81-2,2.9,2.9,0,0,1,.72-2,2.54,2.54,0,0,1,2-.82,2.32,2.32,0,0,1,1.75.76A2.48,2.48,0,0,1,79.67,74.12Zm-1.88-.32a.84.84,0,0,0-.24-.59A.73.73,0,0,0,77,73a.66.66,0,0,0-.56.28,1,1,0,0,0-.21.62.13.13,0,0,0,.15.15,10.18,10.18,0,0,0,1.24-.13C77.73,73.87,77.79,73.84,77.79,73.8Z" transform="translate(-4.5 -3.5)"/><path d="M85.6,76.88a.15.15,0,0,1-.15.17,6.74,6.74,0,0,1-.79,0,6.67,6.67,0,0,1-.84,0,.2.2,0,0,1-.16-.22c0-.17,0-.42,0-.76s0-.6,0-.77,0-.33,0-.59,0-.46,0-.6c0-.49-.21-.73-.64-.73a1,1,0,0,0-.49.18c-.2.14-.3.27-.3.4v2.9c0,.12,0,.19-.16.2a6.93,6.93,0,0,1-.77,0,6.83,6.83,0,0,1-.82,0,.17.17,0,0,1-.16-.18V75.6c0-.56,0-1,0-1.27a8.28,8.28,0,0,0-.21-2.1.25.25,0,0,1,0-.08A.11.11,0,0,1,80.2,72l.9-.12c.57-.11.89-.17,1-.17s.07.12.09.36.06.37.09.37a3,3,0,0,1,.58-.38,2.29,2.29,0,0,1,1.12-.37,2,2,0,0,1,1.14.32,1.2,1.2,0,0,1,.51,1v2.76C85.59,76.3,85.6,76.65,85.6,76.88Z" transform="translate(-4.5 -3.5)"/><path d="M48.5,82.7c0,.13-.08.2-.24.2h-.59a.89.89,0,0,0-.6.14.72.72,0,0,0-.16.56v.7c0,.32,0,.55,0,.7s0,.26,0,.47a4.4,4.4,0,0,1,0,.46c0,.08-.05.13-.17.14s-.44,0-.79,0-.61,0-.82,0S45,86,45,85.86c0-.28,0-.71,0-1.28V83.29a7.61,7.61,0,0,0-.23-2.08s0-.06,0-.08a.12.12,0,0,1,.08-.11l.87-.11c.56-.12.86-.17.87-.17s.11.11.13.34.05.34.09.34.1-.1.44-.29a2.2,2.2,0,0,1,1-.28c.2,0,.3.05.3.13s0,.25,0,.44,0,.35,0,.44v.42C48.49,82.49,48.5,82.63,48.5,82.7Z" transform="translate(-4.5 -3.5)"/><path d="M54,83.12c0,.37-.11.57-.35.62l-1.11.12c-.42,0-1,.1-1.89.17a.75.75,0,0,0,.46.53,1.61,1.61,0,0,0,.71.15,2,2,0,0,0,1-.26l.41-.26a1.79,1.79,0,0,1,.38.55,2.14,2.14,0,0,1,.26.63.26.26,0,0,1-.08.12,2.65,2.65,0,0,1-2,.71,2.88,2.88,0,0,1-2.07-.75,2.66,2.66,0,0,1-.8-2,2.9,2.9,0,0,1,.72-2,2.53,2.53,0,0,1,2-.82,2.3,2.3,0,0,1,1.75.76A2.48,2.48,0,0,1,54,83.12Zm-1.88-.32a.88.88,0,0,0-.23-.59.75.75,0,0,0-.57-.25.69.69,0,0,0-.56.28,1,1,0,0,0-.2.62.13.13,0,0,0,.15.15A10.18,10.18,0,0,0,52,82.88C52.1,82.87,52.16,82.84,52.16,82.8Z" transform="translate(-4.5 -3.5)"/><path d="M56.59,82.81c0,1,0,1.73,0,2.25,0,.08,0,.22,0,.42s0,.33,0,.43,0,.12-.13.13a5.74,5.74,0,0,1-.87,0,4.53,4.53,0,0,1-.82,0,.17.17,0,0,1-.14-.14v-.23c0-.32,0-.8,0-1.44s0-1.11,0-1.42c0-1.51,0-2.19,0-2.06a16.65,16.65,0,0,0-.14-2s0-.07,0-.09.05-.12.14-.12h1.92q.14,0,.12.12v.09C56.64,80.25,56.59,81.62,56.59,82.81Z" transform="translate(-4.5 -3.5)"/><path d="M63,83.36c0,.27,0,.68.05,1.23s0,1,0,1.22a.2.2,0,0,1-.19.23c-.45,0-1,0-1.53,0-.06,0-.11-.1-.13-.31s0-.31-.09-.31a.35.35,0,0,0-.11.09,1.81,1.81,0,0,1-1.29.6A2.14,2.14,0,0,1,58,85.34a2.75,2.75,0,0,1-.65-1.85,2.9,2.9,0,0,1,.67-2,2.42,2.42,0,0,1,1.91-.78,1.61,1.61,0,0,1,1.33.59l0,0s.07-.09.11-.27.09-.26.15-.26a4.41,4.41,0,0,1,.75.12,7.72,7.72,0,0,1,.77.18c.05,0,.08.05.08.09s0,0,0,.11A12.27,12.27,0,0,0,63,83.36Zm-1.73,0a1.06,1.06,0,0,0-.29-.76,1.08,1.08,0,0,0-1.49,0,1.06,1.06,0,0,0-.29.76,1,1,0,0,0,.3.74,1,1,0,0,0,1.48,0A1.06,1.06,0,0,0,61.24,83.39Z" transform="translate(-4.5 -3.5)"/><path d="M66,83.58c0,.26,0,.65,0,1.16s0,.91,0,1.17c0,.07,0,.12-.14.13a11.22,11.22,0,0,1-1.64,0,.21.21,0,0,1-.15-.07.5.5,0,0,1,0-.16c0-.25,0-.62,0-1.11s0-.87,0-1.12A19.31,19.31,0,0,0,64,81.15.8.8,0,0,0,64,81c0-.08,0-.11.15-.11l.46,0,.46,0,.47,0,.47,0c.08,0,.12,0,.12.11a.58.58,0,0,1,0,.1C66.07,81.85,66,82.66,66,83.58Zm.14-4c0,.63-.36.94-1.06.94a1.12,1.12,0,0,1-.74-.24.83.83,0,0,1-.33-.7.86.86,0,0,1,.34-.68,1.1,1.1,0,0,1,.73-.25,1.12,1.12,0,0,1,.73.25A.85.85,0,0,1,66.17,79.58Z" transform="translate(-4.5 -3.5)"/><path d="M70.2,81.7a.23.23,0,0,1-.08.14,1.54,1.54,0,0,0-.3,0,1,1,0,0,0-.53.14.52.52,0,0,0-.26.46.82.82,0,0,0,.28.48,7.47,7.47,0,0,1,.51.58A1.57,1.57,0,0,1,70,84.92a1.06,1.06,0,0,1-.31.49,3.58,3.58,0,0,1-.93.58,2.58,2.58,0,0,1-1,.25c-.08,0-.24-.19-.49-.58a2.69,2.69,0,0,1-.37-.71.05.05,0,0,1,.06-.06l.76-.14c.31-.1.47-.27.47-.5a.86.86,0,0,0-.27-.54l-.51-.58a1.36,1.36,0,0,1-.28-.82,1.64,1.64,0,0,1,.82-1.37,2.75,2.75,0,0,1,1.56-.5c.06,0,.2.2.43.58A2.81,2.81,0,0,1,70.2,81.7Z" transform="translate(-4.5 -3.5)"/><path d="M32.73,55.65a2.5,2.5,0,1,1,3.54-3.53l3.23,3.23v-9H32a2.46,2.46,0,0,1-2.5-2.5,2.55,2.55,0,0,1,2.5-2.5H59.5V32.43l-3.23,3.22a2.5,2.5,0,0,1-3.54-3.53l7.5-7.5a2.5,2.5,0,0,1,3.54,0l7.5,7.5a2.5,2.5,0,0,1-3.54,3.53L64.5,32.43v8.89H72a2.55,2.55,0,0,1,2.5,2.5,2.46,2.46,0,0,1-2.5,2.5H44.5v9l3.23-3.23a2.51,2.51,0,0,1,3.66.13,2.59,2.59,0,0,1-.16,3.44l-7.46,7.46a2.5,2.5,0,0,1-3.54,0ZM39.5,28.82a2.5,2.5,0,1,1,5,0v10h-5Zm25,20v10a2.58,2.58,0,0,1-2.32,2.54,2.49,2.49,0,0,1-2.68-2.49V48.82Z" transform="translate(-4.5 -3.5)"/></g></svg>