<svg xmlns="http://www.w3.org/2000/svg" viewBox="0 0 91 92.5"><defs><style>.cls-1{fill:#fff;}.cls-2,.cls-4{fill:none;stroke-miterlimit:10;}.cls-2{stroke:#645da1;stroke-width:3px;}.cls-3{fill:#645da1;}.cls-4{stroke:#c3b39c;}</style></defs><g id="carte"><g id="fond_2_beige" data-name="fond 2 beige"><rect id="fond_1_blanc" data-name="fond 1 blanc" class="cls-1" x="2.5" y="2.5" width="86" height="87" rx="4.67"/></g><g id="angles"><rect id="contour" class="cls-2" x="1.5" y="1.5" width="88" height="89.5" rx="4.67"/><g id="coins"><path class="cls-3" d="M1.76,65H8A13,13,0,0,1,21,78V91a0,0,0,0,1,0,0H8.5A7.5,7.5,0,0,1,1,83.5V65.76A.76.76,0,0,1,1.76,65Z"/><path class="cls-3" d="M74.76,5H81A13,13,0,0,1,94,18V31a0,0,0,0,1,0,0H81.5A7.5,7.5,0,0,1,74,23.5V5.76A.76.76,0,0,1,74.76,5Z" transform="translate(163.5 32.5) rotate(180)"/></g><g id="symboles_angles" data-name="symboles angles"><path class="cls-1" d="M15,77.5a2.25,2.25,0,1,0-2.29-2.25A2.27,2.27,0,0,0,15,77.5Zm1.59.56h-.3a3.13,3.13,0,0,1-1.3.28,3.16,3.16,0,0,1-1.3-.28h-.3A2.38,2.38,0,0,0,11,80.42v.74a.85.85,0,0,0,.86.84h6.28a.85.85,0,0,0,.86-.84v-.74A2.38,2.38,0,0,0,16.6,78.06Z" transform="translate(-4.5 -3.5)"/><path class="cls-1" d="M12.61,89.69a1.4,1.4,0,0,1-.58-.5,1.81,1.81,0,0,1-.28-.8h.81a.9.9,0,0,0,.15.4A.65.65,0,0,0,13,89a1,1,0,0,0,.43.08.86.86,0,0,0,.62-.21.8.8,0,0,0,.21-.59v-.18a.92.92,0,0,0-.2-.65.75.75,0,0,0-.59-.24h-.4v-.75h.4a.7.7,0,0,0,.52-.2.83.83,0,0,0,.18-.57v-.17A.67.67,0,0,0,14,85a.78.78,0,0,0-.55-.19.87.87,0,0,0-.37.08.76.76,0,0,0-.27.24,1.17,1.17,0,0,0-.16.39h-.81a2.07,2.07,0,0,1,.3-.79,1.41,1.41,0,0,1,.55-.51,1.67,1.67,0,0,1,.76-.17,1.54,1.54,0,0,1,1.13.39A1.42,1.42,0,0,1,15,85.55v.09a1.25,1.25,0,0,1-.23.74,1.28,1.28,0,0,1-.66.46,1.2,1.2,0,0,1,.73.46,1.53,1.53,0,0,1,.25.91v.09a1.75,1.75,0,0,1-.19.85,1.25,1.25,0,0,1-.56.53,1.94,1.94,0,0,1-.88.19A1.86,1.86,0,0,1,12.61,89.69Z" transform="translate(-4.5 -3.5)"/><path class="cls-1" d="M19.35,86.81v.76H16.17v-.76Zm-1.19,2h-.8V85.6h.8Z" transform="translate(-4.5 -3.5)"/></g></g><g id="symboles"><line class="cls-4" x1="5" y1="5.5" x2="5" y2="63.5"/><line class="cls-4" x1="86" y1="29.5" x2="86" y2="87.5"/><line class="cls-4" x1="8.5" y1="5" x2="66.5" y2="5"/><line class="cls-4" x1="24.5" y1="87" x2="82.5" y2="87"/></g></g><g id="titre"><path d="M41.84,71.15c0,.07,0,.11-.12.11l-1.61-.08q0,1.35,0,1.89c0,.42,0,1.06.05,1.91s0,1.48,0,1.9c0,.07,0,.12,0,.13L40,77a7.67,7.67,0,0,1-.95,0,7.32,7.32,0,0,1-1,0c-.1,0-.15-.07-.15-.16,0-.43,0-1.06.05-1.91s.06-1.48.06-1.9,0-.9,0-1.87c-.72.07-1.29.11-1.72.11-.06,0-.08,0-.08,0a2.74,2.74,0,0,1,.07-.42c.06-.25.09-.4.1-.45s0-.34,0-.51.06-.4.12-.4h.08a20.39,20.39,0,0,0,2.57.12c.32,0,.92,0,1.79-.11l.7,0h.12a.2.2,0,0,1,0,.11c0,.1,0,.23,0,.4s0,.33,0,.41a2.41,2.41,0,0,0,0,.39A3.61,3.61,0,0,1,41.84,71.15Z" transform="translate(-4.5 -3.5)"/><path d="M45.94,73.7c0,.13-.08.2-.23.2h-.59a.93.93,0,0,0-.61.14.72.72,0,0,0-.16.56c0,.16,0,.39,0,.7s0,.55,0,.7a4.57,4.57,0,0,0,0,.47c0,.2,0,.36,0,.46s-.06.13-.18.14-.43,0-.79,0-.61,0-.81,0-.18-.07-.18-.18V75.58c0-.57,0-1,0-1.29a8,8,0,0,0-.23-2.08.25.25,0,0,1,0-.08A.12.12,0,0,1,42.3,72l.86-.11.88-.17c.06,0,.1.11.12.34s.05.34.1.34.1-.1.44-.29a2.13,2.13,0,0,1,1-.28c.2,0,.3.05.3.13s0,.25,0,.44,0,.35,0,.44,0,.24,0,.42S45.94,73.63,45.94,73.7Z" transform="translate(-4.5 -3.5)"/><path d="M51.74,74.4a2.73,2.73,0,0,1-.75,2,2.92,2.92,0,0,1-3.92,0,2.64,2.64,0,0,1-.76-1.94,2.82,2.82,0,0,1,.73-2,2.59,2.59,0,0,1,2-.78,2.61,2.61,0,0,1,2.72,2.74ZM50,74.4a1.14,1.14,0,0,0-.26-.75.82.82,0,0,0-.68-.33.88.88,0,0,0-.7.34,1.13,1.13,0,0,0-.26.74,1.11,1.11,0,0,0,.26.74.85.85,0,0,0,.7.34.83.83,0,0,0,.69-.34A1.11,1.11,0,0,0,50,74.4Z" transform="translate(-4.5 -3.5)"/><path d="M57.91,72.16c0,.26,0,.66,0,1.19s0,.93,0,1.19,0,.65,0,1.16,0,.9,0,1.16a.16.16,0,0,1-.13.18,4.15,4.15,0,0,1-.87,0,7.22,7.22,0,0,1-.81,0,.14.14,0,0,1-.13-.13c0-.1,0-.21,0-.32s0-.25-.07-.25-.13.13-.54.37a2.31,2.31,0,0,1-1.13.36,1.51,1.51,0,0,1-1.68-1.28,9.37,9.37,0,0,1-.12-1.73,7.55,7.55,0,0,1,.2-1.93c0-.15.11-.22.22-.22h1.5c.11,0,.17,0,.17.14a.54.54,0,0,1,0,.11,9.13,9.13,0,0,0-.11,1.48,11.35,11.35,0,0,0,0,1.28.64.64,0,0,0,.71.59.85.85,0,0,0,.51-.21.63.63,0,0,0,.29-.43c0-.13,0-1,0-2.7a.4.4,0,0,1,0-.21s.08,0,.19,0h1.58c.11,0,.17,0,.19.08A.45.45,0,0,1,57.91,72.16Z" transform="translate(-4.5 -3.5)"/><path d="M64,73.31a5.52,5.52,0,0,1-.05,1.09,7.09,7.09,0,0,1-.74,1.29c-.36.53-.67.93-.92,1.23-.1.11-.38.16-.85.16a4.41,4.41,0,0,1-.79,0,.33.33,0,0,1-.19-.11,12.24,12.24,0,0,1-.92-1.21,7.47,7.47,0,0,1-.76-1.27,3.52,3.52,0,0,1-.13-1.12V72.7c0-.28,0-.49,0-.63s.06-.14.18-.14h.83c.37,0,.64,0,.82,0s.13.06.13.17,0,.25,0,.45,0,.36,0,.46a7.56,7.56,0,0,0,0,.91,2.14,2.14,0,0,0,.31.69c.2.35.35.53.44.53s.24-.17.43-.52a2.43,2.43,0,0,0,.31-.67,8.08,8.08,0,0,0,0-.92c0-.1,0-.26,0-.47s0-.36,0-.46,0-.17.11-.17h.77l.39,0a3.13,3.13,0,0,1,.39,0,.16.16,0,0,1,.17.14A5.37,5.37,0,0,1,64,73.31Z" transform="translate(-4.5 -3.5)"/><path d="M69.62,74.12c0,.37-.12.57-.35.62l-1.11.12c-.43,0-1.06.1-1.9.17a.78.78,0,0,0,.46.53,1.64,1.64,0,0,0,.71.15,2,2,0,0,0,1-.26l.41-.26a1.79,1.79,0,0,1,.38.55,1.87,1.87,0,0,1,.26.63.2.2,0,0,1-.08.12,2.63,2.63,0,0,1-2,.71,2.89,2.89,0,0,1-2.07-.75,2.66,2.66,0,0,1-.8-2,2.9,2.9,0,0,1,.72-2,2.54,2.54,0,0,1,2-.82,2.32,2.32,0,0,1,1.75.76A2.48,2.48,0,0,1,69.62,74.12Zm-1.88-.32a.84.84,0,0,0-.24-.59.75.75,0,0,0-.56-.25.66.66,0,0,0-.56.28,1,1,0,0,0-.21.62.13.13,0,0,0,.15.15,10.18,10.18,0,0,0,1.24-.13C67.68,73.87,67.74,73.84,67.74,73.8Z" transform="translate(-4.5 -3.5)"/><path d="M74.91,73.81c0,1,0,1.73,0,2.25,0,.08,0,.22,0,.42s0,.33,0,.43,0,.12-.14.13a5.74,5.74,0,0,1-.87,0,4.6,4.6,0,0,1-.82,0A.17.17,0,0,1,73,76.9v-.23c0-.32,0-.8,0-1.44s0-1.11,0-1.42V71.75a16.84,16.84,0,0,0-.13-2,.31.31,0,0,1,0-.09c0-.08,0-.12.14-.12h1.91c.09,0,.13,0,.13.12v.09C75,71.25,74.91,72.62,74.91,73.81Z" transform="translate(-4.5 -3.5)"/><path d="M80.81,74.12c0,.37-.11.57-.35.62l-1.11.12c-.42,0-1,.1-1.89.17a.78.78,0,0,0,.46.53,1.61,1.61,0,0,0,.71.15,2,2,0,0,0,1-.26l.41-.26a1.79,1.79,0,0,1,.38.55,2.14,2.14,0,0,1,.26.63.2.2,0,0,1-.08.12,2.65,2.65,0,0,1-2,.71,2.88,2.88,0,0,1-2.07-.75,2.66,2.66,0,0,1-.8-2,2.9,2.9,0,0,1,.72-2,2.53,2.53,0,0,1,2-.82,2.3,2.3,0,0,1,1.75.76A2.48,2.48,0,0,1,80.81,74.12Zm-1.88-.32a.83.83,0,0,0-.23-.59.75.75,0,0,0-.57-.25.66.66,0,0,0-.55.28,1,1,0,0,0-.21.62.13.13,0,0,0,.15.15,10.18,10.18,0,0,0,1.24-.13C78.88,73.87,78.93,73.84,78.93,73.8Z" transform="translate(-4.5 -3.5)"/><path d="M36.52,83.46a2.74,2.74,0,0,1-.67,1.9,2.33,2.33,0,0,1-1.84.79,2.17,2.17,0,0,1-.88-.21,1.66,1.66,0,0,1-.43-.2c-.05,0-.07.05-.07.16s0,.46,0,.83,0,.64,0,.82-.06.17-.18.17H31.41a2.29,2.29,0,0,1-.48,0,.18.18,0,0,1-.16-.2V83.37a9.68,9.68,0,0,0-.19-2.11s0-.07,0-.1a.09.09,0,0,1,.07-.1,4.49,4.49,0,0,1,.8-.18,6.05,6.05,0,0,1,.83-.09c.14,0,.22.1.24.28s0,.28.07.28.12-.1.46-.3a2,2,0,0,1,.93-.29,2.42,2.42,0,0,1,1.87.77A2.75,2.75,0,0,1,36.52,83.46Zm-2,0a1.16,1.16,0,0,0-.26-.75.88.88,0,0,0-.71-.34.8.8,0,0,0-.68.34,1.22,1.22,0,0,0-.23.75,1.16,1.16,0,0,0,.24.75.81.81,0,0,0,.69.33C34.21,84.53,34.53,84.17,34.53,83.45Z" transform="translate(-4.5 -3.5)"/><path d="M42.14,83.12c0,.37-.12.57-.35.62l-1.11.12c-.42,0-1,.1-1.89.17a.75.75,0,0,0,.46.53,1.57,1.57,0,0,0,.7.15,2.11,2.11,0,0,0,1-.26l.4-.26a1.49,1.49,0,0,1,.38.55,2,2,0,0,1,.27.63.26.26,0,0,1-.08.12,2.67,2.67,0,0,1-2,.71,2.85,2.85,0,0,1-2.06-.75,2.63,2.63,0,0,1-.81-2,2.9,2.9,0,0,1,.72-2,2.56,2.56,0,0,1,2-.82,2.3,2.3,0,0,1,1.75.76A2.48,2.48,0,0,1,42.14,83.12Zm-1.88-.32a.84.84,0,0,0-.24-.59.72.72,0,0,0-.56-.25.67.67,0,0,0-.56.28,1,1,0,0,0-.2.62.13.13,0,0,0,.15.15,10.26,10.26,0,0,0,1.23-.13C40.2,82.87,40.26,82.84,40.26,82.8Z" transform="translate(-4.5 -3.5)"/><path d="M46.29,82.7c0,.13-.07.2-.23.2h-.59a.93.93,0,0,0-.61.14.76.76,0,0,0-.16.56c0,.16,0,.39,0,.7s0,.55,0,.7,0,.26,0,.47,0,.36,0,.46-.06.13-.18.14-.43,0-.79,0-.61,0-.81,0-.18-.07-.18-.18c0-.28,0-.71,0-1.28V83.29a8,8,0,0,0-.23-2.08.25.25,0,0,1,0-.08.12.12,0,0,1,.08-.11l.87-.11c.56-.12.85-.17.87-.17s.11.11.12.34.05.34.1.34.1-.1.44-.29a2.2,2.2,0,0,1,1-.28c.2,0,.3.05.3.13a2.93,2.93,0,0,1,0,.44c0,.21,0,.35,0,.44v.42C46.29,82.49,46.29,82.63,46.29,82.7Z" transform="translate(-4.5 -3.5)"/><path d="M50.06,81.7a.23.23,0,0,1-.08.14,1.54,1.54,0,0,0-.3,0,1,1,0,0,0-.53.14.52.52,0,0,0-.26.46.82.82,0,0,0,.28.48,7.47,7.47,0,0,1,.51.58,1.59,1.59,0,0,1,.27.88,1.85,1.85,0,0,1-.11.58,1.06,1.06,0,0,1-.31.49,3.58,3.58,0,0,1-.93.58,2.59,2.59,0,0,1-1.06.25c-.07,0-.23-.19-.48-.58a2.38,2.38,0,0,1-.37-.71.05.05,0,0,1,.06-.06l.76-.14c.31-.1.47-.27.47-.5a.86.86,0,0,0-.27-.54l-.52-.58a1.41,1.41,0,0,1-.27-.82,1.64,1.64,0,0,1,.82-1.37,2.73,2.73,0,0,1,1.56-.5c.06,0,.2.2.42.58A2.64,2.64,0,0,1,50.06,81.7Z" transform="translate(-4.5 -3.5)"/><path d="M56,83.4a2.73,2.73,0,0,1-.75,2,2.91,2.91,0,0,1-3.91,0,2.6,2.6,0,0,1-.76-1.94,2.82,2.82,0,0,1,.73-2,2.59,2.59,0,0,1,2-.78,2.67,2.67,0,0,1,2,.76A2.71,2.71,0,0,1,56,83.4Zm-1.76,0a1.2,1.2,0,0,0-.26-.75.83.83,0,0,0-.68-.33.87.87,0,0,0-.7.34,1.13,1.13,0,0,0-.26.74,1.11,1.11,0,0,0,.26.74.88.88,0,0,0,1.39,0A1.11,1.11,0,0,0,54.24,83.4Z" transform="translate(-4.5 -3.5)"/><path d="M62,85.88a.15.15,0,0,1-.15.17,6.53,6.53,0,0,1-.78,0,6.67,6.67,0,0,1-.84,0c-.11,0-.16-.09-.16-.22s0-.42,0-.76,0-.6,0-.77,0-.33,0-.59,0-.46,0-.6c0-.49-.21-.73-.64-.73a1,1,0,0,0-.49.18c-.2.14-.3.27-.3.4v2.9c0,.12,0,.19-.17.2a6.72,6.72,0,0,1-.76,0,6.83,6.83,0,0,1-.82,0c-.11,0-.17-.08-.17-.18,0-.28,0-.7,0-1.26V83.33a8.85,8.85,0,0,0-.2-2.1.31.31,0,0,1,0-.08.12.12,0,0,1,.08-.11l.91-.12c.57-.11.89-.17,1-.17s.07.12.09.36.05.37.09.37.15-.13.58-.38a2.23,2.23,0,0,1,1.11-.37,1.94,1.94,0,0,1,1.14.32,1.2,1.2,0,0,1,.51,1V83.8c0,.23,0,.58,0,1Z" transform="translate(-4.5 -3.5)"/><path d="M68.23,85.88a.15.15,0,0,1-.15.17,6.63,6.63,0,0,1-.79,0,6.35,6.35,0,0,1-.83,0,.2.2,0,0,1-.17-.22c0-.17,0-.42,0-.76s0-.6,0-.77,0-.33,0-.59,0-.46,0-.6c0-.49-.22-.73-.64-.73a.93.93,0,0,0-.49.18c-.2.14-.3.27-.3.4v2.9a.18.18,0,0,1-.17.2,6.83,6.83,0,0,1-.77,0,6.51,6.51,0,0,1-.81,0C63,86,63,86,63,85.86V84.6c0-.56,0-1,0-1.27a8.28,8.28,0,0,0-.21-2.1.25.25,0,0,1,0-.08.12.12,0,0,1,.08-.11l.9-.12c.57-.11.89-.17,1-.17s.06.12.09.36,0,.37.09.37.15-.13.58-.38a2.23,2.23,0,0,1,1.11-.37,2,2,0,0,1,1.14.32,1.2,1.2,0,0,1,.51,1v2.76C68.23,85.3,68.23,85.65,68.23,85.88Z" transform="translate(-4.5 -3.5)"/><path d="M74.52,83.36c0,.27,0,.68,0,1.23s.05,1,.05,1.22-.06.22-.19.23c-.44,0-1,0-1.52,0-.07,0-.12-.1-.14-.31s0-.31-.08-.31a.36.36,0,0,0-.12.09,1.8,1.8,0,0,1-1.28.6,2.17,2.17,0,0,1-1.74-.82,2.8,2.8,0,0,1-.65-1.85,2.9,2.9,0,0,1,.67-2,2.44,2.44,0,0,1,1.91-.78,1.63,1.63,0,0,1,1.34.59l0,0s.07-.09.11-.27.09-.26.15-.26a4.47,4.47,0,0,1,.76.12,7.36,7.36,0,0,1,.76.18c.06,0,.08.05.08.09a.66.66,0,0,1,0,.11A11.28,11.28,0,0,0,74.52,83.36Zm-1.73,0a1.05,1.05,0,0,0-.28-.76,1.09,1.09,0,0,0-1.5,0,1.05,1.05,0,0,0-.28.76,1,1,0,0,0,.3.74,1,1,0,0,0,.73.32,1,1,0,0,0,.74-.3A1,1,0,0,0,72.79,83.39Z" transform="translate(-4.5 -3.5)"/><path d="M80.94,84.64a3.08,3.08,0,0,1-.64,2.2,3,3,0,0,1-2.21.68,7.78,7.78,0,0,1-1.23-.14c-.67-.12-1-.27-1-.43s.08-.42.23-1q0-.15.12-.15l.06,0a3.51,3.51,0,0,0,1.53.41,1.7,1.7,0,0,0,.77-.2c.31-.15.46-.35.46-.58V85a1.93,1.93,0,0,1-1.41.52A2.13,2.13,0,0,1,76,84.83a2.7,2.7,0,0,1,0-3.42,2.08,2.08,0,0,1,1.64-.7,1.43,1.43,0,0,1,1.24.58q.09.12.12.12s0-.07,0-.2,0-.43.09-.43l.93.09.88.1a.13.13,0,0,1,.09.14c0,.25,0,.62,0,1.11s0,.86,0,1.1,0,.37,0,.66Zm-1.86-1.48a1,1,0,0,0-.26-.68.87.87,0,0,0-1.3,0,1,1,0,0,0-.26.69,1,1,0,0,0,.26.67.87.87,0,0,0,.65.29.84.84,0,0,0,.65-.29A1,1,0,0,0,79.08,83.16Z" transform="translate(-4.5 -3.5)"/><path d="M86.79,83.12c0,.37-.11.57-.35.62l-1.11.12c-.42,0-1,.1-1.89.17a.75.75,0,0,0,.46.53,1.61,1.61,0,0,0,.71.15,2.07,2.07,0,0,0,1-.26l.41-.26a1.67,1.67,0,0,1,.37.55,2,2,0,0,1,.27.63.26.26,0,0,1-.08.12,2.67,2.67,0,0,1-2,.71,2.85,2.85,0,0,1-2.06-.75,2.62,2.62,0,0,1-.8-2,2.9,2.9,0,0,1,.72-2,2.53,2.53,0,0,1,2-.82,2.3,2.3,0,0,1,1.75.76A2.48,2.48,0,0,1,86.79,83.12Zm-1.88-.32a.88.88,0,0,0-.23-.59.75.75,0,0,0-.57-.25.69.69,0,0,0-.56.28,1,1,0,0,0-.2.62.13.13,0,0,0,.15.15,10.38,10.38,0,0,0,1.24-.13C84.85,82.87,84.91,82.84,84.91,82.8Z" transform="translate(-4.5 -3.5)"/><path d="M62.72,50.45,66,42.65a1.37,1.37,0,0,0-1.41-1.84H59.5a8.94,8.94,0,0,0,.93-4c0-.34-.08-.68-.11-1,3.56-.74,5.82-1.82,5.82-3S63.31,30.21,59,29.48C57.91,25.79,56.22,22,53.77,22a4.22,4.22,0,0,0-2.45.88,4,4,0,0,1-4.64,0A4.17,4.17,0,0,0,44.24,22c-2.45,0-4.13,3.79-5.2,7.47-4.34.73-7.18,1.93-7.18,3.28s2.26,2.28,5.82,3c0,.33-.11.67-.11,1a10.07,10.07,0,0,0,.85,4H33.29A1.36,1.36,0,0,0,32,42.65l3.32,7.8A14.24,14.24,0,0,0,29,62.09,3,3,0,0,0,32.09,65H65.9A3,3,0,0,0,69,62.09,14.24,14.24,0,0,0,62.72,50.45Zm-18,11.75L40.43,46.15l5.71,2.69,1.43,2.69Zm8.5,0L50.43,51.53l1.43-2.69,5.71-2.69ZM57.6,37.62a3.31,3.31,0,0,1-3.42,3.19H53.07a3.37,3.37,0,0,1-3.18-2.1.92.92,0,0,0-1.71,0A3.39,3.39,0,0,1,45,40.81H43.9a3.32,3.32,0,0,1-3.44-3.19V36.24a64.3,64.3,0,0,0,8.57.54,64.08,64.08,0,0,0,8.57-.54Z" transform="translate(-4.5 -3.5)"/><path d="M58.49,16.73a4.4,4.4,0,0,1,.58-2.11,4.77,4.77,0,0,1,1.71-1.78,5,5,0,0,1,2.66-.73,5.19,5.19,0,0,1,2.51.55,4.17,4.17,0,0,1,1.7,1.57,4.24,4.24,0,0,1,.62,2.17A3.65,3.65,0,0,1,68,18a5.11,5.11,0,0,1-.78,1.22c-.31.34-.86.92-1.65,1.73a5.19,5.19,0,0,0-.53.6,2.31,2.31,0,0,0-.29.47,3.12,3.12,0,0,0-.15.43q0,.21-.15.75c-.11.75-.5,1.14-1.15,1.15a1.16,1.16,0,0,1-.86-.36,1.63,1.63,0,0,1-.36-1.1,4.51,4.51,0,0,1,.24-1.59,3.93,3.93,0,0,1,.66-1.19,15.23,15.23,0,0,1,1.12-1.22c.41-.41.71-.72.89-.93a3,3,0,0,0,.46-.7,1.94,1.94,0,0,0,.18-.83A2.08,2.08,0,0,0,65,15a2,2,0,0,0-1.51-.58A2,2,0,0,0,61.9,15a4.87,4.87,0,0,0-.84,1.8c-.21.82-.63,1.24-1.25,1.25a1.23,1.23,0,0,1-.93-.42A1.47,1.47,0,0,1,58.49,16.73Zm4.92,11.9a1.47,1.47,0,0,1-1-.42,1.57,1.57,0,0,1-.46-1.2,1.62,1.62,0,0,1,.41-1.16,1.37,1.37,0,0,1,1-.48,1.34,1.34,0,0,1,1.05.45A1.72,1.72,0,0,1,64.85,27a1.62,1.62,0,0,1-.43,1.21A1.43,1.43,0,0,1,63.41,28.63Z" transform="translate(-4.5 -3.5)"/></g></svg>