<svg xmlns="http://www.w3.org/2000/svg" viewBox="0 0 91 92.5"><defs><style>.cls-1{fill:#fff;}.cls-2,.cls-4,.cls-5{fill:none;stroke-miterlimit:10;}.cls-2{stroke:#645da1;stroke-width:3px;}.cls-3{fill:#645da1;}.cls-4{stroke:#c3b39c;}.cls-5{stroke:#000;}</style></defs><g id="carte"><g id="fond_2_beige" data-name="fond 2 beige"><rect id="fond_1_blanc" data-name="fond 1 blanc" class="cls-1" x="2.5" y="2.5" width="86" height="87" rx="4.67"/></g><g id="angles"><rect id="contour" class="cls-2" x="1.5" y="1.5" width="88" height="89.5" rx="4.67"/><g id="coins"><path class="cls-3" d="M1.76,65H8A13,13,0,0,1,21,78V91a0,0,0,0,1,0,0H8.5A7.5,7.5,0,0,1,1,83.5V65.76A.76.76,0,0,1,1.76,65Z"/><path class="cls-3" d="M74.76,5H81A13,13,0,0,1,94,18V31a0,0,0,0,1,0,0H81.5A7.5,7.5,0,0,1,74,23.5V5.76A.76.76,0,0,1,74.76,5Z" transform="translate(163.5 32.5) rotate(180)"/></g><g id="symboles_angles" data-name="symboles angles"><path class="cls-1" d="M15,77.5a2.25,2.25,0,1,0-2.29-2.25A2.27,2.27,0,0,0,15,77.5Zm1.59.56h-.3a3.13,3.13,0,0,1-1.3.28,3.16,3.16,0,0,1-1.3-.28h-.3A2.38,2.38,0,0,0,11,80.42v.74a.85.85,0,0,0,.86.84h6.28a.85.85,0,0,0,.86-.84v-.74A2.38,2.38,0,0,0,16.6,78.06Z" transform="translate(-4.5 -3.5)"/><path class="cls-1" d="M11.9,89.12l2-2.64a2.55,2.55,0,0,0,.27-.48,1.29,1.29,0,0,0,.09-.45h0A.72.72,0,0,0,14,85a.8.8,0,0,0-.56-.18.82.82,0,0,0-.57.2,1,1,0,0,0-.26.58h-.82a2.09,2.09,0,0,1,.28-.83,1.57,1.57,0,0,1,.56-.53,1.71,1.71,0,0,1,.8-.18,2,2,0,0,1,.86.17,1.24,1.24,0,0,1,.55.51,1.55,1.55,0,0,1,.19.8h0a1.65,1.65,0,0,1-.13.63,2.64,2.64,0,0,1-.34.64L13,89.05H15.1v.76H11.9Z" transform="translate(-4.5 -3.5)"/><path class="cls-1" d="M19.25,86.81v.76H16.08v-.76Zm-1.19,2h-.8V85.6h.8Z" transform="translate(-4.5 -3.5)"/></g></g><g id="symboles"><line class="cls-4" x1="5" y1="5.5" x2="5" y2="63.5"/><line class="cls-4" x1="86" y1="29.5" x2="86" y2="87.5"/><line class="cls-4" x1="8.5" y1="5" x2="66.5" y2="5"/><line class="cls-4" x1="24.5" y1="87" x2="82.5" y2="87"/></g></g><g id="titre"><path d="M45.8,79.38a3.09,3.09,0,0,1-.69,2.1,2.49,2.49,0,0,1-2,.86l-.65,0-.65,0c-.15,0-.23.07-.23.2s0,.41,0,.73.05.57.05.74,0,.12-.11.12l-1,0-1,0c-.1,0-.15-.05-.15-.16,0-.39,0-1,0-1.79s0-1.39,0-1.79c0-1.12,0-2.3-.14-3.54v-.08c0-.07,0-.11.16-.12a18.22,18.22,0,0,1,1.85,0c.56,0,1.1,0,1.62,0a2.9,2.9,0,0,1,2,.8A2.74,2.74,0,0,1,45.8,79.38Zm-2.15.08a1.09,1.09,0,0,0-1.22-1.25c-.57,0-.87,0-.9.1a9.51,9.51,0,0,0,0,1.24c0,.11,0,.28,0,.49s0,.38,0,.49.32.11,1,.11A1,1,0,0,0,43.65,79.46Z" transform="translate(-4.5 -3.5)"/><path d="M50.09,82.47c0,.1,0,.27,0,.49a3.5,3.5,0,0,0,0,.48c0,.1,0,.16,0,.19a.77.77,0,0,1-.17.13,3.22,3.22,0,0,1-1.54.38c-1,0-1.55-.4-1.55-1.19,0-.24,0-.59,0-1.07s0-.83,0-1.06-.09-.24-.27-.24h-.14q-.21,0-.21-.15c0-.06,0-.14,0-.26s0-.21,0-.26,0-.19,0-.35,0-.27,0-.34.12-.11.35-.12.2,0,.21-.11a3.78,3.78,0,0,0,0-.64c0-.46,0-.68,0-.66q0-.63.12-.63a2.31,2.31,0,0,1,.41.07,3.84,3.84,0,0,0,.42.08l.83.1c.09,0,.14,0,.14.09s0,.36,0,.65,0,.51,0,.66.05.26.15.26.32,0,.57,0h.58c.07,0,.11,0,.11.08s0,.21,0,.37a3.51,3.51,0,0,0,0,.37c0,.09,0,.21,0,.38v.37c0,.08-.05.12-.16.12H48.64s-.08.08-.08.24v.38c0,.17,0,.3,0,.38a1.28,1.28,0,0,0,.1.62.62.62,0,0,0,.57.23,1.69,1.69,0,0,0,.38-.06,1.9,1.9,0,0,1,.35-.06A.11.11,0,0,1,50.09,82.47Z" transform="translate(-4.5 -3.5)"/><path d="M52.64,81.58c0,.26,0,.65,0,1.16s0,.91,0,1.17a.13.13,0,0,1-.13.13,6.92,6.92,0,0,1-.83,0,6.72,6.72,0,0,1-.82,0,.21.21,0,0,1-.15-.07.5.5,0,0,1,0-.16c0-.25,0-.62,0-1.11s0-.87,0-1.12a21.83,21.83,0,0,0-.11-2.43l0-.11c0-.08,0-.11.15-.11l.46,0,.46,0,.47,0,.47,0c.08,0,.13,0,.13.11a.58.58,0,0,0,0,.1A21.66,21.66,0,0,0,52.64,81.58Zm.14-4c0,.63-.35.94-1.06.94a1.13,1.13,0,0,1-.74-.24.82.82,0,0,1-.32-.7A.85.85,0,0,1,51,76.9a1.19,1.19,0,0,1,1.46,0A.85.85,0,0,1,52.78,77.58Z" transform="translate(-4.5 -3.5)"/><path d="M57.27,82.47c0,.1,0,.27,0,.49a3.5,3.5,0,0,0,0,.48.38.38,0,0,1,0,.19l-.18.13a3.19,3.19,0,0,1-1.54.38c-1,0-1.55-.4-1.55-1.19,0-.24,0-.59,0-1.07s0-.83,0-1.06-.09-.24-.27-.24h-.14c-.14,0-.2,0-.2-.15s0-.14,0-.26,0-.21,0-.26,0-.19,0-.35,0-.27,0-.34.11-.11.34-.12.2,0,.21-.11a3.78,3.78,0,0,0,0-.64c0-.46,0-.68,0-.66q0-.63.12-.63a2.31,2.31,0,0,1,.41.07,3.88,3.88,0,0,0,.43.08l.82.1c.09,0,.14,0,.14.09a6.45,6.45,0,0,1,0,.65q0,.43,0,.66c0,.17.05.26.15.26s.32,0,.57,0H57c.08,0,.11,0,.11.08s0,.21,0,.37a3.51,3.51,0,0,0,0,.37c0,.09,0,.21,0,.38v.37q0,.12-.15.12H55.82s-.08.08-.08.24v.38c0,.17,0,.3,0,.38a1.28,1.28,0,0,0,.1.62.62.62,0,0,0,.57.23,1.69,1.69,0,0,0,.38-.06,1.84,1.84,0,0,1,.36-.06C57.23,82.35,57.27,82.39,57.27,82.47Z" transform="translate(-4.5 -3.5)"/><path d="M67,81.72a2.29,2.29,0,0,1-.62,1.64,3.3,3.3,0,0,1-2.47.75h-.77A19.1,19.1,0,0,1,60.75,84a.16.16,0,0,1-.15-.17c0-.38,0-1,.07-1.74s.06-1.36.06-1.74,0-1.2-.06-2.34c0-.3,0-.74-.06-1.33v-.07c0-.07.06-.11.17-.12s.53,0,1.25,0h2a4.33,4.33,0,0,1,2,.43,1.88,1.88,0,0,1,.83,1.73,1.4,1.4,0,0,1-.19.67,2.8,2.8,0,0,1-.37.5A1.25,1.25,0,0,1,66,80s0,.06.14.12a1.42,1.42,0,0,1,.59.68A2.1,2.1,0,0,1,67,81.72Zm-2.31-3a.61.61,0,0,0-.46-.62,3.4,3.4,0,0,0-.85-.08c-.39,0-.58,0-.58.09s0,.17,0,.31,0,.24,0,.31q0,.54.09.6a2.29,2.29,0,0,0,.68,0C64.27,79.36,64.66,79.14,64.66,78.7Zm.16,3a.66.66,0,0,0-.4-.66,2.51,2.51,0,0,0-.84-.1,2.31,2.31,0,0,0-.75,0,3.59,3.59,0,0,0,0,1.36,2.27,2.27,0,0,0,.77.06,2.59,2.59,0,0,0,.82-.09A.6.6,0,0,0,64.82,81.7Z" transform="translate(-4.5 -3.5)"/><path d="M73,81.36c0,.27,0,.68,0,1.23s0,1,0,1.22a.2.2,0,0,1-.19.23c-.44,0-1,0-1.53,0-.06,0-.11-.1-.13-.31s-.05-.31-.09-.31l-.11.09a1.81,1.81,0,0,1-1.29.6A2.15,2.15,0,0,1,68,83.34a2.75,2.75,0,0,1-.65-1.85,2.9,2.9,0,0,1,.67-2A2.42,2.42,0,0,1,70,78.71a1.61,1.61,0,0,1,1.33.59l0,0s.07-.09.11-.27.09-.26.15-.26a4.62,4.62,0,0,1,.76.12c.35.07.6.13.76.18s.08.05.08.09,0,0,0,.11A12.27,12.27,0,0,0,73,81.36Zm-1.73,0a1,1,0,0,0-.29-.76,1.08,1.08,0,0,0-1.49,0,1.06,1.06,0,0,0-.29.76,1,1,0,0,0,.3.74,1,1,0,0,0,1.48,0A1.06,1.06,0,0,0,71.28,81.39Z" transform="translate(-4.5 -3.5)"/><path d="M77.63,80.51l-.32-.09a2,2,0,0,0-.52-.09,1,1,0,0,0-.76.29,1,1,0,0,0-.29.77,1,1,0,0,0,.32.77,1.13,1.13,0,0,0,.81.29,1.47,1.47,0,0,0,.53-.12l.28-.13c.06,0,.14.23.23.69a4.76,4.76,0,0,1,.13.82c0,.14-.22.26-.67.35a3.82,3.82,0,0,1-.83.12,2.59,2.59,0,0,1-2-.8,2.93,2.93,0,0,1,0-4,2.59,2.59,0,0,1,2-.8A2.83,2.83,0,0,1,78,79c.09.05.14.1.14.15s-.06.25-.16.63-.17.58-.2.65S77.67,80.51,77.63,80.51Z" transform="translate(-4.5 -3.5)"/><path d="M66.5,18h-33C31,18,29,20.49,29,23.57V64.43C29,67.5,31,70,33.5,70h23a5.47,5.47,0,0,0,4.24-2.18l8.48-10.5A8.39,8.39,0,0,0,71,52.07V23.57C71,20.49,69,18,66.5,18ZM35,25.43H65v26H59c-1.66,0-3,1.66-3,3.71v7.43H35Z" transform="translate(-4.5 -3.5)"/><line class="cls-5" x1="34.27" y1="27.75" x2="55.76" y2="27.75"/><line class="cls-5" x1="34.27" y1="36.42" x2="55.76" y2="36.42"/><line class="cls-5" x1="34.27" y1="44.58" x2="55.76" y2="44.58"/><line class="cls-5" x1="34.27" y1="52.74" x2="55.76" y2="52.74"/></g></svg>