<svg xmlns="http://www.w3.org/2000/svg" viewBox="0 0 91 92.5"><defs><style>.cls-1{fill:#fff;}.cls-2,.cls-4{fill:none;stroke-miterlimit:10;}.cls-2{stroke:#ff5156;stroke-width:3px;}.cls-3{fill:#ff5156;}.cls-4{stroke:#c3b39c;}</style></defs><g id="carte"><g id="fond_2_beige" data-name="fond 2 beige"><rect id="fond_1_blanc" data-name="fond 1 blanc" class="cls-1" x="2.5" y="2.5" width="86" height="87" rx="4.67"/></g><g id="angles"><rect id="contour" class="cls-2" x="1.5" y="1.5" width="88" height="89.5" rx="4.67"/><g id="coins"><path class="cls-3" d="M1.76,65H8A13,13,0,0,1,21,78V91a0,0,0,0,1,0,0H8.5A7.5,7.5,0,0,1,1,83.5V65.76A.76.76,0,0,1,1.76,65Z"/><path class="cls-3" d="M74.76,5H81A13,13,0,0,1,94,18V31a0,0,0,0,1,0,0H81.5A7.5,7.5,0,0,1,74,23.5V5.76A.76.76,0,0,1,74.76,5Z" transform="translate(163.5 32.5) rotate(180)"/></g><g id="symboles_angles" data-name="symboles angles"><path class="cls-1" d="M15,77.5a2.25,2.25,0,1,0-2.29-2.25A2.27,2.27,0,0,0,15,77.5Zm1.59.56h-.3a3.13,3.13,0,0,1-1.3.28,3.16,3.16,0,0,1-1.3-.28h-.3A2.38,2.38,0,0,0,11,80.42v.74a.85.85,0,0,0,.86.84h6.28a.85.85,0,0,0,.86-.84v-.74A2.38,2.38,0,0,0,16.6,78.06Z" transform="translate(-4.5 -3.5)"/><path class="cls-1" d="M11.9,88.12l2-2.64a2.55,2.55,0,0,0,.27-.48,1.29,1.29,0,0,0,.09-.45h0A.72.72,0,0,0,14,84a.8.8,0,0,0-.56-.18.82.82,0,0,0-.57.2,1,1,0,0,0-.26.58h-.82a2.09,2.09,0,0,1,.28-.83,1.57,1.57,0,0,1,.56-.53,1.71,1.71,0,0,1,.8-.18,2,2,0,0,1,.86.17,1.24,1.24,0,0,1,.55.51,1.55,1.55,0,0,1,.19.8h0a1.65,1.65,0,0,1-.13.63,2.64,2.64,0,0,1-.34.64L13,88.05H15.1v.76H11.9Z" transform="translate(-4.5 -3.5)"/><path class="cls-1" d="M19.25,85.81v.76H16.08v-.76Zm-1.19,2h-.8V84.6h.8Z" transform="translate(-4.5 -3.5)"/></g></g><g id="symboles"><line class="cls-4" x1="5" y1="5.5" x2="5" y2="63.5"/><line class="cls-4" x1="86" y1="29.5" x2="86" y2="87.5"/><line class="cls-4" x1="8.5" y1="5" x2="66.5" y2="5"/><line class="cls-4" x1="24.5" y1="87" x2="82.5" y2="87"/></g></g><g id="Tour"><path d="M50,41.6h6V50H50Zm.6,7.26,2-3.06-2-3.06ZM55,42.2H51l2,3.06Zm0,7.2-2-3.06L51,49.4Zm.36-.54V42.74l-2,3.06Z" transform="translate(-4.5 -3.5)"/><ellipse class="cls-1" cx="42.75" cy="37.25" rx="18.05" ry="17.67"/></g><g id="titre"><path d="M33.53,83.57a2.38,2.38,0,0,1-.92,1.87,3.87,3.87,0,0,1-2,.87h-.07c-.08,0-.27-.25-.55-.75a3.25,3.25,0,0,1-.42-.93s0-.06.08-.07a6.08,6.08,0,0,0,1-.3.9.9,0,0,0,.56-.83,1.26,1.26,0,0,0-.37-.78q-.63-.72-.69-.81a2.22,2.22,0,0,1-.37-1.23A2,2,0,0,1,30.76,79a4,4,0,0,1,1.82-.69h.09c.06,0,.1,0,.13.13.1.26.31.73.65,1.42l0,0c0,.06,0,.09-.1.09h-.14l-.16,0a1.28,1.28,0,0,0-.68.18.62.62,0,0,0-.35.57,1.41,1.41,0,0,0,.39.8c.46.57.69.88.72.9A2.22,2.22,0,0,1,33.53,83.57Z" transform="translate(-4.5 -3.5)"/><path d="M40.31,83.46a2.75,2.75,0,0,1-.68,1.9,2.33,2.33,0,0,1-1.83.79,2.21,2.21,0,0,1-.89-.21,2,2,0,0,1-.43-.2s-.07.05-.07.16,0,.46,0,.83,0,.64,0,.82-.06.17-.18.17h-1.1a2.42,2.42,0,0,1-.48,0,.19.19,0,0,1-.16-.2V83.37a10.43,10.43,0,0,0-.18-2.11.38.38,0,0,1,0-.1.09.09,0,0,1,.06-.1,4.72,4.72,0,0,1,.8-.18,6.05,6.05,0,0,1,.83-.09c.14,0,.22.1.24.28s.05.28.07.28.12-.1.46-.3a2,2,0,0,1,.94-.29,2.41,2.41,0,0,1,1.86.77A2.76,2.76,0,0,1,40.31,83.46Zm-2,0a1.11,1.11,0,0,0-.26-.75.87.87,0,0,0-.7-.34.81.81,0,0,0-.69.34,1.22,1.22,0,0,0-.23.75,1.16,1.16,0,0,0,.24.75.83.83,0,0,0,.7.33C38,84.53,38.31,84.17,38.31,83.45Z" transform="translate(-4.5 -3.5)"/><path d="M45.92,83.12c0,.37-.11.57-.35.62l-1.11.12c-.42,0-1.05.1-1.89.17a.75.75,0,0,0,.46.53,1.61,1.61,0,0,0,.71.15,2,2,0,0,0,1-.26l.41-.26a1.79,1.79,0,0,1,.38.55,2.14,2.14,0,0,1,.26.63.2.2,0,0,1-.08.12,2.65,2.65,0,0,1-2,.71,2.88,2.88,0,0,1-2.07-.75,2.66,2.66,0,0,1-.8-2,2.9,2.9,0,0,1,.72-2,2.53,2.53,0,0,1,2-.82,2.3,2.3,0,0,1,1.75.76A2.48,2.48,0,0,1,45.92,83.12ZM44,82.8a.83.83,0,0,0-.23-.59.75.75,0,0,0-.57-.25.66.66,0,0,0-.55.28,1,1,0,0,0-.21.62.13.13,0,0,0,.15.15,10.18,10.18,0,0,0,1.24-.13C44,82.87,44,82.84,44,82.8Z" transform="translate(-4.5 -3.5)"/><path d="M51.43,83.12c0,.37-.11.57-.34.62L50,83.86c-.42,0-1,.1-1.89.17a.78.78,0,0,0,.46.53,1.61,1.61,0,0,0,.71.15,2,2,0,0,0,1-.26l.41-.26a1.79,1.79,0,0,1,.38.55,2.14,2.14,0,0,1,.26.63.2.2,0,0,1-.08.12,2.63,2.63,0,0,1-2,.71,2.88,2.88,0,0,1-2.07-.75,2.66,2.66,0,0,1-.8-2,2.9,2.9,0,0,1,.72-2,2.53,2.53,0,0,1,2-.82,2.3,2.3,0,0,1,1.75.76A2.44,2.44,0,0,1,51.43,83.12Zm-1.88-.32a.83.83,0,0,0-.23-.59.75.75,0,0,0-.57-.25.66.66,0,0,0-.55.28,1,1,0,0,0-.21.62.13.13,0,0,0,.15.15,10.18,10.18,0,0,0,1.24-.13C49.5,82.87,49.55,82.84,49.55,82.8Z" transform="translate(-4.5 -3.5)"/><path d="M57.72,78.42c0-.08,0,0,0,.35s-.07.91-.1,1.53,0,1.5,0,2.4a28.32,28.32,0,0,0,.12,3.15c0,.07,0,.11,0,.13s0,.06-.08.07-.61,0-1.43,0c-.19,0-.3,0-.33-.11s0-.28,0-.41a.2.2,0,0,0,0-.09l-.08.07a2,2,0,0,1-1.45.57,2.27,2.27,0,0,1-1.81-.8,2.83,2.83,0,0,1-.65-1.91,2.86,2.86,0,0,1,.64-1.93,2.25,2.25,0,0,1,1.82-.81,1.62,1.62,0,0,1,1.27.52c.05.06.08.09.1.09s0,0,0-.14c0-.28,0-.69,0-1.24s0-1,0-1.23q0-.15.09-.18l.94-.06c.72-.09,1-.13,1-.13C57.68,78.29,57.72,78.33,57.72,78.42Zm-2,4.94a1,1,0,0,0-.29-.75,1,1,0,0,0-.72-.32.88.88,0,0,0-.7.32,1.19,1.19,0,0,0-.26.77,1,1,0,0,0,.27.73.85.85,0,0,0,.69.33.91.91,0,0,0,.72-.33A1,1,0,0,0,55.69,83.36Z" transform="translate(-4.5 -3.5)"/><path d="M70.84,81.26s-.33.73-1,2.16-1.06,2.28-1.16,2.46-.05.11-.06.11a.15.15,0,0,1-.1.05,5.24,5.24,0,0,1-.76,0A4.82,4.82,0,0,1,67,86l-.13,0-.07-.1s-.12-.3-.3-.76L66,83.65l-.59,1.5c-.07.18-.16.42-.31.75A1.15,1.15,0,0,1,65,86l-.12,0a5.45,5.45,0,0,1-.71,0,5.22,5.22,0,0,1-.77,0c-.06,0-.11-.07-.15-.16a43.07,43.07,0,0,1-2.11-4.62q0-.44,0-1.29t0-1.29c0-.12,0-.17.11-.17s.51,0,.93,0l.93,0c.08,0,.12,0,.12.1,0,.29,0,.72,0,1.3s0,1,0,1.3a4.61,4.61,0,0,0,.39,1c.24.52.41.87.52,1s.09.14.11.14.1-.17.22-.52a10,10,0,0,0,.51-1.71c0-.32,0-.74,0-1.25,0-.74,0-1.16,0-1.26a.31.31,0,0,1,0-.13l.12,0c.18,0,.49,0,.94,0,.69,0,1,0,1,.14s0,.61,0,1.12,0,.86,0,1.12v.27a8.68,8.68,0,0,0,.55,1.75c.13.34.2.51.23.51s0,0,.11-.14.26-.53.48-1a4.58,4.58,0,0,0,.37-1c0-.3,0-.73,0-1.31s0-1,0-1.29c0-.07,0-.1.12-.1l1,0c.42,0,.74,0,1,0s.1.07.1.21,0,.71,0,1.27S70.84,81,70.84,81.26Z" transform="translate(-4.5 -3.5)"/><path d="M76.76,83.4a2.73,2.73,0,0,1-.75,2,2.68,2.68,0,0,1-2,.76,2.6,2.6,0,0,1-2.71-2.69,2.86,2.86,0,0,1,.73-2,2.59,2.59,0,0,1,2-.78,2.59,2.59,0,0,1,2.72,2.74ZM75,83.4a1.15,1.15,0,0,0-.27-.75.82.82,0,0,0-.68-.33.9.9,0,0,0-.7.34,1.12,1.12,0,0,0-.25.74,1.11,1.11,0,0,0,.25.74.87.87,0,0,0,.7.34.83.83,0,0,0,.69-.34A1.11,1.11,0,0,0,75,83.4Z" transform="translate(-4.5 -3.5)"/><path d="M81,82.7c0,.13-.08.2-.23.2h-.59a.93.93,0,0,0-.61.14.72.72,0,0,0-.16.56c0,.16,0,.39,0,.7V85c0,.11,0,.26,0,.47s0,.36,0,.46-.06.13-.18.14-.43,0-.79,0-.61,0-.82,0a.17.17,0,0,1-.17-.18V84.58c0-.57,0-1,0-1.29a8,8,0,0,0-.23-2.08.25.25,0,0,1,0-.08.11.11,0,0,1,.08-.11l.86-.11.88-.17c.06,0,.1.11.12.34s0,.34.1.34.09-.1.44-.29a2.13,2.13,0,0,1,1-.28c.2,0,.3.05.3.13s0,.25,0,.44,0,.35,0,.44,0,.24,0,.42S81,82.63,81,82.7Z" transform="translate(-4.5 -3.5)"/><path d="M87.29,78.42c0-.08,0,0,0,.35s-.07.91-.09,1.53,0,1.5,0,2.4a25.46,25.46,0,0,0,.13,3.15c0,.07,0,.11,0,.13s0,.06-.08.07-.61,0-1.43,0c-.19,0-.3,0-.33-.11s0-.28,0-.41a.18.18,0,0,0,0-.09.17.17,0,0,0-.08.07,2,2,0,0,1-1.45.57,2.29,2.29,0,0,1-1.82-.8,2.83,2.83,0,0,1-.65-1.91A2.86,2.86,0,0,1,82,81.47a2.26,2.26,0,0,1,1.83-.81,1.6,1.6,0,0,1,1.26.52c0,.06.08.09.11.09s0,0,0-.14c0-.28,0-.69,0-1.24s0-1,0-1.23q0-.15.09-.18l.94-.06c.72-.09,1-.13,1-.13C87.25,78.29,87.29,78.33,87.29,78.42Zm-2,4.94a1.05,1.05,0,0,0-.3-.75.94.94,0,0,0-.71-.32.88.88,0,0,0-.71.32,1.19,1.19,0,0,0-.26.77,1,1,0,0,0,.27.73.86.86,0,0,0,.7.33.94.94,0,0,0,.72-.33A1.08,1.08,0,0,0,85.27,83.36Z" transform="translate(-4.5 -3.5)"/><path d="M68.5,62h-35a5,5,0,0,1-5-5V37a5,5,0,0,1,5-5h35a5,5,0,0,1,5,5V57A5,5,0,0,1,68.5,62Zm-30-20.94V37.94a.94.94,0,0,0-.94-.94H34.44a.94.94,0,0,0-.94.94v3.12a.94.94,0,0,0,.94.94h3.12A.94.94,0,0,0,38.5,41.06Zm7.5,0V37.94a.94.94,0,0,0-.94-.94H41.94a.94.94,0,0,0-.94.94v3.12a.94.94,0,0,0,.94.94h3.12A.94.94,0,0,0,46,41.06Zm7.5,0V37.94a.94.94,0,0,0-.94-.94H49.44a.94.94,0,0,0-.94.94v3.12a.94.94,0,0,0,.94.94h3.12A.94.94,0,0,0,53.5,41.06Zm7.5,0V37.94a.94.94,0,0,0-.94-.94H56.94a.94.94,0,0,0-.94.94v3.12a.94.94,0,0,0,.94.94h3.12A.94.94,0,0,0,61,41.06Zm7.5,0V37.94a.94.94,0,0,0-.94-.94H64.44a.94.94,0,0,0-.94.94v3.12a.94.94,0,0,0,.94.94h3.12A.94.94,0,0,0,68.5,41.06Zm-30,7.5V45.44a.94.94,0,0,0-.94-.94H34.44a.94.94,0,0,0-.94.94v3.12a.94.94,0,0,0,.94.94h3.12A.94.94,0,0,0,38.5,48.56Zm7.5,0V45.44a.94.94,0,0,0-.94-.94H41.94a.94.94,0,0,0-.94.94v3.12a.94.94,0,0,0,.94.94h3.12A.94.94,0,0,0,46,48.56Zm7.5,0V45.44a.94.94,0,0,0-.94-.94H49.44a.94.94,0,0,0-.94.94v3.12a.94.94,0,0,0,.94.94h3.12A.94.94,0,0,0,53.5,48.56Zm7.5,0V45.44a.94.94,0,0,0-.94-.94H56.94a.94.94,0,0,0-.94.94v3.12a.94.94,0,0,0,.94.94h3.12A.94.94,0,0,0,61,48.56Zm7.5,0V45.44a.94.94,0,0,0-.94-.94H64.44a.94.94,0,0,0-.94.94v3.12a.94.94,0,0,0,.94.94h3.12A.94.94,0,0,0,68.5,48.56Zm-30,7.5V52.94a.94.94,0,0,0-.94-.94H34.44a.94.94,0,0,0-.94.94v3.12a.94.94,0,0,0,.94.94h3.12A.94.94,0,0,0,38.5,56.06Zm22.5,0V52.94a.94.94,0,0,0-.94-.94H41.94a.94.94,0,0,0-.94.94v3.12a.94.94,0,0,0,.94.94H60.06A.94.94,0,0,0,61,56.06Zm7.5,0V52.94a.94.94,0,0,0-.94-.94H64.44a.94.94,0,0,0-.94.94v3.12a.94.94,0,0,0,.94.94h3.12A.94.94,0,0,0,68.5,56.06Z" transform="translate(-4.5 -3.5)"/></g></svg>