<svg xmlns="http://www.w3.org/2000/svg" viewBox="0 0 91 92.5"><defs><style>.cls-1{fill:#fff;}.cls-2,.cls-4{fill:none;stroke-miterlimit:10;}.cls-2{stroke:#ff5156;stroke-width:3px;}.cls-3{fill:#ff5156;}.cls-4{stroke:#c3b39c;}</style></defs><g id="carte"><g id="fond_2_beige" data-name="fond 2 beige"><rect id="fond_1_blanc" data-name="fond 1 blanc" class="cls-1" x="2.5" y="2.5" width="86" height="87" rx="4.67"/></g><g id="angles"><rect id="contour" class="cls-2" x="1.5" y="1.5" width="88" height="89.5" rx="4.67"/><g id="coins"><path class="cls-3" d="M1.76,65H8A13,13,0,0,1,21,78V91a0,0,0,0,1,0,0H8.5A7.5,7.5,0,0,1,1,83.5V65.76A.76.76,0,0,1,1.76,65Z"/><path class="cls-3" d="M74.76,5H81A13,13,0,0,1,94,18V31a0,0,0,0,1,0,0H81.5A7.5,7.5,0,0,1,74,23.5V5.76A.76.76,0,0,1,74.76,5Z" transform="translate(163.5 32.5) rotate(180)"/></g><g id="symboles_angles" data-name="symboles angles"><path class="cls-1" d="M15,77.5a2.25,2.25,0,1,0-2.29-2.25A2.27,2.27,0,0,0,15,77.5Zm1.59.56h-.3a3.13,3.13,0,0,1-1.3.28,3.16,3.16,0,0,1-1.3-.28h-.3A2.38,2.38,0,0,0,11,80.42v.74a.85.85,0,0,0,.86.84h6.28a.85.85,0,0,0,.86-.84v-.74A2.38,2.38,0,0,0,16.6,78.06Z" transform="translate(-4.5 -3.5)"/><path class="cls-1" d="M11.9,88.12l2-2.64a2.55,2.55,0,0,0,.27-.48,1.29,1.29,0,0,0,.09-.45h0A.72.72,0,0,0,14,84a.8.8,0,0,0-.56-.18.82.82,0,0,0-.57.2,1,1,0,0,0-.26.58h-.82a2.09,2.09,0,0,1,.28-.83,1.57,1.57,0,0,1,.56-.53,1.71,1.71,0,0,1,.8-.18,2,2,0,0,1,.86.17,1.24,1.24,0,0,1,.55.51,1.55,1.55,0,0,1,.19.8h0a1.65,1.65,0,0,1-.13.63,2.64,2.64,0,0,1-.34.64L13,88.05H15.1v.76H11.9Z" transform="translate(-4.5 -3.5)"/><path class="cls-1" d="M19.25,85.81v.76H16.08v-.76Zm-1.19,2h-.8V84.6h.8Z" transform="translate(-4.5 -3.5)"/></g></g><g id="symboles"><line class="cls-4" x1="5" y1="5.5" x2="5" y2="63.5"/><line class="cls-4" x1="86" y1="29.5" x2="86" y2="87.5"/><line class="cls-4" x1="8.5" y1="5" x2="66.5" y2="5"/><line class="cls-4" x1="24.5" y1="87" x2="82.5" y2="87"/></g></g><g id="Tour"><path d="M50,41.6h6V50H50Zm.6,7.26,2-3.06-2-3.06ZM55,42.2H51l2,3.06Zm0,7.2-2-3.06L51,49.4Zm.36-.54V42.74l-2,3.06Z" transform="translate(-4.5 -3.5)"/><ellipse class="cls-1" cx="42.75" cy="37.25" rx="18.05" ry="17.67"/></g><g id="titre"><path d="M46,71.15c0,.07,0,.11-.12.11l-1.61-.08c0,.9,0,1.53,0,1.89s0,1.06.05,1.91.06,1.48.06,1.9c0,.07,0,.12,0,.13l-.15,0a7.67,7.67,0,0,1-1,0,7.32,7.32,0,0,1-1,0c-.1,0-.15-.07-.15-.16,0-.43,0-1.06,0-1.91s.06-1.48.06-1.9,0-.9-.05-1.87c-.71.07-1.28.11-1.71.11-.06,0-.09,0-.09,0a3.53,3.53,0,0,1,.08-.42c.06-.25.09-.4.1-.45l0-.51c0-.27.07-.4.13-.4h.08a20.28,20.28,0,0,0,2.57.12c.32,0,.92,0,1.78-.11l.71,0H46a.2.2,0,0,1,0,.11c0,.1,0,.23,0,.4s0,.33,0,.41a2.41,2.41,0,0,0,0,.39A3.61,3.61,0,0,1,46,71.15Z" transform="translate(-4.5 -3.5)"/><path d="M48.55,74.58c0,.26,0,.65,0,1.16s0,.91,0,1.17c0,.07-.05.12-.14.13a6.6,6.6,0,0,1-.82,0,6.92,6.92,0,0,1-.83,0,.2.2,0,0,1-.14-.07.5.5,0,0,1,0-.16c0-.25,0-.62,0-1.11s0-.87,0-1.12a19.31,19.31,0,0,0-.12-2.43.66.66,0,0,1,0-.11c0-.08.05-.11.15-.11l.46,0,.46,0,.47,0,.46,0c.09,0,.13,0,.13.11a.58.58,0,0,1,0,.1A21.66,21.66,0,0,0,48.55,74.58Zm.14-4c0,.63-.35.94-1,.94a1.12,1.12,0,0,1-.74-.24.88.88,0,0,1,0-1.38,1.08,1.08,0,0,1,.73-.25,1.12,1.12,0,0,1,.73.25A.87.87,0,0,1,48.69,70.58Z" transform="translate(-4.5 -3.5)"/><path d="M53.15,73.7c0,.13-.07.2-.23.2h-.59a.93.93,0,0,0-.61.14.76.76,0,0,0-.16.56c0,.16,0,.39,0,.7s0,.55,0,.7,0,.26,0,.47,0,.36,0,.46-.06.13-.18.14-.43,0-.79,0-.61,0-.81,0-.18-.07-.18-.18c0-.28,0-.71,0-1.28V74.29a8,8,0,0,0-.23-2.08.25.25,0,0,1,0-.08.12.12,0,0,1,.08-.11l.87-.11c.56-.12.85-.17.87-.17s.11.11.13.34,0,.34.09.34.1-.1.44-.29a2.2,2.2,0,0,1,1-.28c.2,0,.3.05.3.13a2.93,2.93,0,0,1,0,.44c0,.21,0,.35,0,.44v.42C53.15,73.49,53.15,73.63,53.15,73.7Z" transform="translate(-4.5 -3.5)"/><path d="M61.93,74.36c0,.27,0,.68,0,1.23s.05,1,.05,1.22a.2.2,0,0,1-.19.23c-.45,0-1,0-1.53,0-.07,0-.11-.1-.14-.31s-.05-.31-.08-.31a.35.35,0,0,0-.11.09,1.81,1.81,0,0,1-1.29.6A2.14,2.14,0,0,1,57,76.34a2.76,2.76,0,0,1-.66-1.85,2.9,2.9,0,0,1,.68-2,2.42,2.42,0,0,1,1.91-.78,1.62,1.62,0,0,1,1.33.59l0,0s.07-.09.11-.27.09-.26.15-.26a4.41,4.41,0,0,1,.75.12,7.72,7.72,0,0,1,.77.18c.05,0,.08.05.08.09s0,0,0,.11A12.27,12.27,0,0,0,61.93,74.36Zm-1.27-3.15c0,.07,0,.1-.12.1h0a5.94,5.94,0,0,1-1.59-.43A4.56,4.56,0,0,1,57.5,70a.14.14,0,0,1-.08-.12s0-.06.08-.1l.46-.28c.08-.09.22-.21.4-.37l.1,0,1.06.74a9.82,9.82,0,0,0,1,.54c.07,0,.11.06.11.1a.69.69,0,0,1,0,.18,1.63,1.63,0,0,0,0,.36A.69.69,0,0,1,60.66,71.21Zm-.46,3.18a1.06,1.06,0,0,0-.29-.76,1,1,0,0,0-.75-.3,1,1,0,0,0-.74.3,1.06,1.06,0,0,0-.29.76,1,1,0,0,0,.3.74,1,1,0,0,0,1.48,0A1.06,1.06,0,0,0,60.2,74.39Z" transform="translate(-4.5 -3.5)"/><path d="M67.7,73.81c0,1,0,1.73,0,2.25,0,.08,0,.22,0,.42s0,.33,0,.43,0,.12-.14.13a5.74,5.74,0,0,1-.87,0,4.6,4.6,0,0,1-.82,0,.16.16,0,0,1-.13-.14v-.23c0-.32,0-.8,0-1.44s0-1.11,0-1.42V71.75a16.84,16.84,0,0,0-.13-2,.31.31,0,0,1,0-.09c0-.08,0-.12.14-.12h1.91c.09,0,.13,0,.13.12v.09C67.75,71.25,67.7,72.62,67.7,73.81Z" transform="translate(-4.5 -3.5)"/><path d="M74.08,74.36c0,.27,0,.68,0,1.23s.05,1,.05,1.22S74.12,77,74,77c-.44,0-.95,0-1.52,0-.07,0-.12-.1-.14-.31s0-.31-.08-.31a.36.36,0,0,0-.12.09,1.81,1.81,0,0,1-1.29.6,2.16,2.16,0,0,1-1.73-.82,2.8,2.8,0,0,1-.65-1.85,2.9,2.9,0,0,1,.67-2A2.44,2.44,0,0,1,71,71.71a1.63,1.63,0,0,1,1.34.59l0,0s.07-.09.11-.27.09-.26.15-.26a4.47,4.47,0,0,1,.76.12,7.36,7.36,0,0,1,.76.18s.08.05.08.09a.34.34,0,0,1,0,.11A12.27,12.27,0,0,0,74.08,74.36Zm-1.73,0a1.05,1.05,0,0,0-.28-.76,1,1,0,0,0-.75-.3,1,1,0,0,0-.75.3,1.05,1.05,0,0,0-.28.76,1,1,0,0,0,.3.74,1,1,0,0,0,.73.32,1,1,0,0,0,.74-.3A1,1,0,0,0,72.35,74.39Z" transform="translate(-4.5 -3.5)"/><path d="M48.22,82.51l-.32-.09a2.09,2.09,0,0,0-.52-.09,1,1,0,0,0-.76.29,1,1,0,0,0-.29.77,1,1,0,0,0,.31.77,1.16,1.16,0,0,0,.81.29,1.39,1.39,0,0,0,.53-.12l.28-.13c.07,0,.14.23.24.69a5.53,5.53,0,0,1,.12.82c0,.14-.22.26-.66.35a3.9,3.9,0,0,1-.83.12,2.59,2.59,0,0,1-2-.8,2.93,2.93,0,0,1,0-4,2.56,2.56,0,0,1,2-.8,2.77,2.77,0,0,1,1.4.34c.1.05.14.1.14.15a5.11,5.11,0,0,1-.16.63c-.1.36-.16.58-.19.65S48.25,82.51,48.22,82.51Z" transform="translate(-4.5 -3.5)"/><path d="M54.41,83.4a2.73,2.73,0,0,1-.75,2,2.68,2.68,0,0,1-2,.76A2.6,2.6,0,0,1,49,83.46a2.86,2.86,0,0,1,.73-2,2.59,2.59,0,0,1,2-.78,2.68,2.68,0,0,1,2,.76A2.71,2.71,0,0,1,54.41,83.4Zm-1.76,0a1.15,1.15,0,0,0-.27-.75.82.82,0,0,0-.68-.33.9.9,0,0,0-.7.34,1.12,1.12,0,0,0-.25.74,1.11,1.11,0,0,0,.25.74.87.87,0,0,0,.7.34.83.83,0,0,0,.69-.34A1.11,1.11,0,0,0,52.65,83.4Z" transform="translate(-4.5 -3.5)"/><path d="M58.62,82.7c0,.13-.08.2-.23.2H57.8a.93.93,0,0,0-.61.14.72.72,0,0,0-.16.56c0,.16,0,.39,0,.7V85c0,.11,0,.26,0,.47s0,.36,0,.46-.06.13-.18.14-.43,0-.79,0-.61,0-.81,0-.18-.07-.18-.18V84.58c0-.57,0-1,0-1.29a8,8,0,0,0-.23-2.08.25.25,0,0,1,0-.08A.11.11,0,0,1,55,81l.86-.11.88-.17c.06,0,.1.11.12.34s0,.34.1.34.1-.1.44-.29a2.13,2.13,0,0,1,1-.28c.2,0,.3.05.3.13s0,.25,0,.44,0,.35,0,.44,0,.24,0,.42S58.62,82.63,58.62,82.7Z" transform="translate(-4.5 -3.5)"/><path d="M64.94,78.42c0-.08,0,0,0,.35s-.07.91-.09,1.53,0,1.5,0,2.4a25.46,25.46,0,0,0,.13,3.15c0,.07,0,.11,0,.13s0,.06-.08.07-.61,0-1.43,0c-.19,0-.3,0-.33-.11s0-.28,0-.41a.18.18,0,0,0,0-.09.17.17,0,0,0-.08.07,2,2,0,0,1-1.45.57,2.29,2.29,0,0,1-1.82-.8A2.83,2.83,0,0,1,59,83.4a2.86,2.86,0,0,1,.64-1.93,2.26,2.26,0,0,1,1.83-.81,1.6,1.6,0,0,1,1.26.52c.05.06.08.09.11.09s0,0,0-.14c0-.28,0-.69,0-1.24s0-1,0-1.23q0-.15.09-.18l.94-.06a8.82,8.82,0,0,0,.95-.13C64.9,78.29,64.94,78.33,64.94,78.42Zm-2,4.94a1.05,1.05,0,0,0-.3-.75.94.94,0,0,0-.71-.32.85.85,0,0,0-.7.32,1.14,1.14,0,0,0-.26.77,1,1,0,0,0,.26.73.86.86,0,0,0,.7.33.94.94,0,0,0,.72-.33A1.08,1.08,0,0,0,62.92,83.36Z" transform="translate(-4.5 -3.5)"/><path d="M70.66,83.12c0,.37-.12.57-.35.62l-1.11.12c-.43,0-1.06.1-1.9.17a.78.78,0,0,0,.46.53,1.64,1.64,0,0,0,.71.15,2,2,0,0,0,1-.26l.41-.26a1.79,1.79,0,0,1,.38.55,1.87,1.87,0,0,1,.26.63.2.2,0,0,1-.08.12,2.63,2.63,0,0,1-2,.71,2.89,2.89,0,0,1-2.07-.75,2.66,2.66,0,0,1-.8-2,2.9,2.9,0,0,1,.72-2,2.54,2.54,0,0,1,2-.82,2.32,2.32,0,0,1,1.75.76A2.48,2.48,0,0,1,70.66,83.12Zm-1.88-.32a.84.84,0,0,0-.24-.59A.75.75,0,0,0,68,82a.66.66,0,0,0-.56.28,1,1,0,0,0-.21.62.13.13,0,0,0,.15.15,10.18,10.18,0,0,0,1.24-.13C68.72,82.87,68.78,82.84,68.78,82.8Z" transform="translate(-4.5 -3.5)"/><path d="M54,33.21A2.82,2.82,0,1,1,51.2,30.4,2.81,2.81,0,0,1,54,33.21ZM36,40a2.81,2.81,0,1,1,2.81,2.81A2.81,2.81,0,0,1,36,40ZM71.45,57.38a2.25,2.25,0,0,1,2.25,2.41,2.33,2.33,0,0,1-2.29,2.09H31a2.25,2.25,0,1,1,0-4.5ZM60.77,40a2.81,2.81,0,1,1,2.81,2.81A2.81,2.81,0,0,1,60.77,40Zm-18,12.92a2.25,2.25,0,0,1-2.25,2.25H37.13a2.25,2.25,0,0,1-2.25-2.25V50.17L33,53.68a1.69,1.69,0,0,1-3-1.6l2.66-4.95a6.2,6.2,0,0,1,5.45-3.25H39.5a6.3,6.3,0,0,1,3.2.88l2.35-4.38a6.2,6.2,0,0,1,5.45-3.25h1.38a6.2,6.2,0,0,1,5.45,3.25l2.35,4.38a6.3,6.3,0,0,1,3.2-.88h1.37a6.19,6.19,0,0,1,5.45,3.25l2.66,4.95a1.69,1.69,0,0,1-3,1.6L67.5,50.17v2.71a2.25,2.25,0,0,1-2.25,2.25H60.63a1,1,0,0,1-1-1V50.17l-1.89,3.51a1.69,1.69,0,0,1-2.29.68,1.63,1.63,0,0,1-.68-2.28l2.55-4.75a1.35,1.35,0,0,1-.3-.4l-1.89-3.51V48.5a1,1,0,0,1-1,1H49.43a2.29,2.29,0,0,1-2.25-2.25V43.42l-1.82,3.51c-.15.16-.19.29-.31.4l2.55,4.75a1.68,1.68,0,1,1-3,1.6l-2-3.51Z" transform="translate(-4.5 -3.5)"/></g></svg>