<svg id="Calque_1" data-name="Calque 1" xmlns="http://www.w3.org/2000/svg" viewBox="0 0 89 35.5"><defs><style>.cls-1,.cls-3{fill:#010101;}.cls-2,.cls-5{fill:#fff;}.cls-2,.cls-3,.cls-4{stroke:#010101;}.cls-2,.cls-3,.cls-4,.cls-5{stroke-miterlimit:10;}.cls-4{fill:none;}.cls-5{stroke:#fff;}</style></defs><path class="cls-1" d="M50,69" transform="translate(-10 -5)"/><path class="cls-2" d="M15.61,10.18C21.22,7.59,32,20.06,35,24.21c1.39,1.92,3.29,5.11,4.24,6.7,2.18,3.64,3.26,5.47,3,6.1-1.48,4.22-23.1,4.63-28.51-5.49a13.34,13.34,0,0,1-1.21-3.66C11.13,21.67,11.49,12.08,15.61,10.18Z" transform="translate(-10 -5)"/><path class="cls-3" d="M37.14,28.47c2.3,5.79-2.85,11.28-6.37,11.28s-6.37-5-6.37-11.28c0-4.47,2.12-11.28,4.25-11.28.61,0,1.21.61,1.82,1.22A31.28,31.28,0,0,1,37.14,28.47Z" transform="translate(-10 -5)"/><polyline class="cls-1" points="12.58 6.71 10.97 5.59 2.88 0 7.13 4.88"/><polygon class="cls-1" points="3.59 6.9 0 5.5 2.8 7.68 3.59 6.9"/><path class="cls-4" d="M27.74,9a44.3,44.3,0,0,1,8.49,8.54,44.68,44.68,0,0,1,7.28,14.63" transform="translate(-10 -5)"/><ellipse class="cls-5" cx="23.05" cy="22.41" rx="2.27" ry="2.29"/><path class="cls-4" d="M12.88,13.54" transform="translate(-10 -5)"/><path class="cls-2" d="M93.39,10.37C87.78,7.78,77,20.25,74,24.39c-1.39,1.93-3.29,5.11-4.24,6.71-2.18,3.63-3.26,5.46-3,6.09,1.48,4.22,23.1,4.63,28.51-5.48a13.34,13.34,0,0,0,1.21-3.66C97.87,21.86,97.51,12.27,93.39,10.37Z" transform="translate(-10 -5)"/><path class="cls-3" d="M71.86,28.66c-2.3,5.78,2.85,11.28,6.37,11.28s6.37-5,6.37-11.28c0-4.48-2.12-11.28-4.25-11.28-.61,0-1.21.61-1.82,1.22A31.17,31.17,0,0,0,71.86,28.66Z" transform="translate(-10 -5)"/><polyline class="cls-1" points="76.42 6.89 78.03 5.78 86.12 0.18 81.88 5.06"/><polygon class="cls-1" points="85.41 7.08 89 5.68 86.2 7.86 85.41 7.08"/><path class="cls-4" d="M81.26,9.15A44.34,44.34,0,0,0,65.49,32.32" transform="translate(-10 -5)"/><ellipse class="cls-5" cx="65.95" cy="22.59" rx="2.27" ry="2.29"/><path class="cls-4" d="M96.12,13.72" transform="translate(-10 -5)"/></svg>