<svg id="Calque_1" data-name="Calque 1" xmlns="http://www.w3.org/2000/svg" viewBox="0 0 94 28.35"><defs><style>.cls-1,.cls-3{fill:#010101;}.cls-2,.cls-5{fill:#fff;}.cls-2,.cls-3,.cls-4{stroke:#010101;}.cls-2,.cls-3,.cls-4,.cls-5{stroke-miterlimit:10;}.cls-4{fill:none;}.cls-5{stroke:#fff;}</style></defs><path class="cls-1" d="M47.74,65.67" transform="translate(-5.5 -9.1)"/><path class="cls-2" d="M10.23,10.59c6.23-2.26,18.26,8.63,21.58,12.26,1.55,1.68,3.66,4.46,4.72,5.86,2.41,3.17,3.62,4.77,3.37,5.32-1.64,3.69-25.68,4-31.69-4.79A10.19,10.19,0,0,1,6.86,26C5.25,20.63,5.65,12.25,10.23,10.59Z" transform="translate(-5.5 -9.1)"/><path class="cls-3" d="M34.17,26.57c2.56,5.06-3.17,9.86-7.08,9.86S20,32,20,26.57c0-3.91,2.35-9.85,4.72-9.85a3.76,3.76,0,0,1,2,1.06A28.11,28.11,0,0,1,34.17,26.57Z" transform="translate(-5.5 -9.1)"/><path class="cls-4" d="M23.72,9.53A45.54,45.54,0,0,1,33.16,17a36.46,36.46,0,0,1,8.09,12.79" transform="translate(-5.5 -9.1)"/><ellipse class="cls-5" cx="24.12" cy="16.55" rx="2.53" ry="2"/><path class="cls-4" d="M7.2,13.52" transform="translate(-5.5 -9.1)"/><path class="cls-2" d="M94.77,11.05c-6.23-2.26-18.26,8.63-21.58,12.26-1.55,1.68-3.66,4.46-4.72,5.86-2.41,3.17-3.62,4.77-3.37,5.32,1.64,3.69,25.68,4,31.69-4.79a10.09,10.09,0,0,0,1.35-3.2C99.75,21.09,99.35,12.71,94.77,11.05Z" transform="translate(-5.5 -9.1)"/><path class="cls-3" d="M70.83,27c-2.56,5.05,3.17,9.85,7.08,9.85S85,32.48,85,27c0-3.92-2.35-9.86-4.72-9.86a3.76,3.76,0,0,0-2,1.06A28,28,0,0,0,70.83,27Z" transform="translate(-5.5 -9.1)"/><path class="cls-4" d="M81.28,10a45.63,45.63,0,0,0-9.44,7.46,36.35,36.35,0,0,0-8.09,12.78" transform="translate(-5.5 -9.1)"/><ellipse class="cls-5" cx="69.88" cy="17.01" rx="2.53" ry="2"/><path class="cls-4" d="M97.8,14" transform="translate(-5.5 -9.1)"/></svg>